<svg width="52" height="52" viewBox="0 0 52 52" fill="none" xmlns="http://www.w3.org/2000/svg">
<g filter="url(#filter0_di_0_66)">
<path d="M0.900024 5.90003C0.900024 3.1386 3.1386 0.900024 5.90002 0.900024H45.9C48.6614 0.900024 50.9 3.1386 50.9 5.90002V45.9C50.9 48.6614 48.6614 50.9 45.9 50.9H5.90003C3.1386 50.9 0.900024 48.6614 0.900024 45.9V5.90003Z" fill="#D9D9D9"/>
</g>
<g filter="url(#filter1_i_0_66)">
<path d="M9.90002 39.9L22.7761 25.3464L10.8718 11.9H18.3221L23.7479 18.465C24.7466 19.6778 25.57 20.7236 26.2178 21.6025C27.2166 20.4072 28.1074 19.379 28.8902 18.5177L34.8424 11.9H41.9687L29.781 25.0827L42.9 39.9H35.5712L28.3233 31.1995L26.4203 28.8529L17.1479 39.9H9.90002Z" fill="#0037FF"/>
</g>
<defs>
<filter id="filter0_di_0_66" x="2.44379e-05" y="2.44379e-05" width="51.8" height="51.8" filterUnits="userSpaceOnUse" color-interpolation-filters="sRGB">
<feFlood flood-opacity="0" result="BackgroundImageFix"/>
<feColorMatrix in="SourceAlpha" type="matrix" values="0 0 0 0 0 0 0 0 0 0 0 0 0 0 0 0 0 0 127 0" result="hardAlpha"/>
<feOffset/>
<feGaussianBlur stdDeviation="0.45"/>
<feComposite in2="hardAlpha" operator="out"/>
<feColorMatrix type="matrix" values="0 0 0 0 0 0 0 0 0 0 0 0 0 0 0 0 0 0 0.25 0"/>
<feBlend mode="normal" in2="BackgroundImageFix" result="effect1_dropShadow_0_66"/>
<feBlend mode="normal" in="SourceGraphic" in2="effect1_dropShadow_0_66" result="shape"/>
<feColorMatrix in="SourceAlpha" type="matrix" values="0 0 0 0 0 0 0 0 0 0 0 0 0 0 0 0 0 0 127 0" result="hardAlpha"/>
<feOffset/>
<feGaussianBlur stdDeviation="2.1"/>
<feComposite in2="hardAlpha" operator="arithmetic" k2="-1" k3="1"/>
<feColorMatrix type="matrix" values="0 0 0 0 0 0 0 0 0 0 0 0 0 0 0 0 0 0 1 0"/>
<feBlend mode="normal" in2="shape" result="effect2_innerShadow_0_66"/>
</filter>
<filter id="filter1_i_0_66" x="9.90002" y="11.9" width="33" height="32" filterUnits="userSpaceOnUse" color-interpolation-filters="sRGB">
<feFlood flood-opacity="0" result="BackgroundImageFix"/>
<feBlend mode="normal" in="SourceGraphic" in2="BackgroundImageFix" result="shape"/>
<feColorMatrix in="SourceAlpha" type="matrix" values="0 0 0 0 0 0 0 0 0 0 0 0 0 0 0 0 0 0 127 0" result="hardAlpha"/>
<feOffset dy="4"/>
<feGaussianBlur stdDeviation="2"/>
<feComposite in2="hardAlpha" operator="arithmetic" k2="-1" k3="1"/>
<feColorMatrix type="matrix" values="0 0 0 0 0 0 0 0 0 0 0 0 0 0 0 0 0 0 0.25 0"/>
<feBlend mode="normal" in2="shape" result="effect1_innerShadow_0_66"/>
</filter>
</defs>
</svg>
