<svg width="362" height="365" viewBox="0 0 362 365" fill="none" xmlns="http://www.w3.org/2000/svg">
<path d="M293.057 294.616L304.764 305.094L309.392 309.745L306.773 312.35L302.146 307.7L291.683 295.983L293.057 294.616ZM288.418 288.866L291.337 291.8L288.919 294.206L286 291.273L288.418 288.866ZM270.508 307.398C270.476 306.047 270.654 304.876 271.041 303.884C271.417 302.901 271.913 302.181 272.529 301.723C273.825 300.76 275.353 300.538 277.114 301.058C279.243 301.69 281.142 303.129 282.811 305.376C284.159 307.191 285.088 309.242 285.597 311.53C286.114 313.828 286.149 315.771 285.703 317.36C285.265 318.96 284.544 320.132 283.539 320.879C282.804 321.424 281.901 321.71 280.83 321.734C279.759 321.759 278.6 321.463 277.354 320.846L278.782 323.683L276.384 325.465L270.235 313.159C269.379 311.464 268.887 310.531 268.758 310.358C268.525 310.045 268.241 309.853 267.905 309.785C267.577 309.727 267.289 309.79 267.04 309.974C266.565 310.328 266.17 311.207 265.857 312.613C265.544 314.02 265.624 315.662 266.097 317.54C266.578 319.429 267.416 321.179 268.612 322.788C270.041 324.711 271.748 326.142 273.736 327.079C275.723 328.017 277.777 328.378 279.896 328.162C282.004 327.953 283.918 327.211 285.635 325.935C287.677 324.418 289.115 322.495 289.95 320.165C290.784 317.836 290.909 315.194 290.325 312.242C289.739 309.308 288.406 306.442 286.328 303.644C284.369 301.008 282.24 299.111 279.938 297.954C277.637 296.797 275.27 296.376 272.838 296.69C270.396 297.012 267.991 298.052 265.625 299.81C263.497 301.391 261.961 303.227 261.018 305.32C260.055 307.409 259.702 309.507 259.959 311.613L257.561 313.395C257.119 311.694 257.067 309.797 257.405 307.701C257.724 305.603 258.402 303.717 259.438 302.042C260.474 300.368 261.948 298.82 263.86 297.4C266.658 295.321 269.452 294.117 272.242 293.788C275.032 293.459 277.809 293.97 280.572 295.321C283.317 296.668 285.833 298.882 288.12 301.961C290.551 305.234 292.133 308.661 292.865 312.241C293.597 315.822 293.479 318.936 292.511 321.582C291.54 324.248 289.791 326.52 287.263 328.397C285.146 329.97 282.859 330.864 280.403 331.079C277.937 331.302 275.462 330.802 272.977 329.579C270.491 328.375 268.36 326.58 266.587 324.192C264.179 320.951 263.005 317.406 263.063 313.557C263.11 310.304 264.068 307.982 265.937 306.594C266.823 305.936 267.616 305.683 268.315 305.834C269.011 306.004 269.742 306.526 270.508 307.398ZM280.203 307.011C279.096 305.52 277.946 304.581 276.752 304.193C275.556 303.824 274.591 303.913 273.856 304.459C273.23 304.924 272.771 305.751 272.48 306.939C272.198 308.138 272.284 309.608 272.739 311.349C273.193 313.09 273.971 314.701 275.07 316.181C276.194 317.693 277.355 318.624 278.554 318.974C279.752 319.324 280.779 319.182 281.632 318.548C282.291 318.059 282.747 317.285 282.999 316.225C283.241 315.174 283.094 313.724 282.559 311.875C282.024 310.026 281.239 308.405 280.203 307.011ZM254.681 314.076L257.237 322.411L259.729 321.168L261.072 323.859L258.128 325.328L260.296 332.435L264.343 330.416L265.685 333.108L261.205 335.343L263.77 343.741L261.548 344.849L258.983 336.451L254.305 338.785L256.888 347.174L254.648 348.291L252.083 339.893L249.5 341.181L248.157 338.49L251.174 336.985L249.005 329.878L244.886 331.932L243.544 329.241L248.114 326.961L245.558 318.626L247.798 317.509L250.354 325.844L255.015 323.519L252.459 315.184L254.681 314.076ZM255.906 326.436L251.245 328.761L253.414 335.868L258.074 333.543L255.906 326.436ZM230.212 320.946L231.412 324.375C233.021 324.083 234.37 324.089 235.46 324.392C236.555 324.707 237.603 325.36 238.605 326.35C239.607 327.339 240.457 328.667 241.154 330.334L238.542 331.975C237.58 330.002 236.571 328.665 235.513 327.966C234.448 327.284 233.419 327.053 232.426 327.272L236.247 338.189C237.589 338.033 239.026 338.186 240.557 338.649C241.574 338.948 242.5 339.537 243.334 340.414C244.173 341.304 244.837 342.447 245.326 343.845C245.829 345.28 246.018 346.675 245.893 348.031C245.773 349.399 245.388 350.539 244.737 351.451C244.087 352.363 243.082 353.157 241.721 353.832L242.295 355.471L240.618 356.058L240.044 354.419C238.814 354.693 237.706 354.703 236.719 354.449C235.719 354.2 234.775 353.682 233.886 352.896C233.002 352.121 232.22 351.048 231.54 349.675L234.25 348.127C235.461 350.57 237.054 351.701 239.031 351.523L235.57 341.634C234.149 341.689 233.224 341.692 232.793 341.644C231.817 341.543 230.911 341.276 230.074 340.841C229.225 340.411 228.452 339.77 227.754 338.916C227.047 338.079 226.481 337.052 226.054 335.832C225.187 333.355 225.126 331.124 225.871 329.138C226.617 327.152 227.909 325.773 229.749 325L228.535 321.533L230.212 320.946ZM240.721 350.974C241.717 350.398 242.392 349.577 242.746 348.512C243.088 347.451 243.03 346.267 242.572 344.958C241.781 342.697 240.057 341.54 237.4 341.486L240.721 350.974ZM230.749 327.858C229.753 328.392 229.059 329.263 228.668 330.469C228.27 331.692 228.344 333.085 228.89 334.647C229.33 335.905 229.955 336.812 230.763 337.371C231.559 337.934 232.772 338.243 234.403 338.3L230.749 327.858ZM223.757 350.901C224.182 353.326 224.024 355.267 223.282 356.722C222.539 358.178 221.466 359.029 220.061 359.275C218.603 359.531 217.257 359.104 216.024 357.995C214.791 356.886 213.951 355.052 213.502 352.494C213.063 349.989 213.23 347.985 214.005 346.483C214.783 344.994 215.887 344.124 217.319 343.873C218.724 343.626 220.031 344.067 221.239 345.194C222.451 346.334 223.29 348.236 223.757 350.901ZM219.529 356.827C220.258 356.699 220.799 356.201 221.152 355.333C221.495 354.481 221.495 353.08 221.154 351.132C220.812 349.183 220.335 347.866 219.723 347.181C219.098 346.498 218.401 346.224 217.632 346.359C216.929 346.482 216.407 346.97 216.064 347.823C215.711 348.691 215.704 350.092 216.044 352.028C216.383 353.963 216.866 355.279 217.494 355.975C218.122 356.671 218.8 356.955 219.529 356.827ZM214.574 328.573L206.878 361.587L204.492 362.005L212.129 329.002L214.574 328.573ZM205.603 338.303C206.028 340.729 205.87 342.669 205.128 344.125C204.386 345.58 203.319 346.43 201.927 346.674C200.455 346.932 199.103 346.507 197.87 345.397C196.64 344.302 195.8 342.474 195.352 339.916C194.91 337.398 195.083 335.386 195.871 333.882C196.649 332.393 197.747 331.524 199.165 331.275C200.57 331.029 201.878 331.476 203.089 332.616C204.3 333.756 205.138 335.652 205.603 338.303ZM201.375 344.229C202.117 344.099 202.665 343.6 203.019 342.732C203.361 341.88 203.361 340.479 203.02 338.531C202.678 336.582 202.194 335.266 201.569 334.583C200.944 333.901 200.247 333.627 199.478 333.761C198.789 333.882 198.274 334.376 197.934 335.241C197.581 336.109 197.574 337.511 197.913 339.446C198.252 341.382 198.735 342.691 199.36 343.374C199.974 344.072 200.646 344.357 201.375 344.229ZM188.43 347.634L191.477 347.568L185.973 363.86L183.571 363.912L177.37 347.872L180.357 347.807L184.713 359.768L188.43 347.634ZM159.785 335.761C162.016 333.315 164.457 332.231 167.107 332.508C169.503 332.758 171.29 333.852 172.467 335.788C173.632 337.723 174.101 339.775 173.874 341.943C173.494 345.57 171.274 348.295 167.214 350.116C168.116 351.713 168.705 353.006 168.98 353.995C169.254 354.998 169.344 355.954 169.248 356.865C169.054 358.725 168.308 360.224 167.012 361.36C165.703 362.495 164.225 362.976 162.579 362.804C160.999 362.639 159.73 361.904 158.77 360.599C157.809 359.308 157.424 357.752 157.614 355.932C157.907 353.135 159.676 350.904 162.922 349.241L159.288 342.062C158.699 343.164 158.175 344.489 157.716 346.038L154.728 344.913C155.516 342.425 156.446 340.384 157.519 338.792C156.62 336.911 155.526 335.275 154.237 333.882L156.525 331.218C157.617 332.293 158.704 333.807 159.785 335.761ZM164.204 351.73C162.879 352.498 161.98 353.202 161.507 353.843C161.034 354.483 160.75 355.252 160.657 356.149C160.547 357.193 160.728 358.051 161.199 358.722C161.67 359.394 162.281 359.769 163.03 359.847C163.793 359.927 164.487 359.695 165.112 359.152C165.724 358.607 166.08 357.853 166.181 356.889C166.278 355.965 165.995 354.914 165.334 353.735L164.204 351.73ZM161.354 338.807L165.916 347.586C167.558 346.634 168.732 345.695 169.438 344.767C170.142 343.853 170.549 342.874 170.658 341.83C170.798 340.492 170.517 339.17 169.815 337.865C169.112 336.56 168.092 335.838 166.753 335.698C165.897 335.608 164.959 335.842 163.94 336.398C162.921 336.955 162.059 337.758 161.354 338.807ZM147.868 321.417C148.816 323.996 149.523 327.073 149.989 330.648C150.443 334.221 150.254 337.893 149.423 341.665C148.016 348.052 144.716 353.933 139.522 359.307L137.432 358.847C139.584 356.082 141.131 353.908 142.073 352.324C142.998 350.75 143.85 348.981 144.627 347.016C145.391 345.049 146 343.033 146.455 340.97C147.845 334.661 147.619 327.99 145.779 320.956L147.868 321.417ZM141.966 319.881L144.015 320.498C138.993 325.747 135.551 331.464 133.689 337.649C133.08 339.673 132.636 341.731 132.357 343.826C132.065 345.916 131.94 347.874 131.981 349.7C132.018 351.538 132.303 354.188 132.835 357.651L130.786 357.034C128.87 349.81 128.854 343.067 130.739 336.804C131.821 333.208 133.411 329.956 135.51 327.045C137.604 324.148 139.757 321.76 141.966 319.881ZM125.62 331.42L120.917 346.412L118.595 352.547L115.14 351.24L117.462 345.104L123.808 330.735L125.62 331.42ZM128.939 324.82L127.474 328.69L124.283 327.483L125.748 323.612L128.939 324.82ZM104.669 316.147C105.887 315.561 107.028 315.24 108.09 315.184C109.141 315.121 110.002 315.276 110.673 315.649C112.084 316.433 112.916 317.734 113.169 319.552C113.47 321.752 112.942 324.076 111.582 326.523C110.484 328.499 108.998 330.191 107.124 331.597C105.243 333.015 103.486 333.848 101.855 334.097C100.217 334.357 98.8513 334.183 97.7573 333.575C96.9573 333.131 96.3253 332.426 95.8613 331.46C95.3973 330.494 95.1895 329.316 95.2379 327.926L93.2418 330.397L90.6302 328.946L99.3084 318.272C100.499 316.794 101.147 315.96 101.251 315.772C101.441 315.431 101.498 315.093 101.422 314.758C101.34 314.436 101.163 314.199 100.893 314.049C100.375 313.761 99.4111 313.764 98.0007 314.058C96.5903 314.352 95.1269 315.102 93.6106 316.307C92.0878 317.524 90.8395 319.009 89.8656 320.762C88.7022 322.856 88.1029 325.002 88.0676 327.199C88.0323 329.396 88.5499 331.416 89.6204 333.257C90.6791 335.093 92.1438 336.53 94.0142 337.569C96.2377 338.804 98.5827 339.322 101.049 339.122C103.516 338.922 105.974 337.948 108.423 336.199C110.855 334.455 112.917 332.06 114.61 329.013C116.204 326.142 117.055 323.42 117.161 320.847C117.266 318.273 116.675 315.943 115.386 313.857C114.086 311.764 112.147 310.002 109.571 308.571C107.253 307.283 104.947 306.64 102.652 306.643C100.351 306.627 98.2942 307.17 96.4812 308.272L93.8696 306.821C95.2368 305.718 96.9446 304.889 98.9929 304.333C101.036 303.76 103.034 303.599 104.987 303.853C106.94 304.107 108.957 304.812 111.039 305.969C114.086 307.661 116.335 309.711 117.784 312.118C119.234 314.524 119.913 317.264 119.821 320.339C119.724 323.395 118.745 326.599 116.882 329.952C114.902 333.517 112.431 336.37 109.47 338.512C106.51 340.655 103.624 341.83 100.814 342.04C97.9853 342.254 95.1945 341.596 92.4417 340.067C90.136 338.786 88.3792 337.071 87.1714 334.922C85.9519 332.767 85.3873 330.305 85.4775 327.538C85.5494 324.776 86.3076 322.095 87.752 319.495C89.7127 315.966 92.4584 313.435 95.989 311.902C98.9732 310.604 101.483 310.52 103.518 311.651C104.483 312.187 105.04 312.804 105.191 313.504C105.323 314.208 105.149 315.089 104.669 316.147ZM109.018 324.821C109.92 323.197 110.301 321.762 110.163 320.515C110.006 319.273 109.528 318.43 108.728 317.986C108.045 317.607 107.103 317.53 105.9 317.754C104.691 317.991 103.387 318.675 101.989 319.807C100.59 320.939 99.443 322.311 98.5476 323.923C97.6326 325.57 97.2626 327.011 97.4378 328.248C97.6129 329.485 98.1651 330.361 99.0945 330.877C99.8121 331.276 100.706 331.372 101.775 331.166C102.832 330.952 104.093 330.221 105.557 328.972C107.021 327.722 108.175 326.338 109.018 324.821ZM92.0631 304.478L85.5206 310.24L87.6805 312L85.7808 314.332L83.2297 312.254L77.647 317.157L81.1528 320.013L79.2532 322.345L75.3717 319.183L68.7754 324.98L66.8503 323.411L73.4466 317.615L69.393 314.313L62.8123 320.122L60.8716 318.541L67.4679 312.745L65.2298 310.922L67.1295 308.59L69.7432 310.719L75.3259 305.815L71.7575 302.908L73.6571 300.576L77.6169 303.802L84.1593 298.04L86.1 299.621L79.5576 305.383L83.5956 308.672L90.138 302.91L92.0631 304.478ZM81.3046 310.685L77.2667 307.396L71.6839 312.3L75.7219 315.589L81.3046 310.685ZM75.7061 285.017L73.0805 287.529C74.0121 288.873 74.5654 290.103 74.7405 291.221C74.9059 292.348 74.7456 293.572 74.2594 294.894C73.7732 296.215 72.9158 297.539 71.6871 298.863L69.112 297.164C70.5106 295.472 71.3094 294 71.5085 292.748C71.6885 291.496 71.4735 290.463 70.8633 289.65L62.505 297.646C63.2028 298.803 63.6578 300.175 63.8702 301.759C64.0183 302.81 63.8657 303.896 63.4125 305.019C62.9495 306.151 62.1832 307.228 61.1135 308.252C60.0147 309.303 58.8225 310.052 57.5371 310.5C56.242 310.957 55.0448 311.078 53.9454 310.863C52.846 310.648 51.7073 310.061 50.5292 309.102L49.2748 310.302L48.0468 309.019L49.3013 307.819C48.543 306.812 48.0751 305.807 47.8975 304.804C47.7105 303.791 47.7914 302.717 48.1402 301.582C48.4792 300.457 49.133 299.301 50.1017 298.113L52.6312 299.94C50.9091 302.053 50.5382 303.972 51.5184 305.698L59.089 298.455C58.4509 297.185 58.065 296.343 57.9313 295.931C57.6188 295.001 57.4872 294.065 57.5367 293.124C57.5768 292.173 57.841 291.203 58.3293 290.215C58.7986 289.226 59.5 288.284 60.4335 287.391C62.3298 285.577 64.3361 284.599 66.4524 284.455C68.5686 284.312 70.3589 284.918 71.8233 286.273L74.4781 283.733L75.7061 285.017ZM52.7173 307.009C53.6543 307.677 54.681 307.952 55.7972 307.834C56.9042 307.706 57.9585 307.163 58.9601 306.205C60.6911 304.549 61.0316 302.501 59.9815 300.06L52.7173 307.009ZM69.6353 288.366C68.7367 287.68 67.6576 287.409 66.398 287.552C65.1194 287.695 63.882 288.339 62.6859 289.483C61.7232 290.404 61.1549 291.348 60.9812 292.315C60.7982 293.272 61.0183 294.505 61.6417 296.013L69.6353 288.366ZM45.784 291.568C43.754 292.963 41.9229 293.624 40.2906 293.554C38.6584 293.483 37.4384 292.86 36.6308 291.684C35.7926 290.464 35.622 289.062 36.119 287.48C36.6159 285.898 37.9349 284.372 40.0758 282.901C42.1724 281.461 44.0649 280.782 45.7533 280.863C47.4306 280.951 48.6806 281.595 49.5036 282.793C50.3112 283.969 50.4534 285.341 49.9301 286.908C49.3958 288.483 48.0137 290.037 45.784 291.568ZM38.6369 290.183C39.056 290.794 39.7337 291.079 40.6701 291.04C41.5878 290.997 42.862 290.416 44.4927 289.296C46.1234 288.176 47.1233 287.195 47.4924 286.354C47.8538 285.502 47.8136 284.754 47.3717 284.11C46.9678 283.522 46.3071 283.25 45.3894 283.292C44.453 283.331 43.175 283.907 41.5554 285.02C39.9358 286.132 38.9397 287.118 38.5672 287.978C38.1946 288.838 38.2179 289.573 38.6369 290.183ZM62.2817 273.943L29.0532 280.652L27.6817 278.655L60.8759 271.896L62.2817 273.943ZM49.7046 269.822C47.6745 271.216 45.8434 271.878 44.2111 271.808C42.5789 271.737 41.3628 271.119 40.5627 269.954C39.7169 268.723 39.5425 267.316 40.0395 265.734C40.5253 264.16 41.8387 262.637 43.9797 261.167C46.0874 259.719 47.9892 259.041 49.6852 259.133C51.3625 259.222 52.6088 259.86 53.4241 261.047C54.2317 262.223 54.3684 263.598 53.834 265.173C53.2996 266.749 51.9232 268.298 49.7046 269.822ZM42.5574 268.437C42.9841 269.059 43.6657 269.35 44.6021 269.311C45.5198 269.268 46.794 268.687 48.4246 267.567C50.0553 266.446 51.0514 265.46 51.4129 264.608C51.7743 263.756 51.7341 263.008 51.2922 262.364C50.896 261.787 50.2335 261.524 49.3047 261.574C48.3683 261.613 47.0903 262.189 45.4707 263.302C43.8511 264.414 42.8606 265.396 42.4991 266.249C42.1189 267.098 42.1384 267.827 42.5574 268.437ZM34.083 258.065L35.4063 260.811L18.2986 262.557L17.2557 260.393L29.2804 248.1L30.5774 250.791L21.5 259.715L34.083 258.065ZM33.0488 227.053C36.1969 228.078 38.1907 229.855 39.0304 232.384C39.7895 234.67 39.5296 236.749 38.2507 238.62C36.9676 240.478 35.2915 241.75 33.2224 242.437C29.7611 243.587 26.364 242.687 23.0309 239.738C21.9483 241.218 21.0129 242.287 20.2248 242.946C19.424 243.609 18.5893 244.084 17.7208 244.373C15.9455 244.962 14.273 244.901 12.7035 244.188C11.1297 243.463 10.082 242.315 9.56041 240.744C9.05999 239.237 9.20639 237.777 9.9996 236.365C10.78 234.957 12.0388 233.965 13.7758 233.388C16.4452 232.502 19.2063 233.195 22.0592 235.466L27.1032 229.197C25.8564 229.115 24.4328 229.183 22.8324 229.403L22.6254 226.217C25.2175 225.91 27.4603 225.916 29.3537 226.238C30.6961 224.643 31.7365 222.972 32.4747 221.224L35.8441 222.211C35.3147 223.649 34.383 225.263 33.0488 227.053ZM20.3204 237.66C19.0745 236.769 18.0622 236.24 17.2836 236.074C16.505 235.907 15.6878 235.965 14.8321 236.249C13.8359 236.58 13.1288 237.099 12.7109 237.805C12.2931 238.511 12.2029 239.221 12.4403 239.936C12.6821 240.664 13.1794 241.201 13.9322 241.547C14.6808 241.88 15.515 241.893 16.4345 241.588C17.3158 241.295 18.1571 240.605 18.9585 239.516L20.3204 237.66ZM30.92 229.738L24.8018 237.512C26.3453 238.616 27.6851 239.299 28.8211 239.56C29.9443 239.825 31.004 239.792 32.0002 239.461C33.2774 239.037 34.3657 238.236 35.265 237.058C36.1644 235.881 36.402 234.653 35.9779 233.376C35.7065 232.559 35.1073 231.8 34.1804 231.101C33.2535 230.402 32.1667 229.948 30.92 229.738ZM41.2112 210.287C39.2512 212.213 36.7381 214.124 33.6719 216.022C30.603 217.906 27.1788 219.246 23.3993 220.042C16.9992 221.39 10.2812 220.803 3.24523 218.283L2.80425 216.189C6.20957 217.012 8.82783 217.527 10.659 217.732C12.4743 217.928 14.4372 217.975 16.5477 217.874C18.6555 217.761 20.7431 217.486 22.8106 217.051C29.1317 215.719 35.1182 212.767 40.7702 208.193L41.2112 210.287ZM40.1778 204.273L40.4606 206.394C33.6084 203.981 26.9808 203.202 20.5777 204.056C18.4834 204.335 16.4246 204.779 14.4014 205.388C12.3765 205.984 10.5409 206.677 8.89479 207.467C7.23533 208.258 4.93778 209.61 2.00215 211.522L1.71935 209.401C7.51147 204.678 13.6491 201.884 20.1322 201.02C23.854 200.523 27.473 200.631 30.9894 201.344C34.4924 202.058 37.5552 203.034 40.1778 204.273ZM22.9238 194.143L7.32879 196.052L0.781523 196.471L0.545595 192.784L7.09287 192.365L22.8 192.209L22.9238 194.143ZM30.3057 194.44L26.1759 194.704L25.958 191.299L30.0878 191.035L30.3057 194.44ZM28.1383 168.758C29.1767 169.624 29.9419 170.528 30.4341 171.472C30.9274 172.402 31.1437 173.249 31.083 174.014C30.9553 175.624 30.1167 176.921 28.5672 177.905C26.691 179.093 24.3577 179.576 21.5672 179.355C19.3134 179.176 17.1577 178.526 15.1001 177.404C13.0292 176.281 11.5422 175.029 10.6392 173.648C9.72284 172.266 9.31412 170.951 9.41307 169.703C9.48542 168.791 9.86473 167.924 10.551 167.1C11.2373 166.277 12.2225 165.6 13.5068 165.067L10.4307 164.276L10.6669 161.298L23.9799 164.763C25.8191 165.233 26.8461 165.477 27.0607 165.494C27.4498 165.525 27.7808 165.436 28.0538 165.228C28.3133 165.019 28.4554 164.761 28.4798 164.452C28.5266 163.862 28.1236 162.986 27.2707 161.825C26.4178 160.664 25.1284 159.644 23.4026 158.764C21.6635 157.884 19.7944 157.364 17.7955 157.206C15.4075 157.016 13.2066 157.362 11.1928 158.241C9.17906 159.121 7.55649 160.43 6.32512 162.169C5.09482 163.893 4.39509 165.822 4.22592 167.956C4.02484 170.491 4.5271 172.839 5.73272 175.001C6.93833 177.162 8.84505 178.994 11.4529 180.496C14.0483 181.985 17.0834 182.867 20.5581 183.142C23.8315 183.402 26.661 183.046 29.0466 182.074C31.4321 181.102 33.3065 179.597 34.6697 177.559C36.0339 175.507 36.8325 173.012 37.0655 170.074C37.2751 167.431 36.9024 165.066 35.9474 162.979C35.0069 160.879 33.6592 159.233 31.9043 158.041L32.1404 155.063C33.7116 155.849 35.1749 157.058 36.5304 158.691C37.9004 160.312 38.8753 162.063 39.455 163.945C40.0348 165.827 40.2305 167.956 40.0422 170.33C39.7666 173.805 38.8349 176.701 37.2471 179.019C35.6593 181.336 33.4479 183.091 30.6128 184.284C27.7922 185.464 24.4701 185.903 20.6467 185.6C16.5817 185.277 12.9603 184.214 9.78243 182.409C6.60453 180.605 4.33727 178.467 2.98066 175.997C1.6117 173.513 1.0517 170.701 1.30066 167.562C1.50919 164.932 2.3404 162.622 3.79428 160.631C5.24922 158.627 7.25422 157.092 9.8093 156.026C12.352 154.945 15.1058 154.522 18.0707 154.757C22.0954 155.076 25.5378 156.524 28.3981 159.1C30.8175 161.276 31.9351 163.525 31.7511 165.845C31.6638 166.946 31.3333 167.709 30.7594 168.136C30.1732 168.549 29.2995 168.756 28.1383 168.758ZM22.0513 176.315C23.9026 176.462 25.3668 176.213 26.4439 175.57C27.5086 174.912 28.0771 174.127 28.1494 173.214C28.2111 172.436 27.8902 171.547 27.1865 170.546C26.4695 169.544 25.3058 168.642 23.6954 167.839C22.0851 167.036 20.361 166.562 18.523 166.416C16.6448 166.267 15.1796 166.529 14.1272 167.202C13.0749 167.874 12.5067 168.741 12.4226 169.8C12.3577 170.619 12.6411 171.471 13.2728 172.359C13.9055 173.232 15.0941 174.076 16.8386 174.889C18.5831 175.702 20.3206 176.178 22.0513 176.315ZM33.5236 152.446L25.5679 148.88L24.862 151.575L21.9523 150.813L22.7862 147.63L16.0096 144.582L14.8638 148.956L11.9541 148.194L13.2227 143.351L5.21362 139.75L5.84281 137.348L13.8519 140.949L15.1768 135.891L7.16258 132.31L7.79689 129.889L15.806 133.489L16.5375 130.697L19.4471 131.459L18.5929 134.72L25.3694 137.768L26.5357 133.316L29.4454 134.078L28.1512 139.019L36.1068 142.584L35.4725 145.006L27.5169 141.44L26.1971 146.478L34.1527 150.044L33.5236 152.446ZM23.4153 145.228L24.7351 140.19L17.9586 137.142L16.6388 142.18L23.4153 145.228ZM44.4624 129.503L41.0899 128.15C40.2514 129.554 39.3595 130.566 38.4143 131.188C37.4566 131.804 36.2754 132.164 34.8709 132.268C33.4663 132.371 31.9071 132.137 30.1933 131.566L30.676 128.519C32.7947 129.093 34.4652 129.212 35.6875 128.876C36.9024 128.522 37.7539 127.9 38.2421 127.008L27.5065 122.702C26.7408 123.816 25.6802 124.797 24.3249 125.645C23.4297 126.214 22.3774 126.524 21.1678 126.576C19.9457 126.622 18.6477 126.37 17.2737 125.819C15.8623 125.252 14.6872 124.477 13.7485 123.491C12.7973 122.501 12.1923 121.46 11.9334 120.371C11.6746 119.281 11.7383 118.001 12.1245 116.532L10.5132 115.886L11.1745 114.237L12.7858 114.883C13.3891 113.777 14.1109 112.935 14.9511 112.359C15.7964 111.77 16.8076 111.4 17.9848 111.248C19.1495 111.092 20.4726 111.21 21.9542 111.601L21.3365 114.659C18.7007 113.964 16.7997 114.42 15.6336 116.026L25.3575 119.926C26.2507 118.82 26.8574 118.121 27.1775 117.828C27.8954 117.159 28.6931 116.653 29.5706 116.309C30.4531 115.952 31.4453 115.792 32.5474 115.828C33.6419 115.847 34.7888 116.096 35.9879 116.577C38.4235 117.554 40.144 118.977 41.1493 120.844C42.1547 122.712 42.3428 124.593 41.7138 126.486L45.1237 127.854L44.4624 129.503ZM14.9349 117.659C14.7139 118.789 14.8878 119.837 15.4567 120.805C16.0305 121.76 16.9607 122.496 18.2473 123.012C20.4706 123.904 22.4766 123.367 24.2652 121.402L14.9349 117.659ZM38.9034 125.359C39.1569 124.257 38.958 123.163 38.3068 122.075C37.6481 120.97 36.5505 120.109 35.0142 119.493C33.7777 118.997 32.6832 118.87 31.7308 119.111C30.7835 119.34 29.7519 120.05 28.6362 121.241L38.9034 125.359ZM26.152 104.933C24.0454 103.657 22.6883 102.261 22.0806 100.745C21.4729 99.2282 21.5385 97.8598 22.2775 96.6396C23.0444 95.3733 24.251 94.6409 25.8974 94.4422C27.5439 94.2436 29.4779 94.817 31.6996 96.1625C33.8753 97.4801 35.2737 98.9249 35.8951 100.497C36.5049 102.062 36.4333 103.466 35.6804 104.709C34.9414 105.929 33.7499 106.624 32.1059 106.793C30.4504 106.954 28.4658 106.334 26.152 104.933ZM24.4709 97.8499C24.0875 98.483 24.1064 99.2182 24.5276 100.055C24.9443 100.874 25.9987 101.796 27.6909 102.821C29.3831 103.846 30.6885 104.353 31.6071 104.343C32.5327 104.321 33.1977 103.977 33.602 103.309C33.9715 102.699 33.9479 101.984 33.5312 101.166C33.11 100.328 32.059 99.401 30.3784 98.3831C28.6977 97.3653 27.3888 96.8637 26.4517 96.8783C25.5146 96.8929 24.8543 97.2168 24.4709 97.8499ZM49.0074 112.709L29.2105 85.1915L30.4654 83.1195L50.2936 110.586L49.0074 112.709ZM47.5832 99.5514C45.4767 98.2756 44.1195 96.8794 43.5118 95.3629C42.9041 93.8463 42.9663 92.4837 43.6983 91.275C44.4721 89.9973 45.6822 89.2591 47.3287 89.0604C48.9636 88.8548 50.8919 89.4247 53.1136 90.7702C55.3007 92.0948 56.7015 93.5488 57.3158 95.1323C57.9256 96.6973 57.8576 98.0957 57.1116 99.3274C56.3726 100.548 55.1754 101.239 53.5199 101.4C51.8644 101.562 49.8855 100.946 47.5832 99.5514ZM45.9021 92.4681C45.5117 93.1127 45.5272 93.8537 45.9484 94.6909C46.3651 95.5096 47.4195 96.4314 49.1117 97.4562C50.8038 98.481 52.1127 98.9826 53.0383 98.961C53.9639 98.9394 54.6289 98.5948 55.0332 97.9272C55.3958 97.3286 55.3629 96.6164 54.9347 95.7907C54.5135 94.9535 53.4625 94.0259 51.7819 93.0081C50.1012 91.9903 48.7981 91.4922 47.8725 91.5138C46.9423 91.5169 46.2856 91.835 45.9021 92.4681ZM51.852 80.483L49.897 82.8216L41.246 67.9595L42.7868 66.1164L58.9471 71.9957L57.0309 74.2879L45.1565 69.7024L51.852 80.483ZM79.653 66.7279C80.0235 70.0178 79.2317 72.5685 77.2775 74.3799C75.5108 76.0176 73.5111 76.6417 71.2785 76.2523C69.0557 75.8538 67.2032 74.8551 65.7211 73.2562C63.2418 70.5815 62.6542 67.1167 63.9582 62.8618C62.163 62.489 60.8024 62.0803 59.8765 61.6358C58.9414 61.1813 58.1628 60.6185 57.5407 59.9474C56.269 58.5755 55.6325 57.0277 55.6312 55.304C55.6398 53.5711 56.251 52.1421 57.465 51.0168C58.6296 49.9372 60.0188 49.4661 61.6325 49.6035C63.237 49.7309 64.6614 50.4658 65.9056 51.8081C67.8177 53.8709 68.3306 56.671 67.4442 60.2085L75.2392 62.2038C74.7979 61.0348 74.146 59.7674 73.2836 58.4015L76.0976 56.894C77.4509 59.126 78.3734 61.1703 78.8648 63.0269C80.8719 63.5886 82.824 63.8436 84.721 63.7917L85.2178 67.2673C83.6898 67.3808 81.8349 67.201 79.653 66.7279ZM64.7271 59.5341C65.0222 58.0312 65.0845 56.8908 64.914 56.113C64.7435 55.3351 64.3517 54.6156 63.7388 53.9543C63.0252 53.1845 62.2605 52.7555 61.4449 52.6675C60.6293 52.5794 59.9451 52.7916 59.3924 53.3039C58.8298 53.8254 58.5471 54.5003 58.5443 55.3287C58.5513 56.1479 58.8842 56.9129 59.5429 57.6235C60.1742 58.3045 61.1511 58.7844 62.4738 59.063L64.7271 59.5341ZM76.3275 65.9019L66.7175 63.5521C66.3517 65.4142 66.2852 66.9163 66.5181 68.0584C66.7418 69.1906 67.2105 70.1416 67.9241 70.9114C68.839 71.8984 70.0187 72.5573 71.4631 72.8882C72.9076 73.2191 74.1233 72.9272 75.1103 72.0123C75.7419 71.4268 76.184 70.5674 76.4365 69.4342C76.6889 68.3011 76.6526 67.1236 76.3275 65.9019ZM98.2977 67.1991C95.7321 66.2158 92.9496 64.7234 89.9504 62.722C86.962 60.7126 84.321 58.1541 82.0273 55.0465C78.1434 49.7841 75.8869 43.4293 75.2577 35.9821L76.9794 34.7114C77.6447 38.1511 78.264 40.7465 78.8373 42.4978C79.4135 44.2303 80.1856 46.0356 81.1536 47.9137C82.1324 49.7838 83.2492 51.5689 84.5039 53.2689C88.3399 58.4663 93.5117 62.6862 100.019 65.9285L98.2977 67.1991ZM103.34 63.7611L101.528 64.8992C100.877 57.6639 98.834 51.3111 95.3983 45.8408C94.2745 44.0516 93.0154 42.3632 91.621 40.7758C90.238 39.1811 88.8455 37.799 87.4435 36.6295C86.0344 35.4486 83.8505 33.92 80.892 32.0435L82.7041 30.9054C89.4061 34.2129 94.4964 38.636 97.9751 44.1746C99.9722 47.3542 101.377 50.6913 102.189 54.1859C102.994 57.6692 103.378 60.8609 103.34 63.7611ZM105.399 43.8582L97.2011 30.4552L94.1071 24.6699L97.3647 22.9278L100.459 28.7131L107.108 42.9443L105.399 43.8582ZM108.188 50.6995L106.236 47.0503L109.245 45.4414L111.196 49.0906L108.188 50.6995ZM130.681 38.1175C130.321 39.4205 129.813 40.4908 129.157 41.3284C128.513 42.1615 127.83 42.7082 127.109 42.9685C125.59 43.5166 124.062 43.2879 122.526 42.2825C120.67 41.0637 119.267 39.1377 118.317 36.5045C117.55 34.3778 117.253 32.1459 117.425 29.8088C117.594 27.4591 118.12 25.588 119.006 24.1956C119.887 22.7905 120.916 21.8756 122.093 21.4509C122.954 21.1403 123.901 21.1278 124.934 21.4133C125.967 21.6988 126.991 22.3165 128.006 23.2665L127.457 20.1383L130.267 19.1244L132.604 32.6811C132.935 34.5503 133.137 35.5862 133.21 35.7888C133.342 36.1559 133.56 36.4209 133.862 36.5838C134.159 36.734 134.453 36.7566 134.744 36.6515C135.301 36.4506 135.933 35.7221 136.639 34.466C137.344 33.21 137.742 31.6145 137.83 29.6797C137.915 27.7322 137.617 25.8153 136.936 23.9291C136.123 21.6757 134.901 19.8134 133.268 18.3422C131.636 16.8709 129.774 15.9331 127.682 15.5288C125.603 15.1199 123.557 15.2786 121.545 16.0047C119.152 16.8679 117.22 18.2944 115.749 20.2844C114.278 22.2744 113.396 24.7672 113.103 27.7627C112.819 30.7411 113.268 33.8696 114.451 37.1484C115.565 40.2372 117.057 42.6676 118.927 44.4396C120.796 46.2115 122.941 47.2978 125.36 47.6983C127.792 48.0943 130.394 47.7922 133.166 46.792C135.66 45.8924 137.661 44.5769 139.168 42.8457C140.692 41.1226 141.635 39.2158 141.997 37.1253L144.808 36.1115C144.74 37.867 144.242 39.6991 143.314 41.6076C142.403 43.5243 141.21 45.135 139.735 46.4397C138.26 47.7444 136.402 48.8009 134.161 49.6092C130.883 50.792 127.86 51.1385 125.094 50.6485C122.328 50.1586 119.816 48.8685 117.56 46.7782C115.321 44.696 113.551 41.851 112.249 38.2431C110.865 34.4074 110.34 30.6698 110.672 27.0305C111.004 23.3911 112.015 20.4439 113.706 18.1889C115.404 15.9167 117.734 14.2462 120.696 13.1776C123.178 12.2824 125.625 12.0863 128.038 12.5892C130.464 13.0874 132.69 14.2802 134.715 16.1676C136.749 18.0377 138.271 20.3716 139.28 23.1693C140.65 26.967 140.752 30.7001 139.586 34.3683C138.602 37.4702 137.015 39.4162 134.825 40.2063C133.787 40.5808 132.955 40.5948 132.329 40.2482C131.712 39.8845 131.162 39.1742 130.681 38.1175ZM121.286 35.6912C121.916 37.4381 122.747 38.6694 123.777 39.3848C124.816 40.0831 125.766 40.2769 126.627 39.9664C127.361 39.7015 128.039 39.0421 128.66 37.9882C129.277 36.9216 129.618 35.4893 129.685 33.6912C129.752 31.8931 129.472 30.1269 128.846 28.3926C128.207 26.6203 127.364 25.3937 126.317 24.7126C125.27 24.0316 124.247 23.8715 123.247 24.2323C122.474 24.5109 121.815 25.1209 121.267 26.0623C120.732 26.9991 120.455 28.4299 120.434 30.3546C120.413 32.2793 120.697 34.0581 121.286 35.6912ZM147.759 36.2923L147.724 27.5742L144.978 28.0434L144.471 25.0786L147.715 24.5244L147.694 17.0939L143.237 17.8555L142.73 14.8906L147.665 14.0475L147.639 5.26631L150.087 4.84813L150.113 13.6293L155.266 12.7487L155.221 3.97095L157.688 3.54936L157.714 12.3305L160.559 11.8443L161.066 14.8092L157.743 15.377L157.763 22.8074L162.3 22.0323L162.807 24.9971L157.772 25.8573L157.808 34.5753L155.341 34.9969L155.305 26.2789L150.171 27.156L150.207 35.8741L147.759 36.2923ZM150.162 24.1062L155.296 23.229L155.275 15.7986L150.142 16.6757L150.162 24.1062ZM173.171 36.7887L173.012 33.1586C171.388 32.9738 170.097 32.5791 169.141 31.9744C168.185 31.3563 167.37 30.4289 166.696 29.1922C166.022 27.9554 165.592 26.4386 165.405 24.6417L168.38 23.8243C168.731 25.9912 169.312 27.562 170.122 28.5368C170.946 29.4976 171.864 30.0163 172.878 30.0931L172.371 18.5373C171.041 18.2992 169.71 17.7379 168.378 16.8534C167.49 16.2726 166.773 15.4419 166.228 14.3612C165.681 13.2671 165.376 11.9806 165.311 10.5016C165.244 8.98238 165.466 7.59191 165.977 6.33023C166.486 5.0551 167.184 4.07483 168.07 3.38941C168.956 2.70398 170.148 2.23415 171.646 1.97992L171.57 0.245537L173.344 0.167751L173.42 1.90214C174.677 1.99523 175.742 2.30555 176.613 2.83311C177.499 3.36008 178.253 4.12852 178.876 5.13844C179.499 6.13491 179.938 7.38865 180.193 8.89967L177.152 9.59872C176.698 6.91103 175.499 5.36731 173.555 4.96757L174.013 15.4344C175.39 15.7917 176.277 16.0559 176.675 16.227C177.581 16.6049 178.371 17.1226 179.047 17.78C179.735 18.4368 180.291 19.2746 180.713 20.2933C181.147 21.298 181.393 22.4457 181.449 23.7365C181.564 26.3582 180.979 28.5123 179.692 30.1986C178.405 31.8849 176.77 32.8322 174.785 33.0404L174.946 36.7109L173.171 36.7887ZM171.778 5.00502C170.658 5.26964 169.775 5.86065 169.128 6.77807C168.495 7.69489 168.208 8.84572 168.269 10.2305C168.374 12.6237 169.69 14.2297 172.218 15.0483L171.778 5.00502ZM174.653 30.0154C175.761 29.7917 176.676 29.1588 177.398 28.1169C178.133 27.0609 178.465 25.706 178.392 24.0523C178.334 22.7213 177.998 21.6718 177.385 20.9039C176.786 20.1354 175.713 19.4887 174.168 18.9637L174.653 30.0154ZM187.933 9.95916C188.219 7.51301 188.925 5.69863 190.052 4.516C191.18 3.33338 192.452 2.82481 193.869 2.9903C195.339 3.16203 196.506 3.95551 197.371 5.37075C198.235 6.78599 198.517 8.78352 198.216 11.3633C197.921 13.8897 197.187 15.7619 196.015 16.9799C194.845 18.1846 193.537 18.7026 192.094 18.534C190.677 18.3685 189.55 17.573 188.714 16.1476C187.88 14.7087 187.619 12.6459 187.933 9.95916ZM193.679 5.48825C192.943 5.40239 192.282 5.7249 191.696 6.45578C191.124 7.17486 190.723 8.51687 190.494 10.4818C190.264 12.4467 190.345 13.8449 190.736 14.6764C191.14 15.5095 191.729 15.9713 192.505 16.0618C193.213 16.1446 193.853 15.8264 194.425 15.1073C195.012 14.3764 195.419 13.0352 195.647 11.0836C195.875 9.13207 195.787 7.73308 195.385 6.88667C194.983 6.04025 194.414 5.57412 193.679 5.48825ZM190.351 33.9798L207.162 4.54289L209.568 4.82391L192.817 34.2679L190.351 33.9798ZM201.729 27.2198C202.015 24.7737 202.721 22.9593 203.848 21.7767C204.976 20.5941 206.241 20.0847 207.645 20.2486C209.128 20.4219 210.302 21.2162 211.167 22.6314C212.033 24.0333 212.315 26.0242 212.014 28.604C211.717 31.1437 210.976 33.0218 209.791 34.2383C208.62 35.4429 207.32 35.9617 205.89 35.7947C204.473 35.6292 203.347 34.827 202.513 33.3882C201.678 31.9493 201.417 29.8932 201.729 27.2198ZM207.475 22.7489C206.726 22.6615 206.058 22.9832 205.472 23.7141C204.9 24.4332 204.499 25.7752 204.27 27.7401C204.04 29.7051 204.128 31.1041 204.532 31.9371C204.936 32.7702 205.525 33.232 206.301 33.3225C206.996 33.4037 207.63 33.0781 208.203 32.3456C208.79 31.6147 209.197 30.2735 209.425 28.3219C209.653 26.3704 209.565 24.9781 209.161 24.145C208.772 23.3002 208.21 22.8348 207.475 22.7489ZM220.859 23.1908L217.92 22.381L227.86 8.34794L230.176 8.98617L231.524 26.1299L228.644 25.3361L227.895 12.6291L220.859 23.1908ZM244.895 42.8153C242.052 44.5117 239.402 44.8441 236.945 43.8127C234.724 42.8802 233.33 41.3169 232.762 39.1228C232.207 36.9339 232.351 34.8343 233.195 32.8241C234.607 29.4614 237.52 27.495 241.933 26.9251C241.531 25.1362 241.341 23.7283 241.364 22.7014C241.391 21.6621 241.582 20.7206 241.937 19.8768C242.661 18.152 243.807 16.933 245.377 16.2198C246.958 15.5118 248.512 15.4782 250.038 16.1189C251.503 16.7336 252.505 17.8041 253.047 19.3305C253.594 20.8444 253.513 22.4451 252.804 24.1327C251.715 26.7261 249.377 28.3498 245.79 29.0038L247.192 36.9269C248.075 36.0421 248.96 34.9249 249.847 33.5753L252.382 35.5153C250.909 37.6698 249.428 39.3543 247.94 40.5687C248.258 42.6286 248.832 44.5117 249.663 46.2179L246.703 48.106C245.968 46.7613 245.366 44.9978 244.895 42.8153ZM245.281 26.2508C246.772 25.8987 247.836 25.4843 248.474 25.0078C249.112 24.5312 249.606 23.8772 249.955 23.0458C250.361 22.078 250.436 21.2044 250.179 20.4253C249.922 19.6461 249.447 19.1107 248.752 18.8189C248.044 18.522 247.313 18.5433 246.557 18.8829C245.814 19.2277 245.255 19.8469 244.88 20.7403C244.52 21.5965 244.487 22.6844 244.78 24.0041L245.281 26.2508ZM244.274 39.4456L242.444 29.7231C240.597 30.1591 239.202 30.7191 238.258 31.4029C237.319 32.0743 236.647 32.8939 236.241 33.8618C235.72 35.1027 235.607 36.4492 235.902 37.9014C236.197 39.3535 236.965 40.3401 238.206 40.861C239.001 41.1944 239.966 41.242 241.102 41.0039C242.238 40.7657 243.296 40.2463 244.274 39.4456ZM252.149 59.9935C251.989 57.2506 252.204 54.1005 252.793 50.5433C253.394 46.9926 254.639 43.5325 256.527 40.163C259.724 34.4572 264.586 29.7848 271.114 26.1458L272.981 27.1917C270.12 29.214 268.01 30.8468 266.65 32.0902C265.308 33.3284 263.981 34.7752 262.667 36.4305C261.366 38.0924 260.199 39.845 259.166 41.6882C256.009 47.3236 254.292 53.7741 254.016 61.0395L252.149 59.9935ZM257.359 63.1737L255.575 61.991C261.901 58.4191 266.849 53.9415 270.42 48.5583C271.588 46.7975 272.608 44.955 273.481 43.0307C274.364 41.1139 275.051 39.2759 275.539 37.5167C276.035 35.7463 276.529 33.1268 277.021 29.6581L278.805 30.8409C278.55 38.3103 276.614 44.7702 272.999 50.2207C270.924 53.3497 268.461 56.0037 265.611 58.1827C262.768 60.3505 260.017 62.0142 257.359 63.1737ZM276.339 56.8448L285.159 43.843L289.15 38.6357L292.082 40.8829L288.091 46.0901L277.877 58.0237L276.339 56.8448ZM271.26 62.2103L273.778 58.9257L276.485 61.001L273.968 64.2856L271.26 62.2103ZM292.014 77.4908C290.679 77.7019 289.495 77.6819 288.461 77.4306C287.436 77.189 286.656 76.7935 286.121 76.2441C284.994 75.0875 284.57 73.6021 284.851 71.788C285.193 69.5941 286.367 67.5203 288.371 65.5667C289.99 63.9887 291.9 62.7952 294.099 61.9862C296.308 61.1677 298.23 60.8737 299.863 61.1042C301.507 61.3253 302.766 61.884 303.639 62.7804C304.278 63.4358 304.681 64.2927 304.848 65.3513C305.015 66.4098 304.876 67.5976 304.431 68.9147L307.052 67.1213L309.137 69.261L297.76 76.994C296.194 78.0682 295.335 78.6805 295.181 78.8307C294.901 79.1031 294.75 79.4105 294.726 79.7528C294.712 80.0857 294.813 80.363 295.029 80.5847C295.443 81.0087 296.367 81.2824 297.802 81.4056C299.238 81.5289 300.855 81.2309 302.653 80.5118C304.461 79.7834 306.084 78.7194 307.52 77.3199C309.235 75.6481 310.425 73.7649 311.09 71.6702C311.755 69.5756 311.839 67.4925 311.342 65.4209C310.855 63.3589 309.865 61.5617 308.371 60.0293C306.596 58.2076 304.498 57.0385 302.078 56.5219C299.658 56.0053 297.024 56.2329 294.175 57.2049C291.346 58.1772 288.683 59.8796 286.186 62.3122C283.835 64.604 282.239 66.9673 281.398 69.4023C280.558 71.8373 280.455 74.239 281.091 76.6074C281.736 78.9854 283.087 81.2298 285.144 83.3406C286.994 85.2393 289.019 86.5169 291.218 87.1734C293.418 87.849 295.544 87.9193 297.597 87.3843L299.682 89.524C298.055 90.1882 296.181 90.4923 294.06 90.4364C291.938 90.3994 289.978 89.9792 288.18 89.1756C286.383 88.372 284.653 87.1172 282.99 85.4112C280.557 82.9149 278.992 80.3061 278.295 77.5848C277.597 74.8635 277.733 72.0435 278.704 69.1248C279.674 66.2252 281.532 63.4369 284.279 60.7601C287.2 57.9142 290.385 55.8902 293.837 54.6881C297.288 53.486 300.389 53.1882 303.141 53.7948C305.912 54.4016 308.397 55.8326 310.595 58.088C312.436 59.9771 313.626 62.1242 314.166 64.5295C314.715 66.9443 314.549 69.4642 313.669 72.089C312.807 74.714 311.311 77.0644 309.181 79.1401C306.289 81.9578 302.932 83.5942 299.11 84.0492C295.879 84.4357 293.451 83.7952 291.826 82.1278C291.056 81.3375 290.699 80.5858 290.756 79.8728C290.832 79.16 291.251 78.366 292.014 77.4908ZM290.339 67.9332C289.009 69.2294 288.231 70.4946 288.006 71.7289C287.8 72.9634 288.016 73.9084 288.655 74.5638C289.2 75.1228 290.08 75.4673 291.297 75.5972C292.523 75.7177 293.968 75.4366 295.633 74.7538C297.298 74.0711 298.79 73.0864 300.111 71.7996C301.46 70.4847 302.228 69.2098 302.416 67.975C302.603 66.7403 302.326 65.7422 301.584 64.9808C301.011 64.3928 300.182 64.0443 299.099 63.9351C298.025 63.8356 296.607 64.1741 294.846 64.9508C293.085 65.7275 291.583 66.7216 290.339 67.9332ZM300.742 92.2873L308.66 88.6392L307.094 86.3351L309.582 84.6445L311.431 87.366L318.184 84.2657L315.642 80.5258L318.13 78.8351L320.944 82.9758L328.924 79.3103L330.319 81.3639L322.34 85.0294L325.278 89.3537L333.247 85.6715L334.653 87.7418L326.674 91.4073L328.296 93.7948L325.809 95.4855L323.914 92.6972L317.161 95.7975L319.748 99.6042L317.26 101.295L314.39 97.0707L306.472 100.719L305.065 98.6486L312.983 95.0004L310.055 90.6928L302.137 94.341L300.742 92.2873ZM312.827 89.4196L315.754 93.7272L322.507 90.6269L319.58 86.3193L312.827 89.4196ZM310.835 115.616L314.071 113.964C313.565 112.409 313.388 111.072 313.541 109.951C313.706 108.824 314.211 107.697 315.056 106.571C315.901 105.444 317.102 104.423 318.66 103.507L320.639 105.874C318.813 107.093 317.625 108.273 317.075 109.416C316.543 110.564 316.453 111.615 316.804 112.569L327.106 107.309C326.77 105.999 326.727 104.555 326.979 102.976C327.139 101.928 327.597 100.931 328.353 99.9854C329.121 99.034 330.165 98.2217 331.483 97.5485C332.838 96.857 334.195 96.4814 335.555 96.4218C336.926 96.356 338.108 96.5838 339.099 97.1051C340.091 97.6264 341.013 98.5154 341.866 99.7721L343.412 98.9827L344.22 100.565L342.674 101.354C343.111 102.536 343.271 103.633 343.153 104.645C343.042 105.67 342.656 106.675 341.996 107.662C341.348 108.642 340.39 109.562 339.121 110.421L337.223 107.946C339.479 106.416 340.385 104.684 339.941 102.75L330.61 107.514C330.857 108.914 330.985 109.831 330.995 110.264C331.027 111.245 330.884 112.179 330.567 113.066C330.256 113.966 329.724 114.819 328.972 115.626C328.239 116.439 327.297 117.139 326.146 117.726C323.809 118.919 321.606 119.281 319.538 118.811C317.47 118.341 315.929 117.247 314.915 115.528L311.643 117.198L310.835 115.616ZM339.17 101.149C338.464 100.24 337.559 99.6821 336.456 99.4747C335.359 99.2793 334.193 99.4968 332.959 100.127C330.825 101.216 329.911 103.081 330.216 105.721L339.17 101.149ZM317.612 114.151C318.276 115.066 319.231 115.636 320.479 115.86C321.745 116.09 323.115 115.829 324.589 115.076C325.776 114.47 326.591 113.729 327.035 112.852C327.485 111.988 327.628 110.744 327.464 109.12L317.612 114.151ZM341.388 117.971C343.734 117.223 345.678 117.118 347.22 117.657C348.763 118.196 349.75 119.146 350.184 120.505C350.634 121.915 350.393 123.306 349.46 124.677C348.527 126.048 346.823 127.128 344.349 127.918C341.926 128.691 339.918 128.795 338.325 128.229C336.745 127.66 335.734 126.683 335.292 125.298C334.858 123.939 335.118 122.585 336.072 121.235C337.039 119.881 338.811 118.793 341.388 117.971ZM347.83 121.362C347.605 120.656 347.039 120.187 346.131 119.954C345.24 119.73 343.852 119.918 341.968 120.52C340.083 121.121 338.842 121.771 338.246 122.47C337.654 123.181 337.476 123.909 337.713 124.653C337.93 125.332 338.484 125.784 339.375 126.008C340.283 126.241 341.672 126.059 343.544 125.462C345.416 124.865 346.655 124.209 347.26 123.493C347.865 122.777 348.055 122.067 347.83 121.362ZM320.502 130.08L354.252 133.255L354.988 135.563L321.257 132.446L320.502 130.08ZM331.353 137.658C333.699 136.909 335.643 136.805 337.185 137.344C338.728 137.883 339.714 138.826 340.143 140.172C340.597 141.595 340.358 142.992 339.425 144.363C338.505 145.73 336.808 146.809 334.333 147.598C331.897 148.375 329.881 148.475 328.284 147.897C326.704 147.327 325.695 146.357 325.257 144.985C324.823 143.626 325.09 142.269 326.056 140.916C327.023 139.562 328.788 138.476 331.353 137.658ZM337.795 141.048C337.566 140.33 336.998 139.855 336.09 139.622C335.199 139.397 333.811 139.586 331.926 140.187C330.042 140.788 328.803 141.445 328.211 142.156C327.619 142.868 327.441 143.596 327.678 144.339C327.891 145.006 328.449 145.449 329.353 145.67C330.261 145.903 331.651 145.721 333.523 145.123C335.394 144.526 336.627 143.872 337.219 143.16C337.828 142.457 338.02 141.753 337.795 141.048ZM342.911 153.429L342.439 150.418L359.32 153.694L359.693 156.067L344.627 164.358L344.164 161.406L355.434 155.489L342.911 153.429ZM334.951 183.412C332.232 181.523 330.835 179.247 330.759 176.584C330.691 174.176 331.539 172.26 333.302 170.837C335.066 169.427 337.038 168.691 339.217 168.63C342.863 168.526 345.857 170.367 348.199 174.151C349.662 173.046 350.866 172.291 351.81 171.888C352.768 171.484 353.705 171.269 354.619 171.243C356.489 171.19 358.073 171.73 359.371 172.865C360.669 174.013 361.341 175.414 361.388 177.069C361.433 178.656 360.872 180.012 359.706 181.135C358.553 182.258 357.062 182.846 355.232 182.898C352.421 182.977 349.976 181.519 347.899 178.521L341.262 183.071C342.433 183.51 343.816 183.854 345.411 184.105L344.692 187.215C342.121 186.763 339.975 186.11 338.255 185.257C336.51 186.397 335.032 187.698 333.821 189.159L330.879 187.243C331.801 186.019 333.158 184.742 334.951 183.412ZM350.196 176.922C351.132 178.134 351.949 178.932 352.647 179.316C353.344 179.7 354.144 179.879 355.045 179.854C356.094 179.824 356.921 179.531 357.524 178.976C358.128 178.42 358.419 177.766 358.398 177.012C358.376 176.245 358.054 175.588 357.433 175.04C356.812 174.506 356.017 174.252 355.049 174.28C354.12 174.306 353.116 174.725 352.035 175.537L350.196 176.922ZM337.763 181.454L345.862 175.772C344.702 174.27 343.616 173.231 342.603 172.653C341.604 172.076 340.58 171.802 339.53 171.832C338.185 171.87 336.912 172.323 335.712 173.192C334.511 174.061 333.93 175.168 333.968 176.513C333.992 177.374 334.348 178.273 335.034 179.209C335.72 180.145 336.63 180.894 337.763 181.454ZM322.321 197.138C324.75 195.853 327.705 194.74 331.185 193.798C334.665 192.87 338.329 192.565 342.178 192.883C348.697 193.421 354.967 195.903 360.989 200.33L360.813 202.462C357.785 200.7 355.423 199.458 353.727 198.738C352.043 198.032 350.176 197.425 348.124 196.918C346.072 196.425 343.993 196.091 341.887 195.917C335.45 195.386 328.869 196.504 322.145 199.271L322.321 197.138ZM321.593 203.2L321.928 201.087C327.806 205.355 333.935 207.995 340.315 209.005C342.402 209.335 344.502 209.497 346.615 209.491C348.726 209.498 350.683 209.358 352.486 209.071C354.302 208.786 356.89 208.147 360.249 207.152L359.915 209.266C353.015 212.139 346.335 213.064 339.875 212.042C336.167 211.455 332.729 210.318 329.563 208.631C326.409 206.947 323.753 205.136 321.593 203.2ZM335.236 217.836L350.726 220.462L357.12 221.931L356.293 225.532L349.899 224.063L334.802 219.724L335.236 217.836ZM328.246 215.443L332.279 216.369L331.515 219.694L327.482 218.768L328.246 215.443ZM322.921 240.659C322.177 239.531 321.706 238.444 321.507 237.398C321.304 236.365 321.341 235.492 321.62 234.777C322.208 233.273 323.386 232.273 325.153 231.779C327.293 231.184 329.666 231.396 332.274 232.414C334.38 233.237 336.255 234.482 337.901 236.15C339.559 237.824 340.621 239.452 341.086 241.035C341.564 242.623 341.575 244 341.12 245.166C340.787 246.018 340.173 246.739 339.279 247.329C338.384 247.919 337.245 248.283 335.861 248.422L338.578 250.068L337.491 252.851L325.747 245.686C324.122 244.704 323.21 244.174 323.009 244.096C322.645 243.954 322.303 243.943 321.982 244.063C321.673 244.188 321.462 244.395 321.349 244.683C321.134 245.235 321.267 246.19 321.748 247.548C322.229 248.906 323.168 250.255 324.566 251.596C325.977 252.941 327.616 253.979 329.484 254.708C331.715 255.579 333.922 255.885 336.104 255.625C338.286 255.364 340.218 254.58 341.899 253.272C343.575 251.976 344.803 250.331 345.581 248.338C346.506 245.969 346.704 243.576 346.174 241.158C345.645 238.741 344.349 236.436 342.286 234.244C340.232 232.069 337.581 230.348 334.334 229.08C331.276 227.885 328.464 227.408 325.899 227.649C323.335 227.89 321.105 228.79 319.211 230.347C317.312 231.917 315.827 234.075 314.755 236.82C313.79 239.29 313.464 241.662 313.775 243.936C314.068 246.217 314.883 248.183 316.218 249.831L315.132 252.614C313.855 251.407 312.803 249.827 311.978 247.872C311.134 245.924 310.707 243.966 310.696 241.997C310.685 240.027 311.113 237.933 311.979 235.715C313.247 232.468 314.976 229.964 317.166 228.205C319.355 226.445 321.98 225.404 325.039 225.081C328.08 224.766 331.387 225.306 334.96 226.702C338.758 228.185 341.918 230.25 344.438 232.895C346.959 235.541 348.512 238.243 349.097 240.999C349.69 243.774 349.413 246.627 348.267 249.561C347.308 252.018 345.845 253.989 343.878 255.475C341.905 256.973 339.542 257.863 336.788 258.146C334.042 258.446 331.283 258.055 328.513 256.973C324.752 255.504 321.875 253.124 319.881 249.831C318.194 247.048 317.773 244.573 318.62 242.404C319.022 241.376 319.559 240.741 320.232 240.498C320.912 240.272 321.808 240.326 322.921 240.659ZM330.932 235.184C329.202 234.509 327.728 234.323 326.511 234.628C325.302 234.95 324.531 235.538 324.198 236.39C323.914 237.117 323.964 238.062 324.349 239.223C324.745 240.389 325.599 241.59 326.908 242.823C328.218 244.057 329.732 245.009 331.449 245.68C333.204 246.365 334.682 246.538 335.884 246.199C337.086 245.859 337.88 245.194 338.267 244.203C338.566 243.439 338.541 242.541 338.192 241.509C337.839 240.489 336.945 239.338 335.51 238.056C334.075 236.773 332.549 235.816 330.932 235.184ZM313.052 254.717L319.64 260.428L321.094 258.052L323.659 259.622L321.942 262.429L327.55 267.304L329.91 263.447L332.475 265.017L329.862 269.287L336.491 275.047L335.195 277.165L328.566 271.405L325.837 275.865L332.476 281.607L331.17 283.742L324.541 277.982L323.035 280.445L320.469 278.875L322.229 275.999L316.621 271.124L314.219 275.05L311.653 273.48L314.319 269.124L307.732 263.413L309.038 261.278L315.625 266.989L318.344 262.546L311.756 256.835L313.052 254.717ZM320.646 264.547L317.927 268.989L323.535 273.864L326.254 269.422L320.646 264.547ZM295.958 273.532L298.798 275.798C300.006 274.695 301.151 273.982 302.235 273.66C303.33 273.345 304.565 273.34 305.94 273.645C307.315 273.951 308.74 274.624 310.217 275.664L308.877 278.443C307.014 277.283 305.448 276.688 304.181 276.658C302.916 276.647 301.921 276.999 301.197 277.712L310.238 284.927C311.292 284.08 312.59 283.446 314.132 283.024C315.153 282.737 316.25 282.743 317.424 283.042C318.607 283.349 319.778 283.965 320.935 284.888C322.123 285.837 323.025 286.918 323.641 288.132C324.266 289.354 324.546 290.525 324.48 291.643C324.415 292.761 323.985 293.968 323.192 295.264L324.549 296.347L323.441 297.735L322.084 296.652C321.188 297.538 320.254 298.136 319.284 298.446C318.305 298.767 317.23 298.83 316.059 298.636C314.898 298.451 313.665 297.957 312.359 297.156L313.831 294.405C316.155 295.829 318.107 295.941 319.686 294.738L311.497 288.204C310.323 289.006 309.541 289.501 309.15 289.688C308.27 290.122 307.36 290.378 306.421 290.455C305.473 290.542 304.476 290.41 303.431 290.058C302.389 289.725 301.362 289.156 300.352 288.35C298.301 286.713 297.063 284.856 296.638 282.778C296.213 280.699 296.574 278.844 297.722 277.212L294.85 274.92L295.958 273.532ZM320.825 293.375C321.362 292.357 321.498 291.303 321.231 290.213C320.957 289.133 320.278 288.16 319.194 287.296C317.322 285.802 315.246 285.738 312.968 287.105L320.825 293.375ZM300.089 279.1C299.529 280.083 299.404 281.188 299.715 282.417C300.027 283.666 300.83 284.806 302.124 285.838C303.166 286.669 304.177 287.106 305.159 287.149C306.132 287.203 307.324 286.82 308.735 286L300.089 279.1Z" fill="white"/>
</svg>
