<svg width="305" height="306" viewBox="0 0 305 306" fill="none" xmlns="http://www.w3.org/2000/svg">
<path d="M238.879 249.263L249.957 260.403L254.307 265.315L251.541 267.764L247.192 262.853L237.428 250.548L238.879 249.263ZM234.582 243.253L237.325 246.351L234.771 248.613L232.028 245.515L234.582 243.253ZM215.151 260.184C215.248 258.836 215.535 257.687 216.014 256.736C216.481 255.793 217.043 255.123 217.699 254.726C219.081 253.889 220.623 253.813 222.327 254.497C224.387 255.327 226.141 256.939 227.59 259.334C228.761 261.268 229.492 263.398 229.782 265.723C230.08 268.06 229.931 269.998 229.337 271.537C228.75 273.088 227.921 274.188 226.85 274.836C226.067 275.31 225.141 275.508 224.072 275.432C223.004 275.355 221.878 274.951 220.696 274.219L221.85 277.178L219.294 278.725L214.335 265.893C213.643 264.125 213.241 263.15 213.13 262.965C212.928 262.631 212.663 262.414 212.334 262.314C212.013 262.225 211.72 262.261 211.456 262.421C210.949 262.728 210.473 263.566 210.028 264.937C209.584 266.307 209.508 267.949 209.801 269.864C210.102 271.79 210.771 273.611 211.81 275.326C213.05 277.376 214.615 278.961 216.505 280.082C218.395 281.204 220.405 281.757 222.535 281.742C224.654 281.734 226.629 281.176 228.459 280.068C230.635 278.751 232.249 276.972 233.299 274.732C234.35 272.491 234.725 269.874 234.422 266.879C234.115 263.903 233.06 260.924 231.255 257.942C229.555 255.132 227.614 253.043 225.432 251.674C223.25 250.304 220.934 249.661 218.483 249.744C216.021 249.834 213.529 250.642 211.008 252.169C208.74 253.541 207.037 255.225 205.9 257.218C204.744 259.208 204.195 261.263 204.251 263.384L201.695 264.931C201.416 263.196 201.544 261.302 202.079 259.248C202.595 257.19 203.447 255.376 204.637 253.806C205.826 252.237 207.44 250.835 209.478 249.602C212.46 247.797 215.355 246.863 218.164 246.799C220.972 246.735 223.688 247.506 226.312 249.112C228.917 250.713 231.212 253.154 233.198 256.435C235.31 259.924 236.56 263.485 236.95 267.118C237.341 270.752 236.929 273.841 235.715 276.384C234.497 278.946 232.541 281.042 229.847 282.673C227.591 284.039 225.23 284.712 222.765 284.694C220.288 284.683 217.871 283.951 215.514 282.499C213.152 281.066 211.201 279.077 209.661 276.532C207.57 273.078 206.736 269.438 207.158 265.612C207.512 262.378 208.685 260.157 210.677 258.952C211.621 258.38 212.434 258.203 213.116 258.42C213.793 258.655 214.471 259.243 215.151 260.184ZM224.84 260.715C223.878 259.126 222.822 258.083 221.671 257.584C220.515 257.104 219.545 257.1 218.763 257.574C218.095 257.978 217.56 258.758 217.158 259.914C216.763 261.081 216.71 262.552 216.999 264.328C217.287 266.104 217.908 267.781 218.863 269.358C219.839 270.97 220.907 272.007 222.067 272.469C223.227 272.931 224.262 272.886 225.172 272.336C225.874 271.911 226.401 271.183 226.753 270.152C227.093 269.128 227.084 267.671 226.725 265.78C226.367 263.889 225.739 262.2 224.84 260.715ZM198.793 265.244L200.189 273.85L202.828 272.957L203.792 275.807L200.675 276.861L201.855 284.197L206.139 282.748L207.102 285.598L202.36 287.201L203.757 295.871L201.405 296.666L200.008 287.997L195.055 289.671L196.471 298.334L194.1 299.136L192.703 290.467L189.968 291.391L189.005 288.542L192.198 287.462L191.018 280.126L186.658 281.6L185.694 278.751L190.532 277.115L189.135 268.51L191.507 267.708L192.903 276.313L197.837 274.645L196.44 266.04L198.793 265.244ZM198.323 277.656L193.389 279.324L194.569 286.66L199.503 284.992L198.323 277.656ZM173.7 268.452L174.317 272.032C175.952 272.01 177.282 272.238 178.307 272.717C179.334 273.209 180.26 274.026 181.085 275.167C181.91 276.308 182.529 277.759 182.941 279.517L180.094 280.705C179.472 278.6 178.697 277.115 177.769 276.251C176.831 275.402 175.854 275.004 174.839 275.056L176.804 286.455C178.154 286.522 179.546 286.911 180.979 287.619C181.933 288.083 182.749 288.816 183.427 289.819C184.108 290.835 184.574 292.073 184.826 293.532C185.084 295.03 185.04 296.438 184.693 297.754C184.349 299.083 183.781 300.144 182.989 300.936C182.197 301.728 181.074 302.345 179.621 302.787L179.916 304.498L178.165 304.8L177.87 303.089C176.612 303.156 175.517 302.983 174.585 302.57C173.64 302.159 172.795 301.492 172.048 300.57C171.304 299.66 170.71 298.472 170.266 297.005L173.194 295.927C173.985 298.535 175.37 299.915 177.349 300.065L175.568 289.741C174.158 289.561 173.244 289.411 172.828 289.291C171.882 289.031 171.032 288.618 170.279 288.051C169.512 287.487 168.855 286.726 168.308 285.769C167.749 284.828 167.36 283.72 167.141 282.447C166.695 279.861 167.003 277.65 168.066 275.814C169.129 273.979 170.631 272.832 172.573 272.374L171.949 268.754L173.7 268.452ZM179.106 299.803C180.184 299.399 180.985 298.701 181.51 297.709C182.023 296.719 182.161 295.541 181.925 294.175C181.518 291.815 180.009 290.388 177.398 289.896L179.106 299.803ZM173.088 275.358C172.017 275.72 171.189 276.464 170.605 277.589C170.009 278.729 169.852 280.115 170.134 281.747C170.36 283.06 170.826 284.058 171.531 284.742C172.223 285.429 173.369 285.934 174.968 286.259L173.088 275.358ZM161.602 296.853C161.534 299.315 160.992 301.185 159.974 302.463C158.956 303.741 157.734 304.36 156.308 304.321C154.828 304.28 153.595 303.593 152.608 302.26C151.622 300.927 151.164 298.963 151.236 296.366C151.306 293.824 151.871 291.894 152.93 290.577C153.989 289.273 155.245 288.641 156.698 288.681C158.124 288.72 159.316 289.413 160.276 290.759C161.234 292.118 161.677 294.149 161.602 296.853ZM156.276 301.816C157.016 301.836 157.645 301.457 158.165 300.677C158.671 299.91 158.951 298.537 159.005 296.56C159.06 294.582 158.856 293.197 158.393 292.403C157.916 291.609 157.288 291.201 156.508 291.18C155.795 291.16 155.186 291.534 154.68 292.301C154.16 293.081 153.873 294.453 153.819 296.417C153.765 298.381 153.976 299.767 154.452 300.574C154.928 301.382 155.536 301.796 156.276 301.816ZM157.065 273.142L142.929 303.953L140.508 303.886L154.583 273.073L157.065 273.142ZM146.331 280.883C146.263 283.345 145.72 285.215 144.702 286.493C143.684 287.771 142.469 288.39 141.056 288.352C139.563 288.31 138.323 287.623 137.337 286.29C136.35 284.971 135.892 283.013 135.964 280.416C136.034 277.86 136.606 275.924 137.679 274.607C138.738 273.304 139.987 272.671 141.426 272.711C142.852 272.75 144.045 273.45 145.004 274.809C145.962 276.168 146.405 278.193 146.331 280.883ZM141.004 285.846C141.758 285.867 142.394 285.487 142.914 284.707C143.419 283.94 143.699 282.568 143.754 280.59C143.808 278.613 143.597 277.227 143.121 276.433C142.645 275.639 142.017 275.231 141.236 275.21C140.537 275.191 139.934 275.571 139.428 276.352C138.908 277.132 138.621 278.504 138.567 280.468C138.513 282.432 138.724 283.811 139.201 284.605C139.663 285.412 140.264 285.826 141.004 285.846ZM127.205 286.361L130.183 287.012L121.011 301.558L118.664 301.045L116.398 283.999L119.317 284.637L120.747 297.285L127.205 286.361ZM102.228 267.552C105.031 265.791 107.673 265.398 110.153 266.373C112.395 267.255 113.825 268.786 114.442 270.966C115.047 273.142 114.951 275.244 114.153 277.273C112.818 280.667 109.951 282.7 105.552 283.37C105.995 285.149 106.217 286.553 106.218 287.58C106.214 288.619 106.044 289.565 105.709 290.417C105.025 292.158 103.906 293.402 102.354 294.151C100.789 294.895 99.236 294.964 97.6955 294.359C96.2176 293.777 95.1906 292.73 94.6144 291.217C94.0333 289.715 94.0776 288.113 94.7474 286.41C95.7767 283.792 98.0772 282.116 101.649 281.38L100.066 273.491C99.204 274.396 98.3448 275.533 97.4881 276.902L94.9093 275.021C96.3334 272.833 97.7753 271.115 99.235 269.867C98.8706 267.815 98.2536 265.946 97.384 264.259L100.3 262.304C101.065 263.631 101.708 265.381 102.228 267.552ZM102.22 284.121C100.738 284.507 99.6833 284.945 99.0564 285.436C98.4295 285.927 97.9511 286.592 97.6211 287.431C97.237 288.408 97.1821 289.283 97.4566 290.057C97.731 290.83 98.2189 291.354 98.9203 291.63C99.6341 291.911 100.365 291.873 101.113 291.516C101.848 291.154 102.392 290.522 102.747 289.621C103.087 288.756 103.095 287.668 102.773 286.355L102.22 284.121ZM102.926 270.906L104.977 280.585C106.814 280.106 108.196 279.515 109.124 278.81C110.047 278.117 110.701 277.282 111.085 276.305C111.577 275.053 111.659 273.704 111.331 272.259C111.002 270.814 110.212 269.845 108.96 269.353C108.158 269.038 107.192 269.012 106.062 269.276C104.931 269.54 103.886 270.084 102.926 270.906ZM94.8711 250.481C95.0276 253.224 94.8089 256.374 94.215 259.931C93.6094 263.481 92.3604 266.939 90.4682 270.306C87.2639 276.008 82.3954 280.674 75.8628 284.305L73.9974 283.256C76.8608 281.238 78.9733 279.608 80.3349 278.366C81.6782 277.13 83.0074 275.684 84.3227 274.031C85.6262 272.371 86.7955 270.62 87.8307 268.778C90.9954 263.146 92.7204 256.698 93.0057 249.433L94.8711 250.481ZM89.8249 247.332L91.5859 248.547C85.1953 252.002 80.1653 256.387 76.4959 261.704C75.2957 263.443 74.2416 265.266 73.3335 267.174C72.4144 269.074 71.6944 270.899 71.1734 272.649C70.6448 274.41 70.1025 277.02 69.5465 280.479L67.7855 279.263C68.1783 271.8 70.2324 265.377 73.9477 259.994C76.0805 256.904 78.592 254.296 81.482 252.17C84.3644 250.055 87.1454 248.442 89.8249 247.332ZM70.6775 253.18L61.4013 265.861L57.2281 270.923L54.3777 268.573L58.5509 263.511L69.1822 251.948L70.6775 253.18ZM75.9434 247.999L73.3111 251.192L70.6787 249.022L73.311 245.828L75.9434 247.999ZM56.1564 231.484C57.5028 231.365 58.6832 231.467 59.6975 231.789C60.7031 232.101 61.454 232.549 61.9501 233.135C62.9947 234.366 63.3145 235.877 62.9096 237.668C62.4166 239.833 61.1027 241.821 58.9679 243.631C57.2436 245.094 55.2565 246.152 53.0066 246.808C50.7464 247.472 48.8093 247.632 47.1951 247.29C45.5708 246.956 44.3538 246.312 43.5442 245.357C42.9523 244.659 42.6095 243.776 42.5158 242.709C42.4221 241.641 42.6428 240.466 43.178 239.183L40.4392 240.791L38.5067 238.512L50.3907 231.583C52.0262 230.619 52.9261 230.068 53.0903 229.929C53.388 229.676 53.5603 229.38 53.6073 229.04C53.6441 228.709 53.5623 228.425 53.3621 228.189C52.9791 227.738 52.0759 227.401 50.6523 227.179C49.2288 226.957 47.5951 227.143 45.7513 227.736C43.8973 228.338 42.2056 229.287 40.6763 230.584C38.8494 232.134 37.5322 233.93 36.7245 235.974C35.9168 238.018 35.6892 240.09 36.0417 242.191C36.3855 244.282 37.2495 246.143 38.6335 247.775C40.2787 249.715 42.2907 251.026 44.6694 251.708C47.0481 252.391 49.6919 252.345 52.6008 251.572C55.4907 250.798 58.2647 249.283 60.923 247.029C63.4273 244.905 65.1826 242.657 66.1891 240.286C67.1955 237.915 67.4634 235.526 66.9928 233.119C66.5135 230.702 65.3207 228.37 63.4143 226.122C61.6995 224.1 59.7676 222.686 57.6188 221.879C55.4714 221.054 53.3553 220.837 51.2702 221.229L49.3377 218.95C51.0061 218.4 52.8967 218.226 55.0093 218.428C57.1235 218.611 59.0496 219.166 60.7877 220.092C62.5257 221.017 64.1651 222.389 65.7059 224.205C67.9604 226.864 69.3418 229.574 69.8499 232.337C70.3581 235.1 70.0274 237.904 68.8579 240.749C67.69 243.574 65.6435 246.228 62.7184 248.709C59.6086 251.346 56.2908 253.145 52.7649 254.107C49.239 255.068 46.1243 255.151 43.4206 254.356C40.698 253.559 38.3183 251.96 36.2814 249.558C34.5752 247.547 33.5359 245.322 33.1632 242.886C32.7818 240.439 33.1212 237.936 34.1811 235.378C35.2221 232.819 36.8767 230.578 39.145 228.654C42.224 226.042 45.6857 224.642 49.5302 224.452C52.7804 224.289 55.1584 225.095 56.6643 226.871C57.3781 227.713 57.6821 228.487 57.5762 229.195C57.4514 229.9 56.9781 230.664 56.1564 231.484ZM57.168 241.134C58.5843 239.933 59.4475 238.725 59.7574 237.509C60.0484 236.291 59.898 235.334 59.3061 234.636C58.8012 234.041 57.9464 233.636 56.7418 233.423C55.5269 233.218 54.0655 233.398 52.3576 233.965C50.6497 234.531 49.0927 235.41 47.6866 236.603C46.2497 237.821 45.3953 239.04 45.1233 240.259C44.8512 241.478 45.0591 242.493 45.7467 243.304C46.2777 243.93 47.0799 244.335 48.1533 244.518C49.218 244.692 50.6556 244.452 52.4662 243.799C54.2767 243.145 55.844 242.257 57.168 241.134ZM48.5669 216.138L40.2972 218.898L41.6016 221.359L38.9439 222.768L37.4032 219.86L30.3518 222.203L32.469 226.199L29.8113 227.607L27.4672 223.183L19.1345 225.954L17.972 223.76L26.3046 220.989L23.8566 216.37L15.5334 219.158L14.3613 216.946L22.694 214.176L21.3424 211.625L24.0001 210.217L25.5786 213.195L32.63 210.852L30.475 206.785L33.1327 205.377L35.524 209.89L43.7937 207.13L44.9658 209.342L36.6961 212.102L39.1347 216.704L47.4044 213.944L48.5669 216.138ZM36.2406 217.666L33.8021 213.064L26.7506 215.407L29.1892 220.009L36.2406 217.666ZM41.3654 191.886L37.9313 193.073C38.2175 194.683 38.207 196.032 37.9 197.121C37.5803 198.214 36.9238 199.26 35.9306 200.259C34.9373 201.257 33.6062 202.102 31.937 202.793L30.3054 200.175C32.2822 199.221 33.6222 198.216 34.3254 197.161C35.0115 196.098 35.2468 195.07 35.0314 194.076L24.0997 197.857C24.2509 199.2 24.0925 200.636 23.6245 202.165C23.3209 203.181 22.729 204.105 21.8488 204.936C20.9559 205.772 19.8099 206.432 18.4109 206.915C16.9736 207.412 15.5776 207.596 14.2228 207.467C12.8552 207.341 11.7166 206.952 10.807 206.298C9.89742 205.645 9.10729 204.636 8.4366 203.273L6.79589 203.841L6.2153 202.162L7.85601 201.594C7.58687 200.363 7.58084 199.255 7.83792 198.269C8.09061 197.27 8.61206 196.328 9.40227 195.442C10.1798 194.561 11.2563 193.783 12.632 193.108L14.169 195.823C11.7225 197.025 10.5848 198.614 10.7559 200.592L20.6574 197.167C20.6074 195.746 20.6077 194.821 20.6582 194.39C20.7622 193.415 21.033 192.509 21.4705 191.674C21.9036 190.827 22.5483 190.056 23.4045 189.361C24.2435 188.658 25.2736 188.095 26.4946 187.673C28.9747 186.815 31.2064 186.763 33.1896 187.515C35.1728 188.267 36.5471 189.565 37.3126 191.408L40.7848 190.207L41.3654 191.886ZM11.2983 202.284C11.8713 203.282 12.6896 203.96 13.7534 204.318C14.8127 204.664 15.9974 204.61 17.3075 204.157C19.5714 203.374 20.7353 201.654 20.7992 198.998L11.2983 202.284ZM34.4508 192.397C33.9204 191.399 33.0529 190.702 31.8483 190.307C30.6266 189.904 29.2335 189.972 27.6691 190.513C26.41 190.949 25.4997 191.57 24.9385 192.376C24.3728 193.17 24.0587 194.382 23.9961 196.013L34.4508 192.397ZM11.3788 184.447C8.93708 184.768 7.00501 184.527 5.58261 183.723C4.1602 182.92 3.35595 181.811 3.16987 180.396C2.97675 178.929 3.46061 177.603 4.62144 176.418C5.78227 175.234 7.65026 174.472 10.2254 174.134C12.7472 173.802 14.7419 174.055 16.2096 174.894C17.664 175.734 18.486 176.874 18.6756 178.315C18.8617 179.73 18.3659 181.017 17.1882 182.176C15.9972 183.337 14.0607 184.094 11.3788 184.447ZM5.63846 179.97C5.73501 180.704 6.20938 181.266 7.06156 181.656C7.89864 182.034 9.29787 182.094 11.2593 181.836C13.2207 181.578 14.5567 181.158 15.2674 180.576C15.9763 179.98 16.2798 179.296 16.178 178.522C16.085 177.815 15.6199 177.272 14.7828 176.893C13.9307 176.503 12.5305 176.436 10.5825 176.693C8.63445 176.949 7.29929 177.376 6.57703 177.973C5.85476 178.57 5.5419 179.236 5.63846 179.97ZM34.0786 176.228L1.42397 167.127L1.10797 164.725L33.7547 173.766L34.0786 176.228ZM24.741 166.848C22.2993 167.17 20.3672 166.928 18.9448 166.125C17.5224 165.321 16.719 164.219 16.5347 162.818C16.3398 161.337 16.8228 160.004 17.9836 158.82C19.1311 157.637 20.9924 156.876 23.5676 156.537C26.1027 156.204 28.105 156.463 29.5745 157.315C31.0288 158.155 31.8499 159.289 32.0378 160.717C32.2238 162.131 31.7214 163.419 30.5304 164.58C29.3393 165.741 27.4095 166.497 24.741 166.848ZM19.0006 162.371C19.0989 163.118 19.5742 163.687 20.4264 164.077C21.2634 164.455 22.6627 164.516 24.6241 164.258C26.5855 164 27.9206 163.573 28.6295 162.977C29.3385 162.382 29.642 161.697 29.5402 160.923C29.4489 160.229 28.9781 159.694 28.1276 159.317C27.2755 158.927 25.8753 158.86 23.9273 159.117C21.9792 159.373 20.6508 159.799 19.9418 160.394C19.2178 160.978 18.9041 161.637 19.0006 162.371ZM16.3167 148.827L16.1433 151.871L0.332923 145.106L0.469541 142.708L16.9458 137.783L16.7759 140.766L4.51092 144.172L16.3167 148.827ZM30.885 121.198C33.076 123.68 33.8909 126.223 33.3297 128.828C32.8224 131.183 31.5427 132.841 29.4907 133.804C27.4415 134.752 25.3513 134.997 23.22 134.538C19.6548 133.77 17.1855 131.269 15.8123 127.036C14.1281 127.761 12.7792 128.207 11.7658 128.374C10.7392 128.538 9.77863 128.524 8.88403 128.331C7.05536 127.937 5.64599 127.035 4.65593 125.624C3.6687 124.2 3.3494 122.679 3.69804 121.06C4.03249 119.508 4.89995 118.325 6.30042 117.512C7.68772 116.696 9.27598 116.48 11.0652 116.866C13.8148 117.458 15.8414 119.457 17.1451 122.863L24.6742 120.025C23.642 119.321 22.3809 118.657 20.8909 118.033L22.3307 115.184C24.7198 116.235 26.6482 117.38 28.116 118.619C30.0821 117.927 31.8272 117.016 33.3511 115.885L35.7522 118.447C34.5658 119.416 32.9434 120.333 30.885 121.198ZM14.5328 123.87C13.9121 122.469 13.3088 121.5 12.7229 120.96C12.137 120.421 11.4033 120.057 10.5219 119.867C9.4957 119.646 8.62334 119.733 7.9048 120.129C7.18625 120.525 6.74761 121.091 6.58889 121.828C6.42733 122.578 6.58303 123.293 7.056 123.973C7.53181 124.64 8.24332 125.075 9.19055 125.279C10.0983 125.475 11.1738 125.307 12.417 124.777L14.5328 123.87ZM27.6873 122.429L18.4683 126.019C19.2371 127.754 20.0445 129.022 20.8905 129.824C21.7233 130.623 22.6528 131.133 23.679 131.354C24.9946 131.637 26.3388 131.5 27.7117 130.942C29.0847 130.385 29.9128 129.448 30.1963 128.132C30.3777 127.29 30.2467 126.333 29.8033 125.26C29.3599 124.187 28.6546 123.243 27.6873 122.429ZM46.5496 111.203C43.8666 111.795 40.7223 112.082 37.1166 112.064C33.5156 112.033 29.9021 111.352 26.276 110.022C20.1358 107.769 14.7521 103.708 10.125 97.8387L10.862 95.8298C13.3119 98.3342 15.2584 100.159 16.7015 101.305C18.1367 102.434 19.7755 103.515 21.6179 104.55C23.465 105.571 25.3803 106.446 27.3639 107.174C33.4283 109.399 40.0692 110.072 47.2866 109.194L46.5496 111.203ZM48.8522 105.726L47.932 107.657C43.5059 101.897 38.3769 97.6277 32.545 94.8497C30.6375 93.9411 28.6698 93.1901 26.6419 92.5968C24.6197 91.9914 22.7035 91.5705 20.8931 91.3342C19.0705 91.0921 16.4076 90.9714 12.9042 90.9721L13.8244 89.0403C21.2554 88.2422 27.9233 89.2495 33.8281 92.0622C37.2179 93.6769 40.1919 95.742 42.7501 98.2575C45.2962 100.767 47.3302 103.257 48.8522 105.726ZM40.0167 87.763L26.0046 80.6562L20.3349 77.3552L22.1936 74.1627L27.8633 77.4637L40.9918 86.0882L40.0167 87.763ZM45.9809 92.123L42.4046 90.0408L44.1211 87.0926L47.6974 89.1747L45.9809 92.123ZM59.1257 69.9545C59.4568 71.265 59.5439 72.4466 59.3872 73.4991C59.2393 74.5415 58.9159 75.3541 58.4172 75.937C57.3673 77.1641 55.9264 77.72 54.0943 77.6049C51.8784 77.4623 49.7069 76.4812 47.58 74.6613C45.8621 73.1915 44.5008 71.398 43.4961 69.2809C42.4812 67.155 42.0146 65.268 42.0963 63.6199C42.1678 61.9631 42.6104 60.6592 43.4241 59.7082C44.019 59.0129 44.836 58.5341 45.8751 58.2719C46.9142 58.0097 48.1097 58.0407 49.4617 58.365L47.4385 55.9167L49.3808 53.6466L58.1113 64.2779C59.3227 65.7394 60.0102 66.5402 60.1738 66.6802C60.4703 66.9339 60.7901 67.057 61.1331 67.0494C61.4659 67.033 61.7329 66.9072 61.9342 66.672C62.3191 66.2221 62.5081 65.2768 62.5009 63.8361C62.4938 62.3953 62.0508 60.812 61.172 59.0859C60.283 57.3511 59.0767 55.8319 57.553 54.5283C55.7329 52.971 53.7497 51.956 51.6035 51.4835C49.4573 51.0111 47.3751 51.1158 45.357 51.7978C43.3476 52.4696 41.6473 53.6185 40.2562 55.2443C38.6026 57.177 37.628 59.3718 37.3324 61.8287C37.0368 64.2857 37.5019 66.8886 38.7276 69.6376C39.9518 72.3676 41.8881 74.8656 44.5365 77.1317C47.0316 79.2665 49.5296 80.6422 52.0307 81.2589C54.5317 81.8756 56.9328 81.7603 59.234 80.9131C61.5439 80.0557 63.6569 78.5072 65.573 76.2678C67.2966 74.2533 68.3858 72.1212 68.8407 69.8714C69.3145 67.6201 69.1922 65.4964 68.4737 63.5001L70.416 61.23C71.2246 62.7897 71.697 64.6285 71.8332 66.7464C71.9883 68.8629 71.7471 70.8527 71.1094 72.7158C70.4717 74.5789 69.3786 76.4155 67.83 78.2254C65.5639 80.8739 63.1074 82.6686 60.4603 83.6095C57.8133 84.5505 54.9925 84.6698 51.998 83.9674C49.0225 83.2635 46.0776 81.6649 43.1633 79.1714C40.0649 76.5204 37.761 73.5308 36.2517 70.2025C34.7423 66.8743 34.1652 63.8124 34.5203 61.0167C34.874 58.2021 36.0745 55.5984 38.1218 53.2056C39.8366 51.2013 41.8673 49.8216 44.2138 49.0663C46.5691 48.3008 49.0936 48.2379 51.7873 48.8778C54.4795 49.4987 56.9556 50.7759 59.2155 52.7095C62.2832 55.3342 64.2165 58.5293 65.0154 62.2946C65.6926 65.4776 65.2744 67.9536 63.7608 69.7226C63.0434 70.5612 62.327 70.9844 61.6118 70.9923C60.895 70.9813 60.0664 70.6353 59.1257 69.9545ZM49.7589 72.4874C51.17 73.6947 52.5004 74.3548 53.75 74.4675C54.9981 74.5613 55.9196 74.2605 56.5146 73.5652C57.022 72.9721 57.2854 72.0639 57.3048 70.8407C57.3139 69.6087 56.9032 68.1946 56.0727 66.5984C55.2421 65.0023 54.1264 63.6048 52.7255 62.4062C51.2939 61.1813 49.9548 60.5315 48.7081 60.4567C47.4615 60.3819 46.4926 60.7484 45.8014 61.5563C45.2677 62.18 44.9955 63.0364 44.9848 64.1253C44.9828 65.2041 45.4482 66.5852 46.381 68.2689C47.3138 69.9526 48.4398 71.3587 49.7589 72.4874ZM73.0743 60.0185L69.0384 52.2908L66.8147 53.9688L65.0029 51.5679L67.6294 49.5859L64.1985 42.9949L60.589 45.7186L58.7773 43.3177L62.7734 40.3022L58.7171 32.514L60.6991 31.0183L64.7554 38.8065L68.9288 35.6572L64.8564 27.8812L66.8545 26.3734L70.9108 34.1616L73.215 32.4228L75.0268 34.8237L72.3358 36.8543L75.7668 43.4453L79.4407 40.6729L81.2525 43.0738L77.1757 46.1502L81.2116 53.8779L79.2135 55.3857L75.1776 47.658L71.0203 50.7952L75.0562 58.5229L73.0743 60.0185ZM69.6114 48.0902L73.7687 44.9531L70.3377 38.3621L66.1804 41.4993L69.6114 48.0902ZM95.8801 49.0567L94.1612 45.8554C92.6175 46.394 91.2837 46.5984 90.16 46.4685C89.03 46.3268 87.893 45.845 86.7492 45.0233C85.6054 44.2016 84.5595 43.0218 83.6116 41.4839L85.937 39.4564C87.1936 41.2563 88.3985 42.4194 89.5518 42.9458C90.7106 43.454 91.7632 43.5227 92.7098 43.152L87.2382 32.961C85.9362 33.324 84.4933 33.3961 82.9094 33.1772C81.8577 33.0392 80.8515 32.6019 79.8908 31.8652C78.9237 31.1166 78.09 30.0902 77.3898 28.7859C76.6704 27.4461 76.2669 26.097 76.1792 24.7388C76.0852 23.3688 76.2885 22.1827 76.7892 21.1807C77.2899 20.1787 78.1597 19.2382 79.3985 18.3592L78.5773 16.8297L80.1424 15.9894L80.9636 17.5189C82.1364 17.0573 83.2299 16.875 84.2442 16.9719C85.2705 17.0625 86.2836 17.4274 87.2836 18.0666C88.2773 18.694 89.2168 19.633 90.1021 20.8837L87.6661 22.8332C86.0901 20.6091 84.3398 19.7388 82.4151 20.2223L87.371 29.4529C88.7659 29.1775 89.6798 29.0305 90.1128 29.0118C91.0927 28.9593 92.0295 29.0825 92.9233 29.3817C93.829 29.6744 94.6929 30.1882 95.5151 30.9229C96.3427 31.6394 97.0621 32.5668 97.6733 33.7051C98.9146 36.0172 99.3217 38.212 98.8944 40.2897C98.4672 42.3673 97.4048 43.9306 95.7073 44.9795L97.4452 48.2164L95.8801 49.0567ZM80.8309 21.027C79.9368 21.7515 79.3974 22.6673 79.2129 23.7745C79.0402 24.8754 79.2817 26.0364 79.9374 27.2577C81.0705 29.3682 82.9535 30.2437 85.5863 29.8841L80.8309 21.027ZM94.2749 42.3117C95.1763 41.6292 95.7261 40.6618 95.9245 39.4097C96.1284 38.1394 95.8389 36.775 95.0558 35.3166C94.4256 34.1428 93.6678 33.3429 92.7823 32.9171C91.9088 32.4849 90.662 32.3677 89.0421 32.5653L94.2749 42.3117ZM98.4339 18.2725C97.7262 15.9136 97.6552 13.9678 98.221 12.4351C98.7868 10.9025 99.7529 9.93116 101.119 9.5212C102.537 9.09577 103.924 9.36126 105.278 10.3177C106.633 11.2741 107.684 12.9962 108.43 15.4839C109.161 17.9202 109.23 19.9297 108.637 21.5127C108.041 23.0827 107.046 24.0766 105.654 24.4943C104.288 24.9043 102.938 24.6207 101.605 23.6437C100.268 22.6538 99.2113 20.8634 98.4339 18.2725ZM101.935 11.8897C101.226 12.1025 100.748 12.6606 100.499 13.5642C100.259 14.4511 100.423 15.8419 100.992 17.7368C101.56 19.6316 102.189 20.8832 102.877 21.4916C103.579 22.0962 104.303 22.2863 105.051 22.0619C105.734 21.857 106.195 21.311 106.435 20.4242C106.684 19.5206 106.526 18.1278 105.961 16.2458C105.396 14.3639 104.762 13.1142 104.056 12.4968C103.351 11.8794 102.644 11.677 101.935 11.8897ZM110.179 39.3649L113.938 5.67493L116.259 4.97878L112.557 38.6514L110.179 39.3649ZM117.944 28.6471C117.236 26.2882 117.165 24.3424 117.731 22.8097C118.297 21.2771 119.256 20.3077 120.61 19.9016C122.04 19.4723 123.433 19.7359 124.788 20.6923C126.139 21.6358 127.188 23.3514 127.934 25.8392C128.669 28.2883 128.733 30.3063 128.128 31.8931C127.531 33.4631 126.543 34.4551 125.164 34.8689C123.797 35.2789 122.446 34.9889 121.109 33.999C119.772 33.0091 118.717 31.2251 117.944 28.6471ZM121.445 22.2644C120.723 22.4809 120.238 23.041 119.989 23.9446C119.749 24.8315 119.914 26.2224 120.482 28.1172C121.051 30.012 121.686 31.2617 122.387 31.8662C123.088 32.4708 123.813 32.6609 124.56 32.4366C125.231 32.2354 125.684 31.685 125.92 30.7853C126.168 29.8817 126.01 28.4889 125.446 26.6069C124.881 24.725 124.248 23.4817 123.547 22.8772C122.855 22.2559 122.154 22.0516 121.445 22.2644ZM134.398 17.4513L131.366 17.7639L135.53 1.07922L137.92 0.832827L145.402 16.3166L142.43 16.623L137.118 5.05549L134.398 17.4513ZM163.992 27.4406C161.89 29.9985 159.509 31.2076 156.848 31.0678C154.442 30.9414 152.601 29.9418 151.325 28.069C150.062 26.1968 149.488 24.1722 149.602 21.995C149.794 18.353 151.87 15.5174 155.831 13.4884C154.847 11.9409 154.192 10.6801 153.866 9.7062C153.541 8.71881 153.402 7.76818 153.45 6.85431C153.548 4.98625 154.215 3.45129 155.451 2.24941C156.7 1.04823 158.151 0.491059 159.804 0.577882C161.389 0.661174 162.695 1.32946 163.721 2.58272C164.747 3.82255 165.213 5.35634 165.117 7.18408C164.969 9.99288 163.318 12.3117 160.163 14.1404L164.162 21.1224C164.693 19.9913 165.148 18.6406 165.527 17.0703L168.569 18.0387C167.911 20.5646 167.087 22.6506 166.098 24.2966C167.093 26.1278 168.27 27.7057 169.629 29.0304L167.482 31.8083C166.336 30.7913 165.173 29.3354 163.992 27.4406ZM158.753 11.7215C160.037 10.8861 160.899 10.1362 161.338 9.47197C161.777 8.80775 162.02 8.02542 162.067 7.12499C162.122 6.07673 161.897 5.22938 161.392 4.58294C160.887 3.9365 160.258 3.59351 159.506 3.55398C158.74 3.51375 158.059 3.78119 157.462 4.35631C156.88 4.93214 156.563 5.70386 156.512 6.67149C156.463 7.5988 156.8 8.63393 157.521 9.77689L158.753 11.7215ZM162.268 24.4795L157.258 15.9487C155.667 16.9837 154.543 17.9825 153.886 18.9453C153.23 19.8946 152.874 20.8934 152.819 21.9416C152.749 23.2855 153.098 24.5909 153.867 25.8576C154.636 27.1243 155.692 27.793 157.036 27.8636C157.896 27.9088 158.821 27.6272 159.81 27.0187C160.798 26.4103 161.618 25.5639 162.268 24.4795ZM176.369 41.3087C175.354 38.7553 174.566 35.6977 174.007 32.1357C173.46 28.5762 173.553 24.9003 174.285 21.1079C175.524 14.686 178.67 8.72099 183.721 3.21299L185.822 3.6185C183.743 6.43812 182.254 8.652 181.354 10.2601C180.47 11.8576 179.665 13.6486 178.939 15.6329C178.227 17.6199 177.67 19.6507 177.27 21.7252C176.046 28.0679 176.446 34.7309 178.47 41.7142L176.369 41.3087ZM182.124 42.7057L180.071 42.1023C185.059 36.8216 188.465 31.0824 190.286 24.8848C190.882 22.8577 191.313 20.796 191.578 18.6998C191.856 16.6075 191.969 14.6488 191.916 12.8238C191.867 10.9859 191.566 8.33731 191.011 4.87804L193.064 5.48143C195.027 12.693 195.086 19.4362 193.241 25.7113C192.183 29.3136 190.613 32.5766 188.534 35.5002C186.458 38.4109 184.321 40.8127 182.124 42.7057ZM198.456 31.133L203.236 16.1664L205.59 10.0425L209.038 11.368L206.684 17.4918L200.265 31.8283L198.456 31.133ZM195.104 37.7165L196.589 33.8538L199.773 35.0778L198.288 38.9405L195.104 37.7165ZM219.082 47.163C217.841 47.6984 216.688 47.9725 215.624 47.9853C214.572 48.0051 213.718 47.8152 213.063 47.4156C211.684 46.5744 210.906 45.2403 210.728 43.4133C210.516 41.2029 211.14 38.903 212.598 36.5135C213.775 34.5836 215.329 32.9542 217.26 31.6254C219.197 30.2851 220.986 29.5242 222.626 29.3426C224.273 29.1495 225.631 29.379 226.699 30.0309C227.48 30.5076 228.083 31.238 228.507 32.2221C228.931 33.2062 229.091 34.3915 228.986 35.7778L231.081 33.3909L233.631 34.9471L224.525 45.2582C223.275 46.6867 222.594 47.4929 222.481 47.6767C222.278 48.0098 222.207 48.3451 222.27 48.6826C222.339 49.0085 222.505 49.2521 222.77 49.4133C223.275 49.7218 224.238 49.7579 225.66 49.5216C227.081 49.2853 228.574 48.596 230.138 47.4537C231.709 46.2999 233.017 44.8672 234.061 43.1555C235.309 41.1107 235.996 38.9913 236.12 36.7972C236.245 34.6032 235.811 32.5643 234.816 30.6804C233.833 28.8035 232.428 27.3077 230.602 26.1931C228.431 24.8681 226.109 24.2552 223.636 24.3544C221.163 24.4535 218.668 25.3269 216.149 26.9744C213.648 28.6175 211.49 30.9266 209.675 33.902C207.964 36.705 207.003 39.3901 206.793 41.9574C206.582 44.5247 207.078 46.8768 208.28 49.0139C209.494 51.1579 211.359 52.9976 213.875 54.5328C216.138 55.9139 218.417 56.6499 220.71 56.741C223.008 56.8505 225.085 56.3918 226.942 55.3648L229.492 56.9211C228.081 57.9676 226.341 58.7266 224.271 59.1981C222.207 59.688 220.204 59.7665 218.263 59.4334C216.322 59.1004 214.335 58.3134 212.302 57.0726C209.326 55.2569 207.164 53.1173 205.813 50.6537C204.463 48.1901 203.896 45.4243 204.113 42.3562C204.335 39.3066 205.444 36.1448 207.442 32.8708C209.566 29.3901 212.151 26.6398 215.197 24.62C218.243 22.6002 221.174 21.5432 223.99 21.4489C226.825 21.3501 229.587 22.121 232.275 23.7614C234.527 25.1354 236.212 26.9206 237.331 29.117C238.462 31.3205 238.925 33.8028 238.722 36.564C238.538 39.3208 237.671 41.9685 236.121 44.5073C234.018 47.9536 231.172 50.3707 227.582 51.7586C224.547 52.9338 222.036 52.9149 220.048 51.7022C219.107 51.1273 218.575 50.4874 218.453 49.7826C218.35 49.0732 218.56 48.2001 219.082 47.163ZM215.091 38.3186C214.123 39.904 213.683 41.3224 213.771 42.574C213.877 43.8212 214.321 44.6831 215.102 45.1598C215.768 45.5664 216.707 45.6819 217.917 45.5064C219.135 45.3193 220.466 44.6888 221.909 43.6148C223.353 42.5409 224.555 41.217 225.516 39.6432C226.497 38.0349 226.925 36.6094 226.801 35.3668C226.676 34.1241 226.16 33.2259 225.253 32.672C224.552 32.2444 223.663 32.112 222.586 32.2747C221.521 32.4444 220.232 33.1237 218.718 34.3125C217.204 35.5014 215.995 36.8367 215.091 38.3186ZM231.108 59.353L238.102 54.1482L236.094 52.2172L238.179 50.0492L240.55 52.3301L246.517 47.902L243.258 44.7676L245.343 42.5997L248.952 46.0699L256.002 40.8354L257.792 42.5566L250.741 47.791L254.51 51.4151L261.546 46.1667L263.35 47.9018L256.299 53.1363L258.38 55.1372L256.295 57.3052L253.865 54.9684L247.898 59.3965L251.216 62.5868L249.131 64.7548L245.45 61.2146L238.456 66.4194L236.651 64.6843L243.645 59.4795L239.891 55.8693L232.897 61.0741L231.108 59.353ZM242.34 54.0512L246.094 57.6613L252.061 53.2333L248.307 49.6231L242.34 54.0512ZM245.538 80.1417L248.426 77.937C247.65 76.4981 247.236 75.2137 247.187 74.0836C247.147 72.9454 247.443 71.7464 248.073 70.4868C248.702 69.2271 249.701 68.0074 251.07 66.8276L253.44 68.802C251.862 70.3281 250.905 71.7023 250.568 72.9244C250.25 74.1492 250.349 75.1994 250.865 76.0752L260.06 69.0568C259.495 67.8288 259.195 66.4155 259.16 64.817C259.129 63.7567 259.402 62.6939 259.977 61.6285C260.562 60.555 261.444 59.5691 262.62 58.6708C263.829 57.7481 265.097 57.1358 266.424 56.8338C267.762 56.5237 268.965 56.5364 270.034 56.8718C271.103 57.2073 272.169 57.9169 273.234 59.0007L274.613 57.9473L275.691 59.3594L274.311 60.4127C274.953 61.4974 275.307 62.5482 275.372 63.5651C275.445 64.5927 275.245 65.6508 274.773 66.7396C274.311 67.8202 273.533 68.8967 272.438 69.9692L270.127 67.8732C272.073 65.9644 272.655 64.0982 271.872 62.2745L263.545 68.6315C264.038 69.9651 264.328 70.8441 264.415 71.2687C264.622 72.2279 264.649 73.1724 264.495 74.1023C264.35 75.0429 263.98 75.9774 263.385 76.9057C262.808 77.8365 262.007 78.6939 260.98 79.4778C258.894 81.0701 256.791 81.82 254.672 81.7277C252.553 81.6353 250.841 80.8342 249.536 79.3245L246.616 81.5538L245.538 80.1417ZM270.827 60.838C269.97 60.0701 268.98 59.6828 267.857 59.6761C266.743 59.6802 265.635 60.1028 264.533 60.9439C262.629 62.3974 262.063 64.3953 262.836 66.9378L270.827 60.838ZM251.943 77.4872C252.76 78.269 253.802 78.6585 255.07 78.6558C256.357 78.6557 257.658 78.1534 258.974 77.149C260.033 76.3406 260.702 75.4655 260.982 74.5238C261.27 73.5927 261.189 72.3431 260.736 70.775L251.943 77.4872ZM276.323 77.7443C278.538 76.6677 280.447 76.2858 282.051 76.5987C283.654 76.9116 284.768 77.7095 285.392 78.9925C286.039 80.3239 285.999 81.7349 285.272 83.2255C284.545 84.716 283.014 86.029 280.678 87.1645C278.39 88.2764 276.417 88.6666 274.76 88.3351C273.114 87.9977 271.974 87.1753 271.339 85.8681C270.715 84.5852 270.779 83.2075 271.529 81.7353C272.292 80.2572 273.89 78.9269 276.323 77.7443ZM283.184 80.1776C282.861 79.5119 282.233 79.1287 281.301 79.028C280.388 78.9335 279.041 79.3186 277.262 80.1835C275.483 81.0483 274.348 81.8692 273.858 82.6462C273.373 83.4352 273.302 84.1808 273.643 84.8828C273.955 85.5243 274.568 85.8923 275.481 85.9868C276.413 86.0875 277.763 85.7084 279.53 84.8494C281.297 83.9905 282.429 83.1635 282.925 82.3686C283.422 81.5736 283.508 80.8433 283.184 80.1776ZM257.385 92.7178L291.242 91.0296L292.301 93.2083L258.471 94.9509L257.385 92.7178ZM269.209 98.6645C271.424 97.5879 273.333 97.206 274.937 97.5189C276.54 97.8318 277.651 98.6236 278.269 99.8945C278.922 101.238 278.885 102.655 278.158 104.146C277.443 105.63 275.918 106.94 273.582 108.076C271.282 109.194 269.3 109.581 267.637 109.237C265.992 108.9 264.854 108.083 264.225 106.788C263.601 105.505 263.671 104.125 264.434 102.647C265.197 101.169 266.788 99.8411 269.209 98.6645ZM276.07 101.098C275.741 100.42 275.11 100.031 274.179 99.93C273.265 99.8355 271.918 100.221 270.139 101.085C268.36 101.95 267.228 102.777 266.744 103.566C266.259 104.355 266.188 105.101 266.529 105.803C266.835 106.432 267.451 106.791 268.377 106.88C269.309 106.981 270.658 106.602 272.425 105.743C274.192 104.884 275.318 104.06 275.802 103.271C276.305 102.488 276.394 101.763 276.07 101.098ZM282.896 113.085L282.096 110.143L299.235 111.552L299.865 113.87L285.796 123.76L285.013 120.877L295.568 113.762L282.896 113.085ZM277.756 143.928C274.899 142.255 273.33 140.093 273.05 137.444C272.796 135.048 273.494 133.073 275.142 131.518C276.793 129.976 278.702 129.091 280.87 128.861C284.497 128.477 287.623 130.081 290.25 133.673C291.624 132.459 292.766 131.614 293.676 131.139C294.6 130.662 295.517 130.375 296.427 130.279C298.287 130.082 299.908 130.499 301.289 131.53C302.672 132.575 303.451 133.92 303.625 135.566C303.792 137.145 303.338 138.54 302.261 139.75C301.198 140.959 299.757 141.659 297.937 141.852C295.14 142.148 292.59 140.882 290.288 138.054L284.022 143.102C285.223 143.449 286.628 143.686 288.238 143.813L287.761 146.969C285.163 146.717 282.973 146.231 281.192 145.513C279.54 146.784 278.167 148.195 277.072 149.745L273.991 148.062C274.815 146.77 276.07 145.392 277.756 143.928ZM292.455 136.282C293.482 137.418 294.358 138.151 295.083 138.48C295.808 138.809 296.619 138.927 297.516 138.832C298.559 138.721 299.361 138.366 299.92 137.765C300.479 137.165 300.718 136.49 300.639 135.74C300.558 134.977 300.187 134.347 299.525 133.848C298.865 133.363 298.053 133.172 297.089 133.274C296.166 133.372 295.197 133.867 294.182 134.759L292.455 136.282ZM280.409 141.759L288.045 135.47C286.773 134.062 285.61 133.109 284.555 132.612C283.515 132.113 282.472 131.919 281.429 132.03C280.09 132.171 278.856 132.721 277.726 133.68C276.596 134.639 276.102 135.787 276.244 137.126C276.334 137.982 276.758 138.851 277.514 139.732C278.271 140.612 279.235 141.288 280.409 141.759ZM266.025 158.352C268.383 156.943 271.276 155.678 274.703 154.557C278.13 153.449 281.773 152.954 285.634 153.072C292.172 153.27 298.562 155.424 304.806 159.532L304.741 161.67C301.625 160.068 299.202 158.951 297.471 158.319C295.753 157.701 293.856 157.193 291.782 156.793C289.707 156.407 287.613 156.181 285.501 156.117C279.044 155.921 272.531 157.379 265.96 160.491L266.025 158.352ZM265.569 164.278L265.832 162.154C271.851 166.223 278.065 168.654 284.476 169.449C286.573 169.709 288.677 169.801 290.788 169.724C292.898 169.66 294.849 169.454 296.642 169.107C298.447 168.761 301.012 168.035 304.336 166.928L304.073 169.052C297.274 172.155 290.629 173.304 284.138 172.499C280.412 172.037 276.938 171.017 273.717 169.437C270.509 167.86 267.793 166.14 265.569 164.278ZM279.616 178.543L295.151 180.885L301.571 182.236L300.811 185.851L294.391 184.5L279.217 180.44L279.616 178.543ZM272.583 176.279L276.633 177.131L275.93 180.47L271.881 179.617L272.583 176.279ZM267.061 201.453C266.336 200.313 265.882 199.218 265.701 198.17C265.514 197.134 265.566 196.261 265.857 195.551C266.469 194.056 267.663 193.076 269.438 192.611C271.587 192.051 273.957 192.301 276.547 193.362C278.64 194.219 280.495 195.494 282.113 197.189C283.744 198.889 284.779 200.535 285.218 202.125C285.67 203.721 285.659 205.098 285.185 206.256C284.838 207.103 284.213 207.814 283.308 208.389C282.404 208.964 281.259 209.309 279.874 209.426L282.563 211.116L281.431 213.881L269.806 206.525C268.197 205.517 267.293 204.973 267.093 204.891C266.732 204.743 266.39 204.727 266.067 204.842C265.756 204.962 265.542 205.165 265.425 205.451C265.2 205.999 265.317 206.956 265.776 208.322C266.235 209.688 267.152 211.052 268.528 212.415C269.917 213.784 271.539 214.848 273.394 215.607C275.611 216.515 277.813 216.856 279.999 216.632C282.185 216.407 284.129 215.654 285.831 214.373C287.529 213.105 288.783 211.481 289.593 209.501C290.557 207.147 290.794 204.757 290.304 202.331C289.813 199.906 288.555 197.58 286.529 195.355C284.51 193.146 281.888 191.382 278.662 190.061C275.623 188.817 272.82 188.295 270.251 188.494C267.683 188.693 265.44 189.556 263.52 191.082C261.596 192.621 260.076 194.754 258.959 197.482C257.954 199.935 257.589 202.301 257.863 204.58C258.119 206.867 258.902 208.845 260.21 210.515L259.078 213.28C257.821 212.052 256.796 210.455 256.002 208.486C255.191 206.526 254.795 204.561 254.816 202.591C254.837 200.622 255.299 198.535 256.202 196.331C257.522 193.105 259.292 190.631 261.51 188.907C263.728 187.183 266.369 186.184 269.433 185.912C272.479 185.647 275.777 186.241 279.326 187.694C283.1 189.239 286.225 191.355 288.703 194.041C291.18 196.728 292.689 199.454 293.228 202.22C293.776 205.004 293.453 207.852 292.26 210.767C291.26 213.208 289.765 215.155 287.774 216.608C285.778 218.074 283.4 218.926 280.642 219.164C277.891 219.419 275.139 218.983 272.387 217.856C268.65 216.326 265.812 213.899 263.872 210.574C262.231 207.765 261.851 205.282 262.733 203.128C263.151 202.107 263.699 201.48 264.375 201.248C265.059 201.034 265.955 201.102 267.061 201.453ZM275.161 196.11C273.442 195.406 271.972 195.197 270.75 195.482C269.535 195.784 268.755 196.359 268.408 197.206C268.112 197.928 268.147 198.873 268.512 200.041C268.89 201.213 269.724 202.427 271.013 203.682C272.303 204.937 273.8 205.914 275.507 206.613C277.25 207.326 278.726 207.523 279.933 207.203C281.14 206.883 281.945 206.231 282.348 205.247C282.659 204.487 282.649 203.589 282.317 202.552C281.981 201.527 281.105 200.361 279.691 199.055C278.277 197.749 276.767 196.767 275.161 196.11ZM256.937 215.259L263.195 221.329L264.779 219.038L267.253 220.748L265.382 223.455L270.708 228.635L273.28 224.916L275.754 226.627L272.907 230.745L279.203 236.866L277.791 238.908L271.494 232.787L268.521 237.087L274.828 243.192L273.405 245.25L267.108 239.129L265.467 241.504L262.993 239.793L264.91 237.02L259.583 231.84L256.966 235.625L254.492 233.914L257.397 229.714L251.139 223.644L252.562 221.585L258.82 227.655L261.783 223.371L255.525 217.301L256.937 215.259ZM263.969 225.497L261.007 229.781L266.334 234.961L269.296 230.678L263.969 225.497Z" fill="#FFE100"/>
</svg>
