<svg width="896" height="349" viewBox="0 0 896 349" fill="none" xmlns="http://www.w3.org/2000/svg">
<g filter="url(#filter0_i_0_17)">
<path d="M503.688 0C572.391 5.59903e-05 632.393 25.2113 664.611 62.71C668.696 62.4412 672.825 62.3027 676.994 62.3027C751.412 62.3027 813.429 105.959 827.244 163.828C869.44 183.41 895.054 209.158 895.054 237.364C895.054 298.67 774.05 348.369 624.783 348.369C549.754 348.369 481.866 335.81 432.896 315.534C387.027 335.81 323.439 348.369 253.16 348.369C113.344 348.369 0 298.67 0 237.364C0.000161748 189.433 69.2837 148.597 166.334 133.061C174.415 84.4729 217.479 47.3848 269.394 47.3848C294.806 47.3848 318.099 56.2729 336.205 71.0459C366.333 28.9943 430.007 0 503.688 0Z" fill="white"/>
</g>
<defs>
<filter id="filter0_i_0_17" x="0" y="-18" width="946.054" height="366.369" filterUnits="userSpaceOnUse" color-interpolation-filters="sRGB">
<feFlood flood-opacity="0" result="BackgroundImageFix"/>
<feBlend mode="normal" in="SourceGraphic" in2="BackgroundImageFix" result="shape"/>
<feColorMatrix in="SourceAlpha" type="matrix" values="0 0 0 0 0 0 0 0 0 0 0 0 0 0 0 0 0 0 127 0" result="hardAlpha"/>
<feOffset dx="51" dy="-18"/>
<feGaussianBlur stdDeviation="38.45"/>
<feComposite in2="hardAlpha" operator="arithmetic" k2="-1" k3="1"/>
<feColorMatrix type="matrix" values="0 0 0 0 0.619231 0 0 0 0 0.619231 0 0 0 0 0.619231 0 0 0 1 0"/>
<feBlend mode="normal" in2="shape" result="effect1_innerShadow_0_17"/>
</filter>
</defs>
</svg>
