<svg width="364" height="428" viewBox="0 0 364 428" fill="none" xmlns="http://www.w3.org/2000/svg">
<path d="M50.4702 123.075C51.812 125.737 52.0342 127.914 51.1368 129.605C50.3676 131.054 49.0556 131.936 47.2009 132.252C45.3461 132.567 43.1025 132.027 40.4699 130.629C38.1151 129.379 36.1743 127.83 34.6474 125.983C33.1085 124.129 32.1882 122.363 31.8866 120.686C31.5849 119.009 31.745 117.585 32.3668 116.414C33.3988 114.47 35.3309 113.614 38.1631 113.849L28.7623 106.583L30.1853 103.902L54.327 122.545L53.0097 125.026L50.4702 123.075ZM41.2952 127.631L42.0645 128.062C43.6585 128.909 45.1582 129.233 46.5636 129.034C47.6499 128.884 48.4398 128.343 48.9333 127.413C49.5744 126.206 49.388 124.69 48.3743 122.868C47.0081 120.455 44.8215 118.451 41.8145 116.855C40.2688 116.034 38.8938 115.738 37.6895 115.965C36.4852 116.193 35.6363 116.772 35.1427 117.701C34.6619 118.607 34.6146 119.673 35.0006 120.9C35.3866 122.126 36.2605 123.411 37.6223 124.753C38.9841 126.095 40.2084 127.054 41.2952 127.631ZM57.616 103.718L59.5758 101.451C61.0638 103.038 61.9635 105.013 62.2748 107.376C62.5488 109.352 62.1766 111.101 61.1583 112.624C60.4363 113.704 59.4891 114.493 58.3167 114.992C57.1329 115.483 55.7866 115.603 54.2778 115.35C52.7576 115.09 51.1906 114.421 49.5768 113.342C47.4515 111.92 45.7344 110.196 44.4252 108.17C43.1237 106.132 42.44 104.252 42.3742 102.53C42.2971 100.801 42.7107 99.26 43.6151 97.9076C44.7626 96.1915 46.3509 95.2306 48.3799 95.025C50.4164 94.8079 52.628 95.4974 55.0147 97.0934C55.9011 97.6862 56.7685 98.3567 57.6168 99.1049L50.2981 110.049C50.639 110.327 50.9515 110.56 51.2356 110.75C52.9404 111.89 54.4526 112.433 55.7722 112.378C57.0805 112.315 58.0386 111.829 58.6466 110.92C59.2242 110.056 59.4438 108.978 59.3053 107.685C59.1745 106.38 58.6114 105.058 57.616 103.718ZM48.2192 108.067L53.7937 99.7308L53.163 99.309C51.5492 98.2298 50.126 97.7386 48.8935 97.8355C47.661 97.9323 46.7141 98.4751 46.0529 99.4639C45.3385 100.532 45.1357 101.819 45.4445 103.325C45.7609 104.82 46.6858 106.4 48.2192 108.067ZM66.7849 103.436L46.1428 80.9798L48.0112 78.5619L68.6533 101.018L66.7849 103.436ZM74.6221 82.8873L76.8794 80.9168C78.131 82.6962 78.7459 84.7775 78.724 87.1607C78.7192 89.1555 78.1062 90.8358 76.885 92.2014C76.0193 93.1696 74.9711 93.8188 73.7405 94.1489C72.4997 94.47 71.1499 94.4001 69.6911 93.9393C68.2222 93.4695 66.7641 92.5875 65.317 91.2934C63.4112 89.5892 61.9517 87.6422 60.9387 85.4524C59.9347 83.2524 59.5204 81.2955 59.6958 79.5816C59.861 77.8585 60.4859 76.3906 61.5704 75.1778C62.9465 73.6389 64.6535 72.9094 66.6913 72.9893C68.7382 73.0589 70.8317 74.0507 72.9719 75.9645C73.7669 76.6753 74.532 77.4605 75.2675 78.3199L66.4913 88.1342C66.7901 88.4564 67.0668 88.7315 67.3216 88.9593C68.8503 90.3263 70.2719 91.0748 71.5863 91.2047C72.8905 91.3255 73.9071 90.9783 74.6362 90.163C75.3288 89.3884 75.697 88.3512 75.7406 87.0513C75.7933 85.7412 75.4204 84.3532 74.6221 82.8873ZM64.7097 85.8809L71.3944 78.4054L70.8288 77.8996C69.3816 76.6055 68.041 75.9203 66.8071 75.844C65.5732 75.7676 64.5597 76.1728 63.7669 77.0595C62.9102 78.0175 62.5296 79.2636 62.6249 80.7978C62.7294 82.3218 63.4243 84.0161 64.7097 85.8809ZM86.9614 76.6174L88.6811 79.1746C88.3199 79.8444 87.893 80.4162 87.4003 80.8901C86.5824 81.6767 85.7236 82.0854 84.8237 82.1162C83.9337 82.1375 83.1381 81.7836 82.4368 81.0544C82.1051 80.7095 81.4505 79.812 80.4732 78.3619L73.254 67.7494L71.5246 69.4126L69.8891 67.0021L71.6185 65.3389L68.5733 60.8413L69.309 56.577L73.8208 63.2207L75.9641 61.1594L77.5996 63.5699L75.4563 65.6312L82.3082 75.7435C83.1919 77.037 83.7285 77.7824 83.9181 77.9794C84.2498 78.3243 84.5703 78.4998 84.8796 78.5058C85.1889 78.5118 85.5061 78.3585 85.8313 78.0457C86.3141 77.5813 86.6909 77.1052 86.9614 76.6174ZM95.9353 63.3957L98.4613 61.7837C99.4335 63.7299 99.7312 65.8797 99.3543 68.2329C99.0521 70.2047 98.1954 71.7748 96.7842 72.9431C95.7838 73.7714 94.6505 74.257 93.3844 74.4C92.1096 74.5324 90.7853 74.2621 89.4116 73.589C88.0291 72.9053 86.7189 71.8158 85.4808 70.3203C83.8505 68.351 82.6976 66.2082 82.0224 63.8918C81.3577 61.5668 81.2398 59.5699 81.6688 57.9013C82.0891 56.2222 82.9259 54.8638 84.1791 53.8263C85.7693 52.5098 87.5659 52.0429 89.569 52.4258C91.5827 52.7998 93.5049 54.0927 95.3359 56.3042C96.0159 57.1256 96.6555 58.0161 97.2546 58.9755L87.1131 67.3716C87.3605 67.7348 87.5932 68.048 87.8111 68.3113C89.1189 69.8909 90.413 70.843 91.6933 71.1675C92.9649 71.4814 94.022 71.2896 94.8645 70.5921C95.6648 69.9295 96.1835 68.9588 96.4204 67.6799C96.6679 66.3923 96.5062 64.9643 95.9353 63.3957ZM85.6874 64.8778L93.412 58.4827L92.9281 57.8982C91.6901 56.4027 90.4667 55.5253 89.2579 55.2658C88.0491 55.0064 86.9867 55.2559 86.0704 56.0144C85.0805 56.834 84.5183 58.0094 84.3838 59.5407C84.2599 61.0632 84.6944 62.8422 85.6874 64.8778ZM115.901 68.1911L114.247 65.1162C114.898 64.9764 115.475 64.7538 115.977 64.4484C116.503 64.1288 116.838 63.7329 116.983 63.2608C117.186 62.5937 117.209 61.5795 117.053 60.2181L116.769 57.8949L102.882 40.7773L105.44 39.2218L112.318 47.9288C113.695 49.6675 115.023 51.4043 116.302 53.139L114.009 34.0122L116.725 32.3609L119.816 59.3543C120.139 62.07 120.119 63.9705 119.755 65.0559C119.402 66.1342 118.782 66.9433 117.894 67.483C117.287 67.8524 116.622 68.0884 115.901 68.1911ZM123.774 44.1269C122.069 40.593 121.422 37.2238 121.834 34.0192C122.246 30.8147 123.788 28.5678 126.46 27.2785C128.332 26.3754 130.225 26.35 132.139 27.2024C134.047 28.0426 135.64 29.7863 136.917 32.4337C138.088 34.8594 138.715 37.2285 138.799 39.5411C138.895 41.8478 138.509 43.8022 137.643 45.4043C136.783 46.9882 135.627 48.1307 134.174 48.8318C132.265 49.7527 130.35 49.8114 128.429 49.0078C126.502 48.1919 124.951 46.5649 123.774 44.1269ZM126.366 42.4665C127.263 44.3258 128.31 45.5512 129.506 46.1429C130.702 46.7345 131.855 46.7629 132.963 46.2282C133.837 45.8063 134.542 45.0335 135.078 43.9098C135.607 42.7738 135.803 41.2295 135.666 39.2769C135.528 37.3243 135.043 35.4861 134.211 33.7623C133.308 31.8906 132.255 30.6529 131.053 30.0489C129.845 29.4327 128.699 29.386 127.616 29.9088C126.667 30.3664 125.913 31.1629 125.353 32.2985C124.805 33.4282 124.616 34.9542 124.784 36.8766C124.959 38.7808 125.486 40.6441 126.366 42.4665ZM153.878 35.9496C152.863 39.4563 151.301 41.5905 149.192 42.3521C147.97 42.7934 146.783 42.7277 145.632 42.1552C144.493 41.5781 143.675 40.6015 143.178 39.2256C142.862 38.3512 142.508 36.8075 142.116 34.5943L139.871 22.0391L142.725 21.008L145.218 34.9129C145.42 36.0755 145.628 36.9526 145.842 37.5441C146.134 38.3542 146.556 38.8995 147.108 39.1798C147.656 39.4473 148.289 39.451 149.009 39.191C150.025 38.824 150.888 38.0544 151.599 36.882C152.317 35.6922 152.687 34.4028 152.709 33.014C152.739 31.6077 152.554 29.8068 152.153 27.6111L150.479 18.2074L153.334 17.1764L157.222 38.9284L154.58 39.8828L153.878 35.9496ZM161.361 37.5347L159.288 15.5353L161.882 14.8351L162.309 19.3293C163.18 15.6815 164.486 13.6224 166.228 13.1521C166.822 12.9917 167.618 13.0531 168.615 13.3363L168.305 16.9886C167.669 16.6788 167.067 16.6005 166.5 16.7537C165.417 17.0459 164.527 18.0508 163.83 19.7685C163.142 21.4694 162.979 24.197 163.341 27.9511L164.153 36.7811L161.361 37.5347ZM180.926 6.62604L180.939 2.36112L183.932 1.85951L183.919 6.12442L180.926 6.62604ZM180.831 32.8629L180.913 10.7662L183.906 10.2646L183.824 32.3612L180.831 32.8629ZM199.738 27.4565C198.252 30.0415 196.557 31.4242 194.651 31.6046C193.018 31.7592 191.559 31.1488 190.275 29.7734C188.992 28.398 188.209 26.2267 187.929 23.2595C187.677 20.6053 187.903 18.1326 188.607 15.8413C189.309 13.5364 190.277 11.7968 191.512 10.6225C192.746 9.44818 194.024 8.79856 195.344 8.6736C197.536 8.46621 199.312 9.60955 200.674 12.1036L201.572 0.256399L204.594 -0.0295771L202.302 30.3861L199.505 30.6508L199.738 27.4565ZM190.887 22.2997L190.949 23.1796C191.119 24.9762 191.674 26.4069 192.612 27.4717C193.335 28.2959 194.221 28.6584 195.269 28.5592C196.63 28.4304 197.793 27.4414 198.758 25.5922C200.021 23.1243 200.493 20.1958 200.172 16.8067C200.007 15.0644 199.498 13.753 198.646 12.8724C197.794 11.9917 196.843 11.601 195.795 11.7002C194.775 11.7968 193.858 12.3436 193.046 13.3406C192.234 14.3375 191.642 15.7737 191.27 17.6491C190.899 19.5245 190.771 21.0747 190.887 22.2997ZM219.814 22.7391L222.786 23.1211C222.285 25.2381 221.135 27.0789 219.337 28.6434C217.841 29.9631 216.177 30.619 214.345 30.611C213.047 30.6054 211.865 30.2517 210.802 29.5498C209.739 28.8342 208.896 27.7778 208.273 26.3806C207.65 24.9697 207.343 23.2935 207.351 21.3521C207.362 18.7955 207.851 16.4119 208.818 14.2012C209.798 11.9906 210.988 10.3824 212.387 9.37676C213.785 8.35742 215.298 7.85127 216.925 7.85831C218.99 7.86724 220.668 8.66065 221.96 10.2385C223.266 11.8165 223.912 14.041 223.9 16.912C223.895 17.9784 223.815 19.0718 223.66 20.1923L210.494 20.1353C210.451 20.5726 210.429 20.9621 210.428 21.3039C210.419 23.3547 210.802 24.915 211.576 25.9847C212.351 27.0408 213.285 27.5713 214.379 27.576C215.418 27.5805 216.438 27.1679 217.44 26.3382C218.455 25.5086 219.247 24.3089 219.814 22.7391ZM210.999 17.3074L221.027 17.3508L221.03 16.592C221.039 14.6506 220.662 13.1929 219.901 12.2189C219.139 11.2449 218.164 10.7553 216.974 10.7501C215.689 10.7446 214.504 11.2863 213.419 12.3754C212.348 13.4645 211.541 15.1085 210.999 17.3074ZM225.355 30.2825L231.361 9.01764L234.094 9.30715L233.062 13.013C234.51 11.5441 235.79 10.5592 236.901 10.0583C238.014 9.54378 239.06 9.33838 240.039 9.44208C241.412 9.58755 242.471 10.1672 243.216 11.181C243.975 12.1963 244.264 13.5536 244.084 15.2531C244.004 16.0145 243.723 17.2358 243.242 18.9172L239.61 31.7927L236.571 31.4708L240.391 17.9965C240.765 16.675 240.985 15.6947 241.053 15.0557C241.132 14.3079 240.977 13.7003 240.586 13.2327C240.211 12.753 239.656 12.4743 238.922 12.3965C237.399 12.2352 235.955 12.7627 234.589 13.979C233.236 15.1968 232.098 17.441 231.174 20.7114L228.373 30.6023L225.355 30.2825ZM251.465 30.6532L250.394 33.5426C249.639 33.6408 248.926 33.6282 248.253 33.5051C247.137 33.3007 246.304 32.8423 245.753 32.1299C245.216 31.42 245.039 30.5675 245.221 29.5723C245.307 29.1016 245.653 28.0461 246.259 26.4058L250.656 14.3473L248.296 13.9151L249.298 11.1796L251.658 11.6118L253.53 6.51302L257.421 4.61943L254.663 12.1622L257.588 12.6978L256.587 15.4333L253.662 14.8977L249.456 26.3658C248.923 27.8386 248.631 28.7096 248.582 28.9785C248.496 29.4492 248.54 29.8118 248.716 30.0664C248.892 30.321 249.202 30.4889 249.646 30.5702C250.305 30.6908 250.911 30.7185 251.465 30.6532ZM262.894 9.79697L264.536 5.86093L267.494 6.54161L265.851 10.4776L262.894 9.79697ZM252.777 34.0052L261.299 13.6177L264.257 14.2984L255.735 34.6859L252.777 34.0052ZM267.571 34.6951L266.246 37.4774C265.486 37.5077 264.777 37.4316 264.118 37.2489C263.024 36.9457 262.235 36.4147 261.75 35.656C261.279 34.9009 261.178 34.0359 261.448 33.061C261.576 32.5999 262.015 31.5795 262.766 29.9999L268.222 18.3822L265.91 17.741L267.151 15.1058L269.463 15.747L271.783 10.8357L275.828 9.29712L272.408 16.5636L275.273 17.3582L274.032 19.9933L271.166 19.1987L265.954 30.2455C265.29 31.6648 264.922 32.5062 264.849 32.7697C264.721 33.2308 264.734 33.596 264.886 33.8653C265.038 34.1345 265.332 34.3294 265.767 34.45C266.412 34.629 267.014 34.7107 267.571 34.6951ZM264.786 45.7546L266.128 42.5317C266.648 42.9486 267.184 43.2555 267.738 43.4525C268.318 43.6586 268.837 43.669 269.294 43.4835C269.94 43.2196 270.741 42.5978 271.699 41.618L273.322 39.9315L277.839 18.357L280.66 19.3603L278.245 30.1898C277.765 32.3554 277.256 34.4814 276.717 36.5679L290.108 22.7207L293.103 23.7858L274.113 43.2164C272.21 45.1806 270.722 46.3639 269.65 46.7663C268.591 47.1733 267.573 47.2026 266.594 46.8545C265.924 46.6162 265.321 46.2496 264.786 45.7546ZM304.871 50.4941C302.208 51.8355 300.032 52.0574 298.341 51.1597C296.892 50.3903 296.01 49.0782 295.695 47.2234C295.379 45.3686 295.92 43.125 297.318 40.4927C298.568 38.1381 300.118 36.1975 301.965 34.6709C303.819 33.1323 305.585 32.2123 307.262 31.9108C308.939 31.6094 310.363 31.7697 311.535 32.3917C313.479 33.424 314.334 35.3562 314.099 38.1883L321.366 28.7886L324.047 30.2121L305.4 54.351L302.919 53.0333L304.871 50.4941ZM300.316 41.3184L299.884 42.0877C299.038 43.6816 298.714 45.1812 298.912 46.5867C299.063 47.6729 299.603 48.4629 300.533 48.9566C301.74 49.5978 303.255 49.4117 305.078 48.3983C307.491 47.0324 309.496 44.846 311.092 41.8394C311.913 40.2938 312.21 38.9188 311.982 37.7145C311.755 36.5101 311.176 35.6611 310.247 35.1674C309.341 34.6865 308.275 34.639 307.048 35.0248C305.822 35.4106 304.537 36.2844 303.195 37.6459C301.853 39.0075 300.893 40.2317 300.316 41.3184ZM324.226 57.6414L326.493 59.6014C324.905 61.0893 322.93 61.9887 320.567 62.2999C318.591 62.5737 316.842 62.2013 315.319 61.1828C314.24 60.4607 313.45 59.5134 312.952 58.341C312.461 57.1572 312.341 55.8109 312.594 54.3021C312.854 52.7819 313.524 51.215 314.603 49.6013C316.024 47.4762 317.749 45.7591 319.775 44.4502C321.814 43.1489 323.694 42.4654 325.415 42.3998C327.144 42.3227 328.685 42.7365 330.037 43.641C331.753 44.7888 332.714 46.3771 332.92 48.4061C333.137 50.4427 332.447 52.6542 330.851 55.0407C330.258 55.9271 329.587 56.7944 328.839 57.6427L317.895 50.3229C317.618 50.6638 317.384 50.9762 317.194 51.2603C316.054 52.965 315.511 54.4771 315.566 55.7968C315.629 57.1051 316.115 58.0633 317.024 58.6714C317.887 59.249 318.966 59.4687 320.259 59.3304C321.564 59.1996 322.886 58.6366 324.226 57.6414ZM319.878 48.2442L328.213 53.8195L328.635 53.1888C329.715 51.5751 330.206 50.152 330.109 48.9194C330.012 47.6869 329.47 46.74 328.481 46.0787C327.413 45.3643 326.126 45.1613 324.62 45.47C323.125 45.7862 321.545 46.711 319.878 48.2442ZM324.505 66.813L347.035 46.2513L349.446 48.1283L326.917 68.69L324.505 66.813ZM345.039 74.672L347.009 76.9299C345.229 78.181 343.148 78.7953 340.765 78.7728C338.77 78.7675 337.09 78.1541 335.724 76.9325C334.756 76.0665 334.107 75.0181 333.778 73.7874C333.457 72.5465 333.527 71.1968 333.988 69.7382C334.458 68.2693 335.341 66.8115 336.635 65.3647C338.34 63.4593 340.287 62.0004 342.477 60.9879C344.678 59.9845 346.635 59.5708 348.349 59.7466C350.072 59.9123 351.539 60.5375 352.752 61.6223C354.29 62.9989 355.019 64.706 354.939 66.7438C354.869 68.7907 353.877 70.884 351.962 73.0237C351.251 73.8184 350.466 74.5834 349.606 75.3186L339.794 66.5398C339.472 66.8385 339.197 67.1152 338.969 67.3699C337.601 68.8983 336.853 70.3197 336.722 71.634C336.601 72.9382 336.948 73.9549 337.763 74.6842C338.538 75.3771 339.575 75.7454 340.875 75.7894C342.185 75.8424 343.573 75.47 345.039 74.672ZM342.048 64.7589L349.522 71.4455L350.028 70.88C351.322 69.4332 352.008 68.0928 352.084 66.8589C352.161 65.625 351.756 64.6114 350.87 63.8183C349.912 62.9614 348.666 62.5804 347.132 62.6754C345.608 62.7795 343.913 63.4739 342.048 64.7589ZM351.306 87.0118L348.749 88.7311C348.079 88.3699 347.507 87.9429 347.033 87.4501C346.247 86.6321 345.838 85.7732 345.807 84.8734C345.786 83.9834 346.14 83.1878 346.87 82.4865C347.214 82.1549 348.112 81.5005 349.562 80.5233L360.176 73.3055L358.513 71.5759L360.923 69.9408L362.587 71.6703L367.084 68.6257L371.349 69.3621L364.704 73.873L366.765 76.0165L364.355 77.6517L362.294 75.5082L352.18 82.3587C350.887 83.2422 350.141 83.7788 349.944 83.9683C349.599 84.2999 349.424 84.6204 349.418 84.9297C349.412 85.239 349.565 85.5563 349.878 85.8815C350.342 86.3644 350.818 86.7412 351.306 87.0118ZM364.521 96.0027L366.13 98.5304C364.182 99.5005 362.032 99.7957 359.68 99.4161C357.708 99.1117 356.139 98.2532 354.972 96.8407C354.145 95.8394 353.661 94.7055 353.519 93.4393C353.388 92.1643 353.66 90.8404 354.335 89.4674C355.02 88.0857 356.111 86.7767 357.608 85.5403C359.579 83.9122 361.723 82.7618 364.04 82.0892C366.366 81.4271 368.363 81.3115 370.031 81.7424C371.71 82.1646 373.067 83.0028 374.103 84.2572C375.418 85.8489 375.883 87.6461 375.498 89.6488C375.121 91.662 373.826 93.5828 371.613 95.4112C370.791 96.0903 369.899 96.7289 368.939 97.3269L360.555 87.1759C360.191 87.4229 359.878 87.6552 359.614 87.8729C358.033 89.1789 357.08 90.4719 356.754 91.7519C356.438 93.0231 356.629 94.0804 357.325 94.9237C357.987 95.7248 358.957 96.2445 360.236 96.4829C361.523 96.7318 362.951 96.5717 364.521 96.0027ZM363.05 85.7531L369.436 93.4849L370.022 93.0017C371.518 91.7653 372.397 90.5429 372.658 89.3344C372.919 88.126 372.671 87.0632 371.913 86.1461C371.095 85.1553 369.92 84.5917 368.389 84.4555C366.866 84.3299 365.087 84.7624 363.05 85.7531ZM359.713 115.955L362.79 114.306C362.929 114.957 363.151 115.534 363.455 116.036C363.774 116.563 364.17 116.898 364.642 117.044C365.308 117.247 366.323 117.272 367.684 117.118L370.008 116.837L387.143 102.972L388.695 105.532L379.98 112.399C378.239 113.773 376.501 115.099 374.764 116.375L393.894 114.108L395.542 116.826L368.544 119.882C365.828 120.202 363.928 120.179 362.843 119.813C361.765 119.459 360.957 118.838 360.418 117.949C360.05 117.341 359.814 116.677 359.713 115.955ZM383.768 123.863C387.304 122.163 390.675 121.522 393.878 121.939C397.082 122.356 399.327 123.902 400.612 126.576C401.512 128.449 401.534 130.342 400.679 132.255C399.836 134.162 398.089 135.752 395.44 137.025C393.012 138.192 390.642 138.815 388.329 138.895C386.023 138.987 384.069 138.599 382.468 137.73C380.886 136.867 379.745 135.709 379.046 134.255C378.128 132.345 378.073 130.43 378.879 128.51C379.698 126.585 381.328 125.036 383.768 123.863ZM385.424 126.457C383.563 127.352 382.336 128.396 381.743 129.592C381.149 130.787 381.119 131.939 381.652 133.048C382.072 133.923 382.844 134.629 383.967 135.167C385.102 135.698 386.646 135.897 388.599 135.762C390.551 135.628 392.39 135.146 394.116 134.317C395.989 133.417 397.228 132.366 397.834 131.165C398.452 129.957 398.501 128.812 397.98 127.727C397.524 126.778 396.728 126.023 395.594 125.461C394.465 124.911 392.939 124.719 391.016 124.885C389.112 125.057 387.248 125.581 385.424 126.457ZM391.904 153.975C388.398 152.956 386.266 151.392 385.506 149.283C385.066 148.06 385.133 146.874 385.706 145.723C386.285 144.585 387.262 143.768 388.638 143.272C389.513 142.957 391.057 142.604 393.271 142.214L405.828 139.981L406.856 142.837L392.949 145.316C391.786 145.517 390.909 145.724 390.317 145.937C389.507 146.229 388.961 146.651 388.68 147.202C388.412 147.749 388.408 148.383 388.667 149.103C389.033 150.119 389.802 150.983 390.974 151.695C392.163 152.414 393.452 152.786 394.841 152.809C396.247 152.84 398.048 152.657 400.244 152.258L409.65 150.593L410.678 153.449L388.922 157.316L387.97 154.673L391.904 153.975ZM390.314 161.455L412.311 159.364L413.014 161.957L408.52 162.388C412.168 163.256 414.228 164.56 414.7 166.302C414.861 166.896 414.8 167.691 414.518 168.689L410.865 168.382C411.175 167.746 411.252 167.144 411.099 166.576C410.806 165.494 409.8 164.605 408.082 163.909C406.38 163.222 403.653 163.062 399.899 163.427L391.069 164.246L390.314 161.455ZM421.198 181.054L425.463 181.071L425.961 184.065L421.696 184.048L421.198 181.054ZM394.961 180.93L417.058 181.036L417.556 184.03L395.459 183.924L394.961 180.93ZM400.362 199.837C397.777 198.352 396.394 196.656 396.213 194.751C396.059 193.118 396.669 191.659 398.044 190.375C399.419 189.091 401.591 188.309 404.558 188.028C407.212 187.776 409.685 188.002 411.976 188.705C414.281 189.407 416.021 190.375 417.195 191.609C418.37 192.844 419.019 194.121 419.144 195.442C419.352 197.633 418.209 199.41 415.715 200.772L427.562 201.669L427.849 204.69L397.433 202.401L397.168 199.604L400.362 199.837ZM405.518 190.985L404.638 191.048C402.841 191.218 401.411 191.773 400.346 192.711C399.522 193.435 399.16 194.321 399.259 195.369C399.388 196.73 400.377 197.893 402.226 198.857C404.694 200.12 407.623 200.591 411.012 200.27C412.754 200.105 414.065 199.596 414.946 198.744C415.827 197.891 416.217 196.941 416.118 195.893C416.021 194.872 415.474 193.956 414.477 193.144C413.48 192.332 412.044 191.74 410.168 191.369C408.293 190.997 406.743 190.869 405.518 190.985ZM405.059 219.924L404.673 222.895C402.556 222.391 400.717 221.238 399.155 219.438C397.838 217.94 397.184 216.276 397.195 214.444C397.203 213.145 397.558 211.964 398.262 210.902C398.979 209.84 400.036 208.998 401.434 208.377C402.846 207.756 404.523 207.452 406.464 207.463C409.021 207.478 411.404 207.97 413.613 208.94C415.822 209.923 417.429 211.115 418.432 212.516C419.449 213.916 419.953 215.43 419.944 217.057C419.932 219.121 419.136 220.798 417.556 222.088C415.977 223.391 413.751 224.035 410.88 224.018C409.814 224.012 408.72 223.93 407.6 223.773L407.676 210.608C407.239 210.564 406.85 210.541 406.508 210.539C404.457 210.528 402.896 210.908 401.825 211.681C400.768 212.454 400.236 213.388 400.23 214.482C400.224 215.521 400.635 216.542 401.463 217.544C402.291 218.561 403.49 219.354 405.059 219.924ZM410.504 211.116L410.446 221.144L411.204 221.149C413.146 221.16 414.604 220.786 415.579 220.026C416.554 219.266 417.045 218.291 417.052 217.102C417.06 215.816 416.52 214.631 415.432 213.544C414.344 212.472 412.702 211.662 410.504 211.116ZM397.508 225.454L418.768 231.478L418.476 234.211L414.771 233.176C416.239 234.625 417.222 235.906 417.722 237.018C418.236 238.131 418.44 239.177 418.336 240.156C418.189 241.529 417.609 242.588 416.594 243.332C415.578 244.09 414.221 244.378 412.521 244.196C411.76 244.115 410.539 243.833 408.858 243.351L395.986 239.708L396.31 236.669L409.781 240.501C411.102 240.875 412.082 241.097 412.721 241.165C413.469 241.245 414.077 241.09 414.545 240.7C415.025 240.325 415.304 239.771 415.382 239.036C415.545 237.514 415.019 236.069 413.804 234.702C412.587 233.348 410.344 232.208 407.074 231.281L397.186 228.472L397.508 225.454ZM397.115 251.564L394.226 250.49C394.129 249.735 394.142 249.022 394.266 248.349C394.471 247.233 394.93 246.4 395.643 245.85C396.354 245.314 397.206 245.137 398.201 245.32C398.672 245.407 399.727 245.754 401.367 246.362L413.421 250.769L413.856 248.41L416.59 249.413L416.156 251.773L421.253 253.649L423.143 257.542L415.603 254.778L415.065 257.703L412.33 256.699L412.868 253.775L401.404 249.559C399.932 249.024 399.061 248.731 398.792 248.682C398.321 248.595 397.959 248.64 397.704 248.815C397.449 248.991 397.281 249.3 397.199 249.744C397.078 250.403 397.05 251.01 397.115 251.564ZM417.965 263.003L421.9 264.647L421.217 267.605L417.282 265.96L417.965 263.003ZM393.762 252.873L414.145 261.406L413.462 264.363L393.08 255.83L393.762 252.873ZM393.061 267.667L390.28 266.339C390.25 265.579 390.327 264.87 390.51 264.211C390.815 263.118 391.346 262.329 392.105 261.845C392.861 261.374 393.726 261.274 394.701 261.545C395.162 261.674 396.182 262.113 397.761 262.865L409.373 268.332L410.017 266.02L412.651 267.264L412.008 269.575L416.917 271.899L418.452 275.945L411.188 272.519L410.391 275.384L407.757 274.14L408.554 271.275L397.512 266.053C396.093 265.388 395.252 265.02 394.989 264.946C394.528 264.818 394.163 264.83 393.893 264.982C393.624 265.134 393.429 265.428 393.308 265.862C393.128 266.508 393.046 267.109 393.061 267.667ZM382.004 264.872L385.226 266.217C384.808 266.736 384.501 267.272 384.304 267.826C384.097 268.405 384.086 268.924 384.271 269.382C384.534 270.027 385.155 270.83 386.134 271.788L387.819 273.413L409.39 277.95L408.384 280.77L397.556 278.345C395.391 277.863 393.266 277.351 391.18 276.811L405.014 290.216L403.946 293.209L384.534 274.2C382.571 272.296 381.389 270.807 380.988 269.735C380.582 268.676 380.554 267.657 380.903 266.678C381.141 266.008 381.509 265.406 382.004 264.872ZM377.229 304.953C375.89 302.289 375.67 300.112 376.569 298.422C377.34 296.974 378.652 296.093 380.507 295.779C382.362 295.465 384.606 296.008 387.237 297.408C389.59 298.66 391.53 300.211 393.055 302.06C394.592 303.915 395.51 305.682 395.81 307.359C396.11 309.036 395.949 310.461 395.326 311.631C394.292 313.574 392.359 314.428 389.527 314.191L398.921 321.465L397.495 324.145L373.372 305.479L374.691 302.998L377.229 304.953ZM386.409 300.405L385.64 299.973C384.047 299.125 382.547 298.8 381.142 298.997C380.055 299.147 379.265 299.686 378.77 300.615C378.128 301.822 378.313 303.338 379.325 305.162C380.689 307.575 382.873 309.582 385.879 311.181C387.424 312.003 388.798 312.301 390.003 312.074C391.207 311.848 392.057 311.27 392.551 310.341C393.033 309.436 393.081 308.37 392.697 307.143C392.312 305.916 391.439 304.631 390.079 303.287C388.718 301.944 387.495 300.983 386.409 300.405ZM370.066 324.302L368.104 326.566C366.617 324.978 365.72 323.002 365.41 320.639C365.138 318.663 365.512 316.914 366.532 315.392C367.255 314.313 368.203 313.524 369.376 313.027C370.56 312.536 371.906 312.418 373.415 312.672C374.935 312.933 376.501 313.604 378.114 314.685C380.238 316.108 381.953 317.834 383.261 319.862C384.56 321.901 385.242 323.782 385.307 325.503C385.382 327.233 384.967 328.773 384.062 330.125C382.912 331.84 381.323 332.799 379.294 333.003C377.257 333.218 375.046 332.526 372.661 330.928C371.775 330.335 370.908 329.663 370.061 328.914L377.39 317.977C377.049 317.699 376.737 317.465 376.453 317.275C374.749 316.133 373.237 315.59 371.918 315.643C370.609 315.705 369.651 316.19 369.042 317.098C368.463 317.962 368.243 319.04 368.38 320.333C368.51 321.638 369.072 322.961 370.066 324.302ZM379.467 319.961L373.885 328.292L374.515 328.714C376.128 329.795 377.55 330.288 378.783 330.192C380.016 330.096 380.963 329.554 381.625 328.566C382.34 327.498 382.544 326.212 382.237 324.705C381.922 323.211 380.999 321.629 379.467 319.961ZM360.894 324.573L381.432 347.125L379.552 349.534L359.014 326.982L360.894 324.573ZM353.017 345.1L350.757 347.068C349.508 345.287 348.895 343.205 348.919 340.822C348.926 338.827 349.541 337.148 350.764 335.783C351.631 334.816 352.679 334.168 353.91 333.839C355.152 333.519 356.501 333.591 357.96 334.053C359.428 334.525 360.885 335.408 362.331 336.704C364.235 338.41 365.692 340.359 366.703 342.549C367.704 344.75 368.117 346.708 367.939 348.422C367.772 350.144 367.146 351.612 366.06 352.823C364.682 354.361 362.974 355.088 360.937 355.006C358.89 354.934 356.797 353.94 354.659 352.024C353.865 351.313 353.101 350.527 352.366 349.666L361.153 339.862C360.855 339.539 360.578 339.264 360.324 339.036C358.796 337.667 357.376 336.917 356.061 336.786C354.757 336.663 353.74 337.01 353.01 337.824C352.317 338.598 351.948 339.635 351.903 340.935C351.849 342.245 352.22 343.633 353.017 345.1ZM362.932 342.117L356.239 349.585L356.805 350.092C358.25 351.387 359.59 352.074 360.824 352.152C362.058 352.229 363.072 351.825 363.866 350.939C364.723 349.982 365.105 348.737 365.012 347.202C364.909 345.678 364.216 343.983 362.932 342.117ZM340.672 351.357L338.955 348.798C339.316 348.128 339.744 347.557 340.237 347.083C341.056 346.298 341.915 345.89 342.815 345.86C343.705 345.839 344.5 346.194 345.201 346.924C345.532 347.269 346.186 348.167 347.162 349.618L354.371 360.238L356.102 358.576L357.735 360.988L356.004 362.65L359.045 367.15L358.305 371.414L353.799 364.766L351.654 366.825L350.021 364.413L352.166 362.354L345.324 352.235C344.442 350.94 343.906 350.195 343.716 349.997C343.385 349.652 343.065 349.476 342.755 349.47C342.446 349.464 342.129 349.617 341.803 349.929C341.32 350.393 340.943 350.869 340.672 351.357ZM331.667 364.563L329.138 366.169C328.169 364.221 327.876 362.07 328.258 359.718C328.565 357.747 329.425 356.179 330.839 355.013C331.841 354.187 332.975 353.704 334.242 353.564C335.517 353.434 336.84 353.707 338.213 354.383C339.594 355.07 340.901 356.162 342.136 357.66C343.762 359.633 344.911 361.779 345.581 364.096C346.241 366.423 346.354 368.42 345.922 370.088C345.498 371.766 344.658 373.122 343.403 374.157C341.81 375.47 340.012 375.933 338.01 375.546C335.997 375.168 334.077 373.871 332.251 371.655C331.573 370.832 330.935 369.941 330.338 368.98L340.498 360.606C340.251 360.242 340.019 359.928 339.802 359.665C338.497 358.082 337.205 357.127 335.926 356.8C334.655 356.483 333.597 356.673 332.753 357.368C331.951 358.029 331.431 358.999 331.191 360.277C330.941 361.564 331.099 362.993 331.667 364.563ZM341.918 363.103L334.18 369.481L334.662 370.067C335.897 371.565 337.119 372.445 338.327 372.707C339.535 372.969 340.598 372.722 341.516 371.965C342.508 371.148 343.072 369.973 343.21 368.442C343.337 366.92 342.907 365.14 341.918 363.103ZM311.718 359.737L313.366 362.815C312.714 362.954 312.137 363.175 311.634 363.479C311.108 363.798 310.772 364.193 310.626 364.665C310.422 365.332 310.397 366.346 310.55 367.708L310.829 370.031L324.682 387.177L322.121 388.727L315.261 380.006C313.887 378.265 312.563 376.525 311.287 374.788L313.542 393.92L310.822 395.565L307.785 368.566C307.467 365.85 307.492 363.949 307.858 362.864C308.213 361.787 308.834 360.979 309.723 360.441C310.332 360.073 310.997 359.838 311.718 359.737ZM303.79 383.788C305.486 387.326 306.124 390.697 305.704 393.9C305.283 397.104 303.735 399.346 301.06 400.629C299.186 401.527 297.293 401.547 295.381 400.69C293.475 399.845 291.887 398.097 290.616 395.446C289.452 393.017 288.831 390.646 288.754 388.334C288.664 386.027 289.054 384.073 289.925 382.473C290.789 380.892 291.949 379.752 293.403 379.055C295.314 378.139 297.229 378.086 299.148 378.894C301.073 379.715 302.62 381.346 303.79 383.788ZM301.194 385.441C300.302 383.579 299.259 382.351 298.064 381.756C296.869 381.162 295.717 381.13 294.607 381.662C293.732 382.081 293.025 382.852 292.487 383.975C291.954 385.109 291.754 386.653 291.886 388.606C292.019 390.559 292.499 392.398 293.326 394.124C294.224 395.998 295.273 397.239 296.474 397.846C297.681 398.466 298.826 398.515 299.911 397.995C300.861 397.54 301.617 396.746 302.18 395.612C302.731 394.483 302.925 392.958 302.761 391.035C302.591 389.13 302.069 387.266 301.194 385.441ZM273.671 391.895C274.693 388.39 276.259 386.259 278.369 385.501C279.592 385.062 280.778 385.129 281.929 385.704C283.067 386.283 283.883 387.261 284.377 388.638C284.692 389.513 285.043 391.057 285.431 393.271L287.654 405.83L284.797 406.856L282.329 392.947C282.13 391.784 281.923 390.907 281.711 390.315C281.42 389.504 280.998 388.958 280.447 388.677C279.9 388.408 279.267 388.403 278.546 388.662C277.53 389.027 276.665 389.795 275.953 390.966C275.232 392.155 274.859 393.444 274.835 394.832C274.803 396.239 274.985 398.04 275.381 400.236L277.038 409.643L274.182 410.669L270.333 388.91L272.977 387.96L273.671 391.895ZM266.193 390.298L268.268 412.297L265.674 412.997L265.247 408.503C264.377 412.151 263.07 414.21 261.328 414.681C260.734 414.841 259.939 414.78 258.942 414.497L259.251 410.845C259.887 411.154 260.489 411.233 261.057 411.079C262.139 410.787 263.029 409.782 263.726 408.064C264.414 406.363 264.577 403.636 264.214 399.882L263.402 391.052L266.193 390.298ZM246.562 421.166L246.539 425.431L243.545 425.926L243.567 421.661L246.562 421.166ZM246.715 394.929L246.584 417.026L243.589 417.521L243.72 395.424L246.715 394.929ZM227.802 400.313C229.29 397.729 230.987 396.347 232.892 396.168C234.526 396.015 235.984 396.626 237.266 398.003C238.549 399.379 239.33 401.551 239.608 404.519C239.858 407.173 239.63 409.645 238.925 411.936C238.221 414.241 237.251 415.979 236.016 417.153C234.78 418.326 233.502 418.975 232.182 419.099C229.99 419.304 228.214 418.16 226.854 415.665L225.948 427.511L222.926 427.795L225.241 397.381L228.038 397.118L227.802 400.313ZM236.65 405.476L236.588 404.596C236.419 402.799 235.866 401.368 234.928 400.303C234.205 399.478 233.32 399.115 232.272 399.213C230.911 399.341 229.747 400.329 228.781 402.178C227.515 404.644 227.042 407.573 227.36 410.962C227.524 412.704 228.031 414.016 228.883 414.897C229.735 415.779 230.685 416.17 231.733 416.072C232.754 415.976 233.671 415.43 234.483 414.434C235.296 413.437 235.889 412.001 236.262 410.126C236.636 408.251 236.765 406.701 236.65 405.476ZM207.712 404.992L204.741 404.603C205.247 402.487 206.401 400.649 208.202 399.089C209.701 397.773 211.367 397.121 213.199 397.133C214.497 397.142 215.678 397.498 216.739 398.202C217.801 398.92 218.642 399.979 219.261 401.378C219.881 402.79 220.184 404.467 220.171 406.408C220.154 408.965 219.66 411.347 218.688 413.556C217.703 415.764 216.509 417.369 215.108 418.372C213.707 419.388 212.193 419.89 210.566 419.88C208.501 419.866 206.825 419.069 205.537 417.488C204.235 415.907 203.593 413.681 203.612 410.81C203.619 409.743 203.702 408.65 203.86 407.53L217.025 407.618C217.069 407.18 217.092 406.791 217.095 406.449C217.108 404.398 216.729 402.837 215.957 401.766C215.185 400.708 214.252 400.175 213.158 400.168C212.119 400.161 211.098 400.571 210.094 401.399C209.077 402.226 208.283 403.424 207.712 404.992ZM216.514 410.444L206.486 410.378L206.481 411.136C206.468 413.078 206.841 414.536 207.601 415.512C208.36 416.488 209.334 416.98 210.523 416.988C211.809 416.996 212.995 416.457 214.082 415.371C215.156 414.284 215.967 412.642 216.514 410.444ZM202.188 397.436L196.145 418.691L193.413 418.397L194.451 414.693C193.001 416.159 191.719 417.142 190.607 417.641C189.493 418.153 188.446 418.357 187.468 418.252C186.095 418.104 185.037 417.522 184.294 416.507C183.537 415.491 183.25 414.133 183.433 412.434C183.515 411.672 183.797 410.451 184.281 408.771L187.936 395.902L190.974 396.229L187.131 409.697C186.755 411.017 186.532 411.997 186.464 412.636C186.383 413.384 186.538 413.992 186.927 414.46C187.302 414.94 187.856 415.22 188.59 415.299C190.113 415.463 191.558 414.938 192.926 413.724C194.281 412.509 195.423 410.266 196.353 406.997L199.171 397.111L202.188 397.436ZM176.079 397.02L177.155 394.133C177.91 394.036 178.623 394.05 179.296 394.174C180.411 394.381 181.244 394.84 181.793 395.554C182.329 396.265 182.505 397.118 182.321 398.112C182.234 398.583 181.886 399.638 181.277 401.277L176.859 413.328L179.218 413.764L178.212 416.498L175.853 416.062L173.972 421.157L170.078 423.044L172.848 415.506L169.924 414.965L170.93 412.231L173.854 412.772L178.08 401.311C178.616 399.839 178.909 398.969 178.959 398.7C179.046 398.23 179.002 397.867 178.827 397.612C178.651 397.357 178.342 397.189 177.898 397.107C177.239 396.985 176.633 396.956 176.079 397.02ZM164.629 417.864L162.983 421.798L160.026 421.114L161.672 417.18L164.629 417.864ZM174.773 393.667L166.228 414.045L163.271 413.361L171.816 392.983L174.773 393.667ZM159.979 392.955L161.309 390.175C162.069 390.146 162.779 390.223 163.437 390.407C164.53 390.712 165.318 391.245 165.802 392.004C166.272 392.76 166.371 393.625 166.099 394.6C165.97 395.061 165.53 396.08 164.777 397.659L159.3 409.267L161.611 409.912L160.365 412.545L158.054 411.9L155.726 416.807L151.678 418.339L155.111 411.078L152.247 410.278L153.493 407.645L156.357 408.445L161.589 397.407C162.255 395.989 162.624 395.148 162.698 394.885C162.827 394.424 162.815 394.059 162.663 393.79C162.511 393.52 162.218 393.325 161.783 393.203C161.138 393.023 160.537 392.94 159.979 392.955ZM162.784 381.901L161.436 385.121C160.917 384.703 160.381 384.395 159.828 384.197C159.249 383.99 158.73 383.979 158.272 384.163C157.626 384.426 156.823 385.046 155.864 386.024L154.238 387.708L149.68 409.274L146.861 408.265L149.296 397.44C149.78 395.275 150.294 393.15 150.837 391.065L137.419 404.887L134.426 403.816L153.453 384.421C155.36 382.461 156.849 381.28 157.922 380.88C158.982 380.475 160.001 380.447 160.979 380.797C161.648 381.037 162.25 381.405 162.784 381.901ZM122.707 377.09C125.372 375.753 127.549 375.535 129.238 376.435C130.686 377.207 131.566 378.521 131.878 380.376C132.19 382.231 131.646 384.474 130.243 387.104C128.989 389.457 127.437 391.395 125.587 392.918C123.73 394.454 121.963 395.371 120.285 395.669C118.608 395.968 117.184 395.805 116.013 395.181C114.071 394.146 113.219 392.212 113.459 389.38L106.176 398.768L103.498 397.34L122.184 373.232L124.663 374.554L122.707 377.09ZM127.247 386.273L127.68 385.505C128.529 383.912 128.855 382.413 128.66 381.007C128.511 379.921 127.972 379.13 127.043 378.635C125.836 377.992 124.321 378.175 122.496 379.185C120.081 380.547 118.073 382.73 116.472 385.734C115.648 387.279 115.349 388.653 115.575 389.858C115.8 391.063 116.377 391.912 117.306 392.408C118.211 392.89 119.277 392.939 120.504 392.556C121.731 392.172 123.017 391.3 124.362 389.941C125.706 388.582 126.668 387.359 127.247 386.273ZM103.364 369.91L101.101 367.946C102.691 366.461 104.667 365.565 107.03 365.258C109.007 364.987 110.756 365.363 112.277 366.384C113.355 367.108 114.143 368.056 114.639 369.229C115.129 370.414 115.246 371.761 114.991 373.269C114.728 374.789 114.055 376.354 112.973 377.966C111.548 380.089 109.821 381.803 107.792 383.109C105.752 384.407 103.871 385.087 102.149 385.15C100.42 385.224 98.8796 384.807 97.5288 383.9C95.8147 382.75 94.8567 381.16 94.6546 379.131C94.4412 377.094 95.1346 374.883 96.7349 372.499C97.3293 371.614 98.0013 370.748 98.7511 369.901L109.682 377.239C109.96 376.899 110.194 376.587 110.385 376.303C111.528 374.6 112.073 373.089 112.021 371.769C111.96 370.461 111.476 369.502 110.568 368.892C109.705 368.313 108.627 368.092 107.334 368.228C106.029 368.356 104.706 368.917 103.364 369.91ZM107.696 379.315L99.3701 373.725L98.9472 374.355C97.8651 375.967 97.3714 377.389 97.4661 378.622C97.5607 379.855 98.1018 380.802 99.0894 381.465C100.156 382.182 101.443 382.387 102.949 382.081C104.444 381.767 106.027 380.845 107.696 379.315ZM103.1 360.738L80.5296 381.254L78.1221 379.373L100.693 358.856L103.1 360.738ZM82.5807 352.843L80.6145 350.582C82.3963 349.334 84.4788 348.723 86.8618 348.749C88.8567 348.758 90.5358 349.374 91.8991 350.598C92.8657 351.465 93.5128 352.515 93.8407 353.746C94.1593 354.987 94.0869 356.337 93.6234 357.795C93.1507 359.263 92.266 360.719 90.9691 362.164C89.2613 364.067 87.3115 365.522 85.1198 366.531C82.918 367.531 80.9602 367.942 79.2467 367.763C77.5239 367.595 76.0572 366.967 74.8465 365.88C73.3102 364.501 72.5839 362.793 72.6676 360.755C72.7412 358.708 73.7369 356.617 75.6548 354.48C76.3671 353.687 77.1537 352.923 78.0145 352.189L87.8122 360.984C88.135 360.686 88.4105 360.409 88.6388 360.155C90.0088 358.629 90.7599 357.209 90.8923 355.895C91.0156 354.591 90.6703 353.573 89.8564 352.843C89.0832 352.149 88.0466 351.779 86.7468 351.733C85.4368 351.677 84.0482 352.048 82.5807 352.843ZM85.5555 362.761L78.0927 356.062L77.5859 356.627C76.289 358.072 75.6012 359.411 75.5226 360.645C75.4439 361.879 75.8471 362.893 76.7323 363.687C77.6887 364.546 78.934 364.929 80.4684 364.836C81.9926 364.735 83.6883 364.043 85.5555 362.761ZM76.3339 340.493L78.8942 338.778C79.5634 339.14 80.1344 339.568 80.6074 340.062C81.3925 340.881 81.7997 341.74 81.8289 342.64C81.8486 343.53 81.4933 344.325 80.7628 345.025C80.4173 345.356 79.5186 346.009 78.0668 346.984L67.4412 354.184L69.1013 355.916L66.6879 357.548L65.0277 355.815L60.5247 358.852L56.2617 358.109L62.9135 353.609L60.8561 351.462L63.2696 349.831L65.327 351.978L75.4516 345.144C76.7468 344.263 77.4931 343.728 77.6905 343.538C78.036 343.207 78.212 342.887 78.2186 342.578C78.2252 342.269 78.0724 341.951 77.7602 341.625C77.2967 341.142 76.8213 340.764 76.3339 340.493ZM63.1365 331.474L61.5326 328.943C63.4819 327.977 65.6325 327.686 67.9845 328.07C69.9554 328.379 71.5228 329.241 72.6866 330.655C73.5117 331.659 73.9937 332.793 74.1326 334.06C74.261 335.335 73.9865 336.659 73.309 338.03C72.621 339.41 71.5273 340.717 70.0279 341.95C68.0534 343.575 65.9069 344.721 63.5884 345.388C61.2613 346.046 59.2641 346.157 57.5968 345.723C55.919 345.297 54.5634 344.456 53.5298 343.2C52.2184 341.605 51.7572 339.807 52.1464 337.805C52.5269 335.793 53.8258 333.875 56.0431 332.051C56.8667 331.374 57.7592 330.737 58.7206 330.141L67.0844 340.309C67.4483 340.063 67.7623 339.831 68.0262 339.614C69.6101 338.311 70.5662 337.02 70.8948 335.741C71.2127 334.47 71.0243 333.412 70.3295 332.568C69.6694 331.765 68.7003 331.244 67.4222 331.003C66.1354 330.751 64.7069 330.908 63.1365 331.474ZM64.586 341.727L58.2155 333.982L57.6295 334.464C56.1301 335.697 55.2488 336.918 54.9855 338.126C54.7222 339.334 54.9683 340.397 55.7239 341.315C56.5403 342.308 57.714 342.874 59.2448 343.013C60.7669 343.142 62.5474 342.713 64.586 341.727ZM67.9801 311.53L64.9007 313.175C64.7627 312.523 64.5417 311.946 64.2376 311.443C63.9195 310.916 63.5245 310.58 63.0528 310.433C62.3863 310.229 61.3721 310.203 60.0103 310.355L57.6863 310.633L40.5306 324.473L38.9822 321.91L47.708 315.057C49.4506 313.684 51.191 312.361 52.9291 311.087L33.7961 313.327L32.1523 310.606L59.1541 307.59C61.8707 307.274 63.7711 307.3 64.8555 307.667C65.9329 308.022 66.7402 308.645 67.2775 309.534C67.6452 310.143 67.8794 310.808 67.9801 311.53ZM43.9352 303.582C40.3952 305.274 37.0236 305.909 33.8206 305.485C30.6177 305.061 28.3763 303.511 27.0967 300.835C26.2004 298.96 26.1819 297.067 27.0412 295.156C27.8883 293.25 29.6378 291.664 32.2897 290.396C34.7197 289.234 37.0911 288.616 39.404 288.541C41.711 288.453 43.6639 288.845 45.2629 289.718C46.8437 290.583 47.982 291.744 48.6778 293.199C49.5918 295.111 49.6436 297.026 48.833 298.944C48.0101 300.868 46.3775 302.414 43.9352 303.582ZM42.2842 300.984C44.1468 300.094 45.376 299.051 45.972 297.857C46.5679 296.663 46.6006 295.511 46.0698 294.401C45.6511 293.525 44.8809 292.817 43.7592 292.278C42.6251 291.744 41.0815 291.542 39.1284 291.673C37.1754 291.803 35.3354 292.282 33.6085 293.107C31.7336 294.003 30.4921 295.052 29.8838 296.252C29.2631 297.458 29.2123 298.603 29.7312 299.689C30.1853 300.639 30.9791 301.396 32.1127 301.96C33.2403 302.512 34.7657 302.707 36.6887 302.545C38.5935 302.377 40.4587 301.857 42.2842 300.984ZM35.856 273.456C39.36 274.481 41.4901 276.048 42.2461 278.159C42.6841 279.382 42.6153 280.569 42.0398 281.719C41.4596 282.856 40.4809 283.671 39.1037 284.165C38.2285 284.478 36.6838 284.828 34.4696 285.214L21.9085 287.427L20.885 284.569L34.7964 282.113C35.9596 281.914 36.8372 281.709 37.4293 281.497C38.2401 281.206 38.7865 280.785 39.0683 280.234C39.3373 279.688 39.3427 279.054 39.0845 278.333C38.7203 277.317 37.9529 276.451 36.7824 275.738C35.5945 275.016 34.3061 274.643 32.9174 274.617C31.5112 274.584 29.7097 274.764 27.513 275.159L18.1049 276.808L17.0814 273.95L38.8437 270.12L39.7911 272.765L35.856 273.456ZM37.459 265.979L15.4584 268.038L14.7598 265.444L19.2543 265.019C15.607 264.147 13.5487 262.839 13.0795 261.096C12.9195 260.502 12.9814 259.707 13.2652 258.71L16.9173 259.022C16.6071 259.658 16.5284 260.26 16.6813 260.827C16.9728 261.91 17.9772 262.8 19.6944 263.499C21.3949 264.188 24.1224 264.353 27.8768 263.993L36.7072 263.187L37.459 265.979ZM6.60695 246.314L2.3421 246.287L1.85045 243.292L6.1153 243.319L6.60695 246.314ZM32.8433 246.497L10.7471 246.341L10.2554 243.346L32.3517 243.501L32.8433 246.497ZM27.4782 227.58C30.0608 229.07 31.4408 230.767 31.618 232.673C31.7699 234.307 31.1572 235.764 29.7797 237.046C28.4022 238.327 26.2296 239.106 23.262 239.382C20.6074 239.629 18.1351 239.399 15.8449 238.692C13.5411 237.986 11.8031 237.015 10.6308 235.779C9.45854 234.542 8.811 233.263 8.68819 231.943C8.48435 229.751 9.63058 227.976 12.1269 226.618L0.28111 225.701L4.25406e-05 222.679L30.412 225.021L30.6722 227.818L27.4782 227.58ZM22.3071 236.423L23.187 236.361C24.9839 236.194 26.4155 235.642 27.4818 234.706C28.3072 233.984 28.6711 233.098 28.5736 232.05C28.447 230.689 27.4599 229.524 25.6123 228.556C23.1465 227.289 20.2187 226.813 16.8291 227.128C15.0866 227.29 13.7743 227.797 12.8923 228.648C12.0103 229.499 11.618 230.448 11.7155 231.497C11.8105 232.518 12.3558 233.435 13.3514 234.249C14.3471 235.062 15.7823 235.656 17.6571 236.031C19.5319 236.406 21.0819 236.537 22.3071 236.423ZM22.811 207.488L23.2015 204.517C25.317 205.024 27.1545 206.179 28.7139 207.981C30.0293 209.481 30.6805 211.147 30.6673 212.979C30.658 214.278 30.3009 215.458 29.596 216.519C28.8774 217.58 27.8186 218.42 26.4196 219.039C25.0069 219.658 23.3299 219.96 21.3885 219.946C18.832 219.928 16.4497 219.433 14.2418 218.46C12.034 217.473 10.4292 216.279 9.42755 214.877C8.41219 213.475 7.91035 211.961 7.92203 210.334C7.93685 208.27 8.73503 206.594 10.3166 205.306C11.8982 204.005 14.1246 203.365 16.9956 203.385C18.062 203.393 19.1551 203.476 20.2751 203.634L20.1806 216.8C20.6178 216.844 21.0073 216.868 21.3491 216.87C23.3998 216.885 24.9612 216.506 26.0331 215.735C27.0914 214.963 27.6245 214.03 27.6324 212.936C27.6398 211.897 27.2302 210.876 26.4034 209.872C25.5767 208.854 24.3792 208.059 22.811 207.488ZM17.3541 216.288L17.4261 206.259L16.6674 206.254C14.726 206.24 13.2672 206.612 12.2911 207.371C11.3149 208.13 10.8225 209.104 10.814 210.293C10.8048 211.578 11.3431 212.765 12.4291 213.853C13.5152 214.927 15.1569 215.739 17.3541 216.288ZM30.3703 201.968L9.12351 195.898L9.42119 193.166L13.1239 194.209C11.6594 192.757 10.6783 191.474 10.1807 190.361C9.66954 189.246 9.46727 188.2 9.5739 187.221C9.72348 185.848 10.3063 184.791 11.3223 184.049C12.3398 183.294 13.6981 183.008 15.397 183.194C16.1581 183.276 17.3786 183.561 19.0586 184.046L31.9231 187.717L31.5922 190.755L18.1293 186.895C16.8089 186.517 15.8293 186.294 15.1905 186.224C14.443 186.143 13.8349 186.296 13.3662 186.685C12.8853 187.059 12.6049 187.613 12.5249 188.347C12.3591 189.87 12.8823 191.316 14.0945 192.685C15.3083 194.042 17.549 195.187 20.8167 196.12L30.6991 198.951L30.3703 201.968ZM30.8202 175.858L33.7063 176.939C33.8021 177.693 33.7873 178.407 33.6621 179.079C33.4542 180.194 32.9932 181.026 32.2791 181.575C31.5675 182.11 30.7144 182.285 29.7198 182.099C29.2494 182.012 28.195 181.662 26.5566 181.051L14.5119 176.616L14.0723 178.975L11.34 177.965L11.7795 175.606L6.68659 173.719L4.80514 169.822L12.3393 172.602L12.884 169.679L15.6163 170.689L15.0716 173.612L26.5266 177.854C27.9978 178.392 28.8678 178.686 29.1366 178.736C29.607 178.824 29.9698 178.78 30.2249 178.605C30.48 178.43 30.6489 178.121 30.7315 177.678C30.8542 177.019 30.8838 176.413 30.8202 175.858ZM9.96608 164.437L6.03021 162.795L6.71121 159.837L10.6471 161.48L9.96608 164.437ZM34.1732 174.556L13.7866 166.032L14.4676 163.075L34.8542 171.599L34.1732 174.556ZM34.8939 159.76L37.6716 161.095C37.6994 161.855 37.6207 162.564 37.4358 163.222C37.1288 164.315 36.5951 165.102 35.8348 165.584C35.0781 166.053 34.2128 166.151 33.2388 165.877C32.7781 165.748 31.7592 165.305 30.1822 164.55L18.5833 159.053L17.9342 161.363L15.3033 160.113L15.9524 157.803L11.0492 155.466L9.52447 151.417L16.7791 154.861L17.5836 151.998L20.2145 153.249L19.41 156.112L30.4388 161.363C31.8558 162.031 32.6959 162.402 32.9592 162.476C33.4199 162.605 33.7851 162.594 34.0548 162.443C34.3246 162.291 34.5205 161.998 34.6426 161.564C34.8238 160.919 34.9076 160.318 34.8939 159.76ZM45.942 162.588L42.7246 161.233C43.1435 160.715 43.4527 160.18 43.6519 159.627C43.8604 159.048 43.8729 158.529 43.6893 158.071C43.4281 157.425 42.8095 156.62 41.8337 155.659L40.1538 154.029L18.5979 149.424L19.6128 146.607L30.4324 149.066C32.5959 149.555 34.7198 150.073 36.8041 150.62L23.0118 137.172L24.0892 134.181L43.442 153.252C45.3983 155.163 46.5755 156.655 46.9735 157.728C47.3762 158.789 47.4014 159.808 47.0492 160.785C46.8082 161.454 46.4392 162.055 45.942 162.588Z" fill="#FFE100"/>
</svg>
