<svg width="202" height="209" viewBox="0 0 202 209" fill="none" xmlns="http://www.w3.org/2000/svg">
<path d="M33.0416 58.9354C34.1845 61.6893 34.2464 63.8763 33.2274 65.4966C32.3539 66.8853 30.9807 67.6691 29.1078 67.8478C27.2349 68.0266 25.037 67.3225 22.514 65.7357C20.2573 64.3163 18.4353 62.6293 17.0482 60.6748C15.6494 58.7129 14.8612 56.8846 14.6834 55.19C14.5056 53.4953 14.7697 52.0867 15.4758 50.9641C16.6477 49.1009 18.6373 48.3899 21.4446 48.8311L12.6023 40.8955L14.2182 38.3262L36.927 58.6899L35.4312 61.0682L33.0416 58.9354ZM23.5571 62.8062L24.2926 63.293C25.8203 64.2539 27.2922 64.687 28.7084 64.5925C29.8027 64.5217 30.6301 64.0407 31.1906 63.1496C31.9185 61.9923 31.8439 60.4675 30.9667 58.5752C29.7811 56.069 27.7474 53.9097 24.8657 52.0972C23.3843 51.1655 22.0348 50.769 20.817 50.9075C19.5993 51.0461 18.7102 51.561 18.1497 52.4521C17.6038 53.3201 17.4783 54.3798 17.7733 55.6313C18.0683 56.8829 18.8456 58.2278 20.1053 59.6661C21.3649 61.1044 22.5155 62.1511 23.5571 62.8062ZM43.8456 40.7883L46.2533 39.0046C47.3585 40.8785 47.805 43.0023 47.5926 45.3761C47.4282 47.3642 46.6828 48.99 45.3563 50.2536C44.4158 51.1494 43.3191 51.7127 42.066 51.9434C40.8035 52.1641 39.4636 51.9865 38.0464 51.4106C36.6198 50.8247 35.2369 49.8289 33.8979 48.4232C32.1345 46.572 30.8355 44.5145 30.0008 42.2507C29.176 39.9775 28.9196 37.9937 29.2315 36.2993C29.534 34.595 30.2743 33.1818 31.4523 32.0596C32.9471 30.6357 34.707 30.045 36.7318 30.2876C38.7666 30.5208 40.7741 31.6768 42.7544 33.7557C43.4899 34.5278 44.1899 35.3717 44.8542 36.2871L35.3211 45.3681C35.5932 45.7132 35.8471 46.0094 36.0828 46.2569C37.4973 47.7418 38.8544 48.6016 40.1542 48.8363C41.4446 49.061 42.4858 48.7962 43.2777 48.0418C44.0301 47.3251 44.48 46.3207 44.6274 45.0284C44.7847 43.7268 44.5241 42.3134 43.8456 40.7883ZM33.7255 42.9794L40.9867 36.0626L40.4634 35.5132C39.1243 34.1075 37.8429 33.3173 36.619 33.1425C35.3951 32.9677 34.3525 33.2905 33.4913 34.1109C32.5607 34.9973 32.0816 36.209 32.054 37.7459C32.0362 39.2733 32.5934 41.0179 33.7255 42.9794ZM52.8806 42.6179L40.4146 14.7797L42.9527 13.0781L55.4187 40.9163L52.8806 42.6179ZM68.1583 26.574L71.0273 25.7093C71.434 27.8465 71.1361 29.9962 70.1337 32.1584C69.307 33.9739 68.0558 35.252 66.3802 35.9927C65.1923 36.5179 63.9697 36.6772 62.7124 36.4707C61.4496 36.2516 60.2487 35.6315 59.1096 34.6103C57.965 33.5766 57.0002 32.172 56.2153 30.3964C55.1815 28.058 54.6546 25.6825 54.6343 23.2698C54.6266 20.8516 55.056 18.8979 55.9223 17.4087C56.7832 15.9071 57.9576 14.8273 59.4457 14.1695C61.3339 13.3347 63.1898 13.3738 65.0134 14.2867C66.8495 15.194 68.3481 16.9606 69.5089 19.5866C69.9401 20.5619 70.3136 21.5927 70.6293 22.6789L58.5875 28.0023C58.7269 28.419 58.8657 28.7837 59.0039 29.0963C59.8331 30.972 60.8197 32.2399 61.9636 32.9002C63.102 33.5479 64.1714 33.6507 65.1717 33.2085C66.1221 32.7883 66.8851 31.9951 67.4607 30.8288C68.0488 29.6569 68.2813 28.2387 68.1583 26.574ZM57.8934 25.2149L67.0654 21.1601L66.7586 20.4661C65.9736 18.6905 65.0348 17.5135 63.9421 16.9353C62.8493 16.357 61.759 16.3084 60.6711 16.7893C59.4957 17.3089 58.6352 18.2873 58.0896 19.7243C57.5565 21.1559 57.4911 22.986 57.8934 25.2149ZM82.5352 26.7618L82.7032 29.8388C82.0501 30.2293 81.3906 30.5019 80.7247 30.6567C79.6195 30.9137 78.6724 30.8251 77.8837 30.3909C77.1083 29.9536 76.606 29.2422 76.3769 28.2567C76.2685 27.7907 76.1658 26.6846 76.0686 24.9386L75.3005 12.1263L72.9635 12.6697L72.7927 9.76175L75.1298 9.21838L74.8165 3.79591L77.6318 0.509525L78.106 8.5264L81.0024 7.853L81.1732 10.761L78.2768 11.4344L78.9855 23.6288C79.0823 25.1924 79.1617 26.1074 79.2236 26.3737C79.332 26.8398 79.5175 27.1546 79.7801 27.3181C80.0427 27.4816 80.3937 27.5123 80.8332 27.4102C81.4857 27.2584 82.053 27.0423 82.5352 26.7618ZM97.9752 21.4816L100.962 21.7201C100.563 23.8587 99.5037 25.7527 97.7833 27.4019C96.3526 28.7921 94.7221 29.5273 92.8918 29.6076C91.5942 29.6645 90.3975 29.368 89.3015 28.7181C88.205 28.0546 87.312 27.04 86.6226 25.6744C85.9326 24.2951 85.5451 22.6357 85.4601 20.6961C85.348 18.1419 85.7216 15.7375 86.5806 13.4829C87.4534 11.2276 88.5642 9.56408 89.913 8.49224C91.2613 7.40673 92.7481 6.82834 94.3735 6.75706C96.436 6.66661 98.1505 7.37831 99.5169 8.89216C100.897 10.4054 101.65 12.5962 101.776 15.4645C101.823 16.5299 101.795 17.6259 101.694 18.7525L88.5408 19.3294C88.519 19.7682 88.5156 20.1584 88.5306 20.4999C88.6204 22.5487 89.078 24.0887 89.9033 25.12C90.7279 26.1375 91.6866 26.6224 92.7793 26.5744C93.8174 26.5289 94.8167 26.0677 95.7772 25.1908C96.7515 24.3133 97.4841 23.0769 97.9752 21.4816ZM88.9086 16.4804L98.9272 16.0411L98.894 15.283C98.8089 13.3435 98.3627 11.9056 97.5553 10.9694C96.7479 10.0331 95.75 9.59107 94.5617 9.64319C93.2778 9.69949 92.1202 10.2977 91.0891 11.4377C90.0717 12.5771 89.3448 14.258 88.9086 16.4804ZM109.129 37.9297L110.382 34.6711C110.913 35.0735 111.458 35.3656 112.017 35.5473C112.602 35.7375 113.121 35.7336 113.573 35.5356C114.211 35.2541 114.995 34.6105 115.926 33.6048L117.502 31.8743L121.425 10.1839L124.272 11.1094L122.155 22.0012C121.735 24.1791 121.284 26.3183 120.803 28.4188L133.809 14.209L136.832 15.1916L118.382 35.1363C116.534 37.152 115.08 38.3757 114.019 38.8074C112.972 39.2433 111.954 39.3006 110.966 38.9795C110.29 38.7597 109.678 38.4098 109.129 37.9297ZM133.392 28.9385C135.444 25.5939 137.93 23.229 140.848 21.8439C143.767 20.4587 146.491 20.5419 149.02 22.0933C150.791 23.18 151.836 24.759 152.153 26.8302C152.477 28.8898 151.871 31.1724 150.334 33.6779C148.925 35.9737 147.271 37.7817 145.37 39.1018C143.481 40.4291 141.629 41.1612 139.812 41.298C138.015 41.4304 136.429 41.0747 135.054 40.2311C133.247 39.123 132.163 37.5436 131.801 35.493C131.446 33.4307 131.977 31.2459 133.392 28.9385ZM136.19 30.2217C135.11 31.9814 134.645 33.5244 134.794 34.8507C134.942 36.177 135.541 37.1619 136.59 37.8053C137.417 38.3129 138.449 38.4884 139.683 38.3317C140.926 38.1634 142.331 37.4938 143.899 36.3228C145.468 35.1518 146.753 33.7505 147.753 32.119C148.84 30.3476 149.313 28.793 149.171 27.455C149.037 26.1054 148.457 25.1161 147.431 24.4869C146.534 23.9364 145.456 23.7324 144.198 23.8747C142.951 24.0242 141.565 24.6894 140.038 25.8702C138.531 27.0465 137.248 28.497 136.19 30.2217ZM155.649 51.6502C152.036 52.1739 149.447 51.6329 147.883 50.0271C146.976 49.0969 146.546 47.9892 146.591 46.7039C146.646 45.4284 147.198 44.2802 148.246 43.2592C148.911 42.6103 150.171 41.6501 152.024 40.3785L162.53 33.1469L164.649 35.3206L153.016 43.3353C152.04 43.9995 151.328 44.551 150.877 44.9899C150.26 45.5911 149.938 46.2009 149.911 46.8193C149.893 47.4281 150.152 48.0067 150.686 48.5551C151.44 49.3286 152.497 49.7967 153.858 49.9593C155.239 50.1221 156.566 49.9265 157.84 49.3726C159.133 48.8188 160.696 47.906 162.53 46.6341L170.403 41.2249L172.521 43.3986L154.318 55.9257L152.357 53.9135L155.649 51.6502ZM157.162 59.1669L177.469 50.4545L178.93 52.709L174.783 54.4924C178.522 54.2035 180.882 54.8163 181.863 56.3307C182.198 56.847 182.383 57.623 182.419 58.6588L178.847 59.4827C178.948 58.7824 178.838 58.1856 178.518 57.6923C177.908 56.7515 176.679 56.2122 174.83 56.0744C173 55.9406 170.354 56.6211 166.891 58.1158L158.735 61.5934L157.162 59.1669ZM192.632 72.4798L196.842 71.7947L197.827 74.6656L193.617 75.3507L192.632 72.4798ZM166.734 76.6804L188.546 73.1444L189.531 76.0153L167.718 79.5514L166.734 76.6804ZM173.914 95.0357C171.241 93.7143 169.755 92.1083 169.457 90.2177C169.2 88.5972 169.718 87.1034 171.011 85.7363C172.304 84.3692 174.422 83.4529 177.366 82.9874C179.999 82.571 182.481 82.6422 184.812 83.2011C187.156 83.7578 188.953 84.6156 190.202 85.7746C191.451 86.9336 192.179 88.168 192.386 89.4779C192.73 91.6521 191.7 93.4968 189.295 95.012L201.176 95.1681L201.65 98.166L171.15 97.7774L170.711 95.0023L173.914 95.0357ZM178.508 85.8796L177.634 85.9971C175.851 86.279 174.458 86.9214 173.454 87.9246C172.677 88.6981 172.37 89.6047 172.535 90.6445C172.748 91.9949 173.808 93.0939 175.714 93.9414C178.255 95.0482 181.208 95.3358 184.57 94.8041C186.299 94.5307 187.576 93.9412 188.402 93.0355C189.227 92.1298 189.558 91.1571 189.394 90.1172C189.233 89.1044 188.63 88.2239 187.585 87.4757C186.539 86.7275 185.069 86.2264 183.174 85.9724C181.279 85.7184 179.724 85.6874 178.508 85.8796ZM177.737 115.799L177.101 118.727C175.035 118.046 173.299 116.742 171.895 114.816C170.709 113.213 170.198 111.498 170.364 109.674C170.481 108.38 170.935 107.234 171.726 106.235C172.53 105.237 173.655 104.488 175.1 103.987C176.56 103.488 178.256 103.326 180.189 103.501C182.736 103.732 185.068 104.424 187.188 105.577C189.306 106.743 190.806 108.067 191.688 109.547C192.583 111.028 192.957 112.579 192.811 114.199C192.624 116.255 191.69 117.859 190.007 119.011C188.322 120.176 186.051 120.629 183.191 120.37C182.129 120.274 181.047 120.1 179.944 119.849L181.132 106.737C180.7 106.657 180.313 106.601 179.973 106.57C177.931 106.385 176.343 106.633 175.211 107.313C174.092 107.994 173.483 108.879 173.385 109.968C173.291 111.003 173.614 112.055 174.355 113.124C175.094 114.207 176.221 115.099 177.737 115.799ZM183.906 107.483L183.001 117.47L183.757 117.538C185.69 117.714 187.175 117.464 188.211 116.789C189.246 116.114 189.818 115.184 189.925 114C190.041 112.72 189.603 111.493 188.612 110.318C187.618 109.157 186.05 108.212 183.906 107.483ZM169.584 120.584L188.864 131.379L187.946 133.969L184.583 132.102C185.674 133.852 186.333 135.326 186.562 136.524C186.803 137.727 186.759 138.792 186.43 139.72C185.968 141.021 185.158 141.916 183.998 142.404C182.834 142.905 181.447 142.871 179.836 142.299C179.115 142.044 177.992 141.486 176.469 140.627L164.794 134.095L165.815 131.215L178.029 138.069C179.227 138.74 180.129 139.183 180.734 139.398C181.443 139.649 182.07 139.639 182.616 139.368C183.17 139.115 183.57 138.641 183.817 137.945C184.329 136.501 184.152 134.974 183.287 133.362C182.418 131.763 180.501 130.133 177.536 128.473L168.57 123.445L169.584 120.584ZM162.198 145.732L159.841 143.747C160.003 143.004 160.256 142.336 160.599 141.745C161.169 140.764 161.882 140.134 162.739 139.857C163.588 139.591 164.451 139.712 165.326 140.22C165.74 140.46 166.616 141.143 167.955 142.268L177.817 150.482L179.022 148.407L181.258 150.274L180.054 152.349L184.22 155.834L184.687 160.136L178.52 154.992L177.027 157.563L174.791 155.697L176.284 153.125L166.912 145.29C165.706 144.29 164.985 143.721 164.748 143.584C164.335 143.344 163.978 143.264 163.679 143.343C163.38 143.422 163.117 143.657 162.891 144.047C162.555 144.627 162.324 145.188 162.198 145.732ZM176.724 164.712L179.68 167.787L177.877 170.229L174.921 167.154L176.724 164.712ZM158.548 145.791L173.854 161.728L172.052 164.17L156.745 148.233L158.548 145.791ZM151.487 158.881L149.619 156.43C149.939 155.74 150.331 155.144 150.795 154.642C151.565 153.808 152.398 153.349 153.294 153.265C154.182 153.19 154.997 153.496 155.74 154.183C156.092 154.507 156.798 155.364 157.86 156.754L165.697 166.919L167.325 165.156L169.1 167.465L167.473 169.228L170.78 173.537L170.298 177.837L165.4 171.473L163.383 173.658L161.607 171.349L163.624 169.164L156.184 159.477C155.225 158.238 154.645 157.526 154.444 157.34C154.093 157.016 153.762 156.86 153.453 156.872C153.144 156.884 152.836 157.056 152.53 157.388C152.076 157.88 151.728 158.378 151.487 158.881ZM143.559 150.806L145.538 153.682C144.907 153.892 144.358 154.177 143.892 154.535C143.404 154.91 143.114 155.34 143.021 155.825C142.893 156.511 142.981 157.521 143.284 158.858L143.821 161.136L159.494 176.634L157.121 178.46L149.334 170.556C147.775 168.978 146.265 167.397 144.805 165.812L149.173 184.574L146.653 186.512L140.632 160.018C140.014 157.354 139.827 155.462 140.071 154.344C140.303 153.233 140.831 152.361 141.655 151.728C142.218 151.294 142.853 150.987 143.559 150.806ZM115.655 178.746C116.594 175.916 117.979 174.223 119.81 173.665C121.38 173.187 122.931 173.494 124.464 174.585C125.996 175.676 127.197 177.647 128.065 180.498C128.842 183.048 129.114 185.516 128.883 187.902C128.656 190.301 128.055 192.199 127.08 193.596C126.105 194.994 124.983 195.885 123.714 196.272C121.609 196.913 119.639 196.148 117.806 193.976L119.295 205.764L116.391 206.648L112.557 176.388L115.245 175.57L115.655 178.746ZM125.359 182.03L125.121 181.18C124.596 179.454 123.767 178.163 122.634 177.307C121.761 176.644 120.82 176.466 119.813 176.772C118.505 177.171 117.564 178.372 116.988 180.377C116.243 183.048 116.367 186.011 117.358 189.268C117.868 190.942 118.629 192.125 119.64 192.818C120.651 193.51 121.66 193.703 122.667 193.396C123.648 193.098 124.437 192.379 125.033 191.24C125.63 190.1 125.923 188.575 125.912 186.663C125.902 184.751 125.717 183.207 125.359 182.03ZM95.6026 185.372L92.6152 185.141C93.009 183.001 94.0643 181.105 95.7809 179.452C97.2083 178.058 98.8371 177.319 100.667 177.235C101.965 177.175 103.162 177.468 104.26 178.116C105.358 178.777 106.253 179.789 106.945 181.153C107.639 182.531 108.03 184.189 108.12 186.129C108.238 188.683 107.87 191.088 107.016 193.345C106.148 195.602 105.041 197.268 103.695 198.343C102.349 199.432 100.864 200.013 99.2386 200.088C97.1763 200.184 95.4602 199.476 94.0902 197.965C92.7066 196.455 91.9485 194.266 91.8161 191.398C91.7669 190.333 91.7915 189.237 91.89 188.11L105.042 187.503C105.063 187.064 105.065 186.674 105.05 186.332C104.955 184.284 104.494 182.745 103.666 181.715C102.839 180.7 101.879 180.217 100.787 180.267C99.7488 180.315 98.7505 180.779 97.792 181.658C96.8199 182.538 96.0901 183.776 95.6026 185.372ZM104.681 190.352L94.6633 190.815L94.6983 191.573C94.7879 193.512 95.2374 194.949 96.047 195.884C96.8566 196.818 97.8555 197.258 99.0437 197.203C100.327 197.144 101.484 196.543 102.512 195.4C103.527 194.258 104.25 192.576 104.681 190.352ZM89.9821 178.067L81.1387 207.259L78.1067 206.879L86.9501 177.688L89.9821 178.067ZM67.9306 180.173L65.1967 178.946C66.2899 177.065 67.9234 175.636 70.0974 174.66C71.9115 173.83 73.6941 173.684 75.4453 174.223C76.6868 174.604 77.7148 175.285 78.5292 176.265C79.3396 177.258 79.8405 178.513 80.0319 180.031C80.2193 181.562 80.0277 183.255 79.4572 185.111C78.706 187.554 77.5476 189.694 75.982 191.53C74.4033 193.362 72.7989 194.557 71.1686 195.114C69.5343 195.684 67.9396 195.73 66.3845 195.252C64.4112 194.646 63.0348 193.4 62.2553 191.516C61.4627 189.627 61.4883 187.311 62.3319 184.566C62.6453 183.547 63.0385 182.524 63.5117 181.496L76.0965 185.365C76.2643 184.959 76.3983 184.592 76.4988 184.266C77.1014 182.305 77.1869 180.701 76.7554 179.453C76.3198 178.217 75.5793 177.439 74.5338 177.118C73.5406 176.812 72.4445 176.912 71.2455 177.416C70.0334 177.916 68.9284 178.835 67.9306 180.173ZM74.7944 187.925L65.2088 184.979L64.9859 185.704C64.4154 187.56 64.3535 189.064 64.8001 190.217C65.2467 191.37 66.0384 192.121 67.1754 192.47C68.4038 192.848 69.6949 192.673 71.0487 191.945C72.3894 191.212 73.638 189.873 74.7944 187.925ZM57.1932 170.643L59.0738 168.202C59.8235 168.332 60.5012 168.556 61.1067 168.873C62.112 169.4 62.7717 170.085 63.086 170.928C63.3883 171.766 63.3046 172.633 62.8352 173.529C62.6132 173.953 61.9693 174.858 60.9036 176.244L53.125 186.454L55.2505 187.567L53.4823 189.882L51.3568 188.769L48.0558 193.082L43.778 193.735L48.65 187.351L46.0158 185.971L47.784 183.656L50.4182 185.036L57.8386 175.333C58.7855 174.085 59.3225 173.34 59.4493 173.098C59.6714 172.674 59.7362 172.315 59.644 172.019C59.5517 171.724 59.3057 171.472 58.906 171.262C58.3126 170.952 57.7416 170.745 57.1932 170.643ZM42.0593 164.509L39.9596 162.371C41.6625 161.018 43.7042 160.282 46.0845 160.163C48.0762 160.051 49.7895 160.565 51.2245 161.703C52.2418 162.511 52.9514 163.519 53.3532 164.728C53.7465 165.948 53.756 167.3 53.3817 168.783C52.9988 170.277 52.2039 171.784 50.997 173.305C49.4076 175.307 47.5496 176.879 45.4231 178.018C43.2859 179.15 41.3566 179.678 39.6353 179.604C37.9056 179.54 36.4035 179.002 35.1292 177.991C33.5121 176.708 32.6837 175.046 32.6438 173.007C32.5932 170.96 33.4603 168.812 35.2452 166.563C35.9082 165.728 36.6471 164.918 37.4618 164.133L47.7744 172.318C48.0785 172.001 48.3368 171.708 48.5493 171.441C49.8242 169.834 50.488 168.371 50.5405 167.052C50.5846 165.743 50.1783 164.748 49.3215 164.068C48.5077 163.422 47.4506 163.115 46.1504 163.148C44.8395 163.173 43.4758 163.626 42.0593 164.509ZM45.6295 174.229L37.7746 167.994L37.3028 168.589C36.0959 170.109 35.4906 171.488 35.4868 172.724C35.483 173.96 35.947 174.948 36.8786 175.688C37.8853 176.487 39.1515 176.794 40.6775 176.608C42.1928 176.415 43.8434 175.621 45.6295 174.229ZM44.4287 144.741L41.3496 146.386C41.2115 145.735 40.9904 145.158 40.6863 144.655C40.368 144.128 39.973 143.792 39.5013 143.646C38.8347 143.441 37.8205 143.415 36.4587 143.567L34.1349 143.846L16.9812 157.688L15.4324 155.126L24.1572 148.271C25.8995 146.898 27.6397 145.575 29.3777 144.301L10.245 146.543L8.60079 143.823L35.6022 140.802C38.3187 140.486 40.2192 140.512 41.3036 140.879C42.381 141.234 43.1884 141.856 43.7259 142.746C44.0936 143.354 44.3279 144.019 44.4287 144.741ZM20.1934 135.663C16.4521 136.846 13.0251 137.005 9.91231 136.139C6.79953 135.274 4.79596 133.426 3.9016 130.598C3.27513 128.616 3.52047 126.739 4.63764 124.966C5.74177 123.198 7.69518 121.87 10.4979 120.984C13.066 120.172 15.5004 119.89 17.8012 120.138C20.0979 120.372 21.9772 121.033 23.4391 122.119C24.8839 123.196 25.8494 124.504 26.3358 126.043C26.9746 128.063 26.7591 129.967 25.6893 131.753C24.6065 133.544 22.7745 134.847 20.1934 135.663ZM18.9203 132.861C20.8887 132.239 22.2511 131.378 23.0076 130.278C23.7641 129.179 23.9568 128.042 23.5859 126.869C23.2933 125.943 22.6291 125.135 21.5934 124.445C20.5447 123.758 19.0443 123.344 17.0921 123.201C15.1399 123.058 13.2513 123.275 11.4262 123.852C9.44479 124.479 8.06931 125.344 7.29981 126.447C6.51727 127.555 6.30734 128.683 6.67003 129.83C6.98739 130.834 7.66803 131.694 8.71194 132.41C9.75173 133.114 11.235 133.52 13.1618 133.628C15.0715 133.726 16.991 133.471 18.9203 132.861ZM18.2694 103.919C21.3403 105.893 22.9397 108 23.0676 110.238C23.1418 111.535 22.7401 112.653 21.8627 113.594C20.9844 114.52 19.8151 115.025 18.3546 115.109C17.4264 115.162 15.8458 115.061 13.6127 114.805L0.938987 113.373L0.765749 110.342L14.8036 111.923C15.9756 112.061 16.8755 112.112 17.5033 112.076C18.3633 112.027 19.0063 111.778 19.4326 111.329C19.8452 110.881 20.0296 110.275 19.9859 109.511C19.9243 108.432 19.4331 107.385 18.5123 106.37C17.5771 105.341 16.447 104.619 15.1222 104.201C13.783 103.771 12.0041 103.435 9.78541 103.192L0.295195 102.112L0.121957 99.0814L22.0788 101.565L22.2391 104.37L18.2694 103.919ZM22.0565 97.2537L1.00468 90.5388L1.37701 87.8782L5.6791 89.2465C2.66419 87.0161 1.2818 85.0073 1.53192 83.22C1.61718 82.6107 1.98543 81.903 2.63665 81.0968L5.87534 82.8132C5.34108 83.2768 5.03321 83.7997 4.95174 84.3819C4.79636 85.4922 5.37214 86.7048 6.67908 88.0197C7.97437 89.3192 10.4199 90.538 14.0156 91.6763L22.4573 94.39L22.0565 97.2537Z" fill="#FFE100"/>
</svg>
