<svg width="315" height="327" viewBox="0 0 315 327" fill="none" xmlns="http://www.w3.org/2000/svg">
<path d="M45.9516 92.0392C47.2404 94.7279 47.4193 96.9085 46.4886 98.581C45.6908 100.015 44.3615 100.871 42.5009 101.15C40.6403 101.428 38.4078 100.843 35.8034 99.3938C33.4739 98.0973 31.5642 96.5104 30.0743 94.6329C28.5724 92.7488 27.6874 90.9654 27.419 89.2827C27.1507 87.6 27.339 86.1793 27.9839 85.0205C29.0543 83.0971 31.0029 82.2805 33.8299 82.5708L24.575 75.1203L26.051 72.4681L49.8182 91.5859L48.4519 94.0409L45.9516 92.0392ZM36.688 96.4126L37.4486 96.8593C39.0256 97.7369 40.5186 98.0906 41.9276 97.9203C43.0166 97.791 43.8171 97.2663 44.329 96.3465C44.9938 95.1518 44.8376 93.6332 43.8603 91.7907C42.5421 89.3516 40.3957 87.3044 37.421 85.6489C35.8919 84.7979 34.523 84.4742 33.3144 84.6778C32.1059 84.8814 31.2456 85.4432 30.7337 86.3631C30.2351 87.259 30.1665 88.324 30.5282 89.5579C30.8898 90.7918 31.738 92.0931 33.0729 93.4619C34.4078 94.8306 35.6129 95.8142 36.688 96.4126ZM54.0701 72.9227L56.1563 70.7718C57.5511 72.4414 58.3364 74.4645 58.5122 76.8413C58.6728 78.8297 58.2012 80.555 57.0974 82.0172C56.3148 83.0538 55.3241 83.7876 54.1251 84.2186C52.9151 84.6414 51.5642 84.6837 50.0723 84.3454C48.5695 83.9989 47.0433 83.2409 45.4938 82.0712C43.4533 80.5308 41.8375 78.7115 40.6464 76.6132C39.4635 74.5041 38.8884 72.5882 38.9211 70.8656C38.943 69.1348 39.444 67.6202 40.4242 66.3217C41.668 64.674 43.3086 63.8055 45.346 63.7161C47.3917 63.6159 49.5602 64.4307 51.8517 66.1605C52.7028 66.803 53.5305 67.522 54.3346 68.3174L46.4022 78.8256C46.7267 79.1219 47.0253 79.373 47.2981 79.5789C48.9349 80.8145 50.4136 81.4426 51.7342 81.4631C53.044 81.4754 54.0283 81.0451 54.6873 80.1721C55.3133 79.3428 55.5942 78.2787 55.5299 76.9796C55.4738 75.6697 54.9872 74.3174 54.0701 72.9227ZM44.44 76.7276L50.482 68.7238L49.8764 68.2666C48.3269 67.0969 46.9341 66.5252 45.6981 66.5514C44.4621 66.5776 43.4858 67.0654 42.7691 68.0148C41.9948 69.0405 41.7188 70.3138 41.941 71.8348C42.1714 73.3449 43.0044 74.9759 44.44 76.7276ZM63.256 73.1879L44.6279 49.035L46.6978 46.7873L65.326 70.9402L63.256 73.1879ZM73.1653 53.5117L75.6221 51.7964C76.6743 53.7005 77.0609 55.8361 76.7819 58.2029C76.5618 60.1856 75.771 61.7899 74.4095 63.0157C73.4443 63.8848 72.3321 64.417 71.0731 64.6124C69.8049 64.7976 68.4705 64.5824 67.0701 63.9668C65.6604 63.3411 64.3061 62.3069 63.0071 60.8641C61.2964 58.9641 60.0557 56.871 59.2849 54.5846C58.5243 52.2891 58.3237 50.2989 58.6831 48.6139C59.0333 46.9188 59.813 45.5269 61.0221 44.4383C62.5563 43.057 64.3321 42.516 66.3493 42.8153C68.3767 43.1056 70.351 44.3175 72.2721 46.4512C72.9856 47.2437 73.6616 48.1068 74.3 49.0406L64.5156 57.8502C64.7778 58.2028 65.0233 58.5061 65.252 58.7601C66.6242 60.2841 67.9566 61.1817 69.2493 61.4528C70.5329 61.7137 71.5811 61.4782 72.3939 60.7464C73.1661 60.0511 73.644 59.0597 73.8277 57.7721C74.0215 56.4754 73.8007 55.0552 73.1653 53.5117ZM62.9877 55.4177L70.4403 48.7076L69.9326 48.1437C68.6336 46.7009 67.3748 45.875 66.1563 45.6659C64.9378 45.4568 63.8866 45.7502 63.0026 46.5461C62.0476 47.406 61.5346 48.6037 61.4638 50.1392C61.4031 51.6656 61.9111 53.4251 62.9877 55.4177ZM86.3043 48.7471L87.6629 51.5131C87.2146 52.128 86.7143 52.6369 86.1622 53.0399C85.2455 53.7089 84.3393 53.9979 83.4436 53.9069C82.5589 53.8078 81.8183 53.3497 81.2219 52.5325C80.9398 52.146 80.4124 51.1683 79.6399 49.5995L73.9199 38.1093L71.9818 39.5238L70.6868 36.9145L72.6249 35.5L70.2149 30.6324L71.5198 26.5065L75.0931 33.6986L77.4951 31.9456L78.7901 34.5549L76.3881 36.3079L81.8117 47.2528C82.5126 48.6539 82.9437 49.4648 83.1049 49.6857C83.387 50.0722 83.6808 50.2894 83.9865 50.3371C84.2921 50.3848 84.6272 50.2757 84.9916 50.0098C85.5327 49.6148 85.9703 49.1939 86.3043 48.7471ZM97.3718 37.0987L100.127 35.9208C100.769 37.9997 100.711 40.1691 99.955 42.4292C99.3349 44.3253 98.2334 45.7344 96.6504 46.6566C95.5281 47.3104 94.3307 47.6044 93.0583 47.5388C91.779 47.4613 90.5166 46.9783 89.2713 46.0899C88.019 45.1897 86.9042 43.9008 85.927 42.2233C84.64 40.0142 83.8526 37.7119 83.5646 35.3164C83.2885 32.914 83.4983 30.9247 84.194 29.3485C84.8828 27.7606 85.9301 26.5571 87.3359 25.7381C89.1197 24.6989 90.9685 24.5317 92.8822 25.2365C94.8077 25.9343 96.4931 27.5237 97.9383 30.0045C98.4751 30.9259 98.9607 31.9089 99.3951 32.9533L88.0188 39.5807C88.2036 39.9794 88.382 40.3264 88.554 40.6217C89.5863 42.3937 90.7076 43.5443 91.9177 44.0735C93.121 44.5908 94.1952 44.5742 95.1403 44.0237C96.0381 43.5006 96.7083 42.6276 97.1509 41.4046C97.6053 40.1747 97.6789 38.7394 97.3718 37.0987ZM87.0195 36.8876L95.6846 31.8396L95.3027 31.1839C94.3254 29.5064 93.2617 28.441 92.1115 27.9876C90.9613 27.5343 89.8724 27.6069 88.8446 28.2057C87.7341 28.8526 86.9876 29.9204 86.6049 31.4092C86.234 32.8911 86.3722 34.7172 87.0195 36.8876ZM115.949 45.4681L115.002 42.1079C115.667 42.1126 116.279 42.0203 116.835 41.8311C117.418 41.6331 117.831 41.3193 118.075 40.8899C118.417 40.2825 118.66 39.2975 118.803 37.9347L119.029 35.6052L109.184 15.8838L112.019 14.92L116.845 24.911C117.812 26.9071 118.732 28.8904 119.604 30.861L121.513 11.6922L124.523 10.6691L121.687 37.6906C121.414 40.4117 120.982 42.2626 120.391 43.2432C119.813 44.2194 119.032 44.8748 118.049 45.2092C117.375 45.438 116.676 45.5243 115.949 45.4681ZM129.146 23.6813C128.383 19.8324 128.603 16.4088 129.806 13.4104C131.01 10.412 133.067 8.62432 135.977 8.04728C138.015 7.64308 139.854 8.09389 141.493 9.39969C143.129 10.6921 144.233 12.7799 144.804 15.6633C145.328 18.3052 145.34 20.7559 144.84 23.0154C144.354 25.2722 143.49 27.0672 142.25 28.4005C141.019 29.7176 139.613 30.5331 138.031 30.8469C135.952 31.2591 134.084 30.835 132.426 29.5748C130.766 28.3011 129.672 26.3366 129.146 23.6813ZM132.071 22.7249C132.473 24.7499 133.178 26.1989 134.188 27.072C135.197 27.9451 136.305 28.262 137.512 28.0227C138.464 27.8339 139.341 27.2628 140.141 26.3096C140.939 25.343 141.517 23.8974 141.874 21.9728C142.231 20.0483 142.224 18.1472 141.851 16.2697C141.447 14.2313 140.739 12.7688 139.727 11.8823C138.712 10.9824 137.615 10.6495 136.435 10.8835C135.402 11.0882 134.472 11.6699 133.644 12.6284C132.83 13.5843 132.264 15.0138 131.944 16.917C131.635 18.8041 131.678 20.7401 132.071 22.7249ZM160.498 23.7673C158.529 26.8417 156.425 28.4449 154.187 28.5769C152.89 28.6534 151.771 28.2537 150.829 27.378C149.901 26.5014 149.394 25.333 149.308 23.8726C149.253 22.9445 149.351 21.3637 149.603 19.1302L151.013 6.45393L154.042 6.27523L152.488 20.3159C152.351 21.4881 152.302 22.3881 152.339 23.0159C152.389 23.8757 152.64 24.5184 153.089 24.9438C153.538 25.3556 154.145 25.539 154.909 25.4939C155.987 25.4303 157.033 24.9372 158.047 24.0146C159.074 23.0775 159.794 21.9462 160.209 20.6206C160.637 19.2806 160.97 17.5011 161.209 15.282L162.272 5.78982L165.302 5.61111L162.859 27.5724L160.054 27.7378L160.498 23.7673ZM167.214 27.4404L172.026 5.87406L174.71 6.00789L173.73 10.4148C175.683 7.21315 177.561 5.6573 179.363 5.7472C179.978 5.77785 180.715 6.08158 181.576 6.65839L180.155 10.0371C179.646 9.54628 179.098 9.28622 178.51 9.25693C177.391 9.20108 176.234 9.8826 175.041 11.3015C173.862 12.7074 172.866 15.2517 172.053 18.9345L170.102 27.5844L167.214 27.4404ZM196.241 4.63588L197.718 0.634739L200.702 1.19141L199.225 5.19255L196.241 4.63588ZM187.144 29.2451L194.807 8.51982L197.791 9.0765L190.127 29.8018L187.144 29.2451ZM206.746 30.9814C204.418 32.8443 202.335 33.5113 200.495 32.9824C198.918 32.5291 197.784 31.4277 197.092 29.6781C196.4 27.9286 196.466 25.6216 197.289 22.7572C198.026 20.1949 199.14 17.9761 200.633 16.1005C202.129 14.2119 203.666 12.9468 205.245 12.3052C206.823 11.6637 208.25 11.5261 209.524 11.8925C211.64 12.5007 212.875 14.2145 213.231 17.034L218.398 6.33518L221.315 7.1738L208.061 34.6456L205.361 33.8693L206.746 30.9814ZM200.393 22.9454L200.13 23.7872C199.631 25.5217 199.624 27.056 200.108 28.3901C200.48 29.4217 201.172 30.083 202.184 30.3739C203.498 30.7516 204.942 30.2563 206.516 28.888C208.594 27.0529 210.104 24.4994 211.044 21.2277C211.528 19.5458 211.534 18.1392 211.062 17.0079C210.591 15.8765 209.849 15.1655 208.838 14.8746C207.852 14.5913 206.799 14.7651 205.679 15.3962C204.559 16.0272 203.483 17.1475 202.451 18.7571C201.419 20.3667 200.733 21.7628 200.393 22.9454ZM227.203 34.5908L229.768 36.1404C228.455 37.8747 226.66 39.0945 224.383 39.7999C222.482 40.4032 220.695 40.3314 219.022 39.5844C217.836 39.0548 216.898 38.2543 216.209 37.1828C215.525 36.0988 215.18 34.7919 215.174 33.2622C215.174 31.7199 215.57 30.0624 216.362 28.2897C217.404 25.9553 218.814 23.9719 220.591 22.3398C222.38 20.7132 224.118 19.7223 225.804 19.3671C227.495 18.9994 229.084 19.1473 230.569 19.8106C232.454 20.6524 233.669 22.0559 234.214 24.0211C234.771 25.9919 234.465 28.2881 233.294 30.9097C232.859 31.8834 232.345 32.8514 231.75 33.8138L219.728 28.4455C219.513 28.8283 219.335 29.1757 219.196 29.4878C218.359 31.3604 218.08 32.9424 218.356 34.2339C218.639 35.5129 219.279 36.3754 220.278 36.8213C221.227 37.245 222.327 37.2795 223.578 36.925C224.842 36.576 226.05 35.7979 227.203 34.5908ZM221.332 26.0621L230.489 30.151L230.798 29.4581C231.59 27.6854 231.834 26.1998 231.53 25.0013C231.227 23.8028 230.532 22.961 229.446 22.476C228.273 21.952 226.97 21.9692 225.538 22.5275C224.118 23.0914 222.716 24.2696 221.332 26.0621ZM229.198 43.763L243.901 27.2676L246.232 28.7233L243.683 31.6044C245.628 30.9168 247.209 30.591 248.428 30.6268C249.654 30.6511 250.685 30.9239 251.519 31.4453C252.691 32.1768 253.39 33.1613 253.616 34.3989C253.854 35.6437 253.52 36.9908 252.615 38.4403C252.21 39.0897 251.423 40.0653 250.255 41.3671L241.357 51.3565L238.765 49.7379L248.094 39.2918C249.008 38.2669 249.635 37.4819 249.976 36.9369C250.374 36.2991 250.5 35.6846 250.353 35.0934C250.226 34.4978 249.849 34.0045 249.222 33.6134C247.924 32.8023 246.394 32.6448 244.633 33.141C242.884 33.6444 240.879 35.1646 238.618 37.7015L231.773 45.3708L229.198 43.763ZM252.44 55.7405L250.157 57.8095C249.442 57.5483 248.815 57.2079 248.275 56.7883C247.379 56.0918 246.851 55.3005 246.692 54.4144C246.543 53.5367 246.779 52.6985 247.4 51.8998C247.693 51.522 248.488 50.7454 249.782 49.5699L259.248 40.9018L257.354 39.4292L259.505 37.4645L261.399 38.9372L265.413 35.2778L269.739 35.3937L263.812 40.8126L266.159 42.6377L264.009 44.6023L261.661 42.7772L252.637 51.01C251.484 52.0703 250.823 52.7084 250.655 52.9242C250.362 53.302 250.234 53.6444 250.273 53.9514C250.311 54.2583 250.508 54.5502 250.865 54.8272C251.393 55.2383 251.919 55.5428 252.44 55.7405ZM272.454 42.8419L275.77 40.1597L278.049 42.1646L274.733 44.8468L272.454 42.8419ZM252.046 59.3312L269.235 45.4453L271.513 47.4502L254.325 61.3361L252.046 59.3312ZM264.677 67.0949L262.161 68.8741C261.483 68.5287 260.901 68.1153 260.416 67.6339C259.61 66.8347 259.182 65.9856 259.13 65.0868C259.087 64.1975 259.423 63.3938 260.135 62.6755C260.472 62.3358 261.354 61.6604 262.781 60.6494L273.221 53.1832L271.518 51.4933L273.889 49.8017L275.593 51.4916L280.018 48.3418L284.298 48.9773L277.762 53.6437L279.873 55.738L277.501 57.4296L275.39 55.3353L265.442 62.4224C264.169 63.3363 263.437 63.8902 263.244 64.0843C262.907 64.424 262.739 64.7486 262.74 65.0579C262.742 65.3673 262.902 65.6808 263.223 65.9986C263.698 66.4704 264.183 66.8358 264.677 67.0949ZM256.705 75.2222L259.504 73.1354C259.738 73.7589 260.043 74.2966 260.419 74.7487C260.812 75.2218 261.253 75.4954 261.741 75.5695C262.431 75.6718 263.437 75.5461 264.761 75.1923L267.017 74.57L281.911 58.3209L283.825 60.6233L276.222 68.7043C274.704 70.3218 273.181 71.8902 271.653 73.4096L290.236 68.3348L292.268 70.7791L266.021 77.7985C263.382 78.5166 261.499 78.7752 260.372 78.5744C259.254 78.384 258.362 77.8893 257.698 77.0903C257.244 76.5436 256.913 75.9209 256.705 75.2222ZM288.05 100.369C285.091 100.007 283.157 98.9844 282.248 97.2996C281.47 95.8556 281.464 94.2745 282.23 92.5563C282.997 90.8382 284.692 89.2719 287.315 87.8574C289.662 86.5921 292.027 85.837 294.412 85.5922C296.808 85.3408 298.787 85.555 300.35 86.2347C301.912 86.9144 303.008 87.8379 303.638 89.0052C304.682 90.9427 304.322 93.0245 302.555 95.2506L313.816 91.4621L315.257 94.1337L286.351 103.871L285.017 101.398L288.05 100.369ZM289.352 90.2078L288.566 90.6082C286.977 91.4647 285.875 92.5325 285.26 93.8116C284.783 94.799 284.794 95.756 285.294 96.6826C285.943 97.886 287.307 98.5719 289.386 98.7402C292.151 98.9423 295.031 98.2356 298.028 96.6199C299.568 95.7894 300.578 94.81 301.057 93.6819C301.536 92.5538 301.526 91.5265 301.026 90.5998C300.539 89.6973 299.679 89.0662 298.444 88.7067C297.21 88.3472 295.656 88.3615 293.784 88.7496C291.912 89.1377 290.435 89.6238 289.352 90.2078ZM299.77 117.522L300.455 120.439C298.296 120.712 296.169 120.281 294.074 119.146C292.313 118.207 291.116 116.879 290.481 115.161C290.03 113.942 289.948 112.712 290.232 111.47C290.529 110.223 291.223 109.063 292.313 107.99C293.416 106.912 294.878 106.037 296.699 105.364C299.097 104.478 301.501 104.1 303.91 104.23C306.324 104.372 308.247 104.923 309.68 105.88C311.125 106.833 312.129 108.072 312.693 109.598C313.409 111.535 313.254 113.385 312.23 115.148C311.21 116.924 309.353 118.31 306.66 119.305C305.66 119.674 304.608 119.983 303.504 120.23L298.941 107.881C298.516 107.994 298.144 108.11 297.823 108.228C295.899 108.939 294.572 109.845 293.842 110.945C293.125 112.041 292.956 113.102 293.335 114.128C293.695 115.102 294.439 115.913 295.567 116.56C296.7 117.22 298.101 117.541 299.77 117.522ZM301.766 107.361L305.242 116.768L305.954 116.505C307.775 115.832 309.008 114.968 309.653 113.914C310.298 112.859 310.415 111.774 310.002 110.658C309.557 109.453 308.634 108.533 307.234 107.899C305.838 107.278 304.015 107.098 301.766 107.361ZM294.589 125.11L324.973 122.429L325.751 125.384L295.368 128.065L294.589 125.11ZM305.768 144.103L305.876 147.097C303.706 146.948 301.702 146.114 299.865 144.595C298.319 143.334 297.401 141.8 297.11 139.991C296.903 138.709 297.06 137.486 297.579 136.322C298.111 135.156 299.016 134.152 300.293 133.31C301.584 132.465 303.187 131.889 305.104 131.58C307.628 131.174 310.06 131.268 312.398 131.861C314.739 132.468 316.52 133.379 317.74 134.595C318.974 135.809 319.72 137.219 319.979 138.826C320.306 140.864 319.797 142.649 318.451 144.181C317.107 145.727 315.018 146.727 312.184 147.183C311.131 147.353 310.039 147.452 308.908 147.482L306.817 134.483C306.379 134.512 305.991 134.553 305.653 134.608C303.628 134.933 302.152 135.566 301.222 136.504C300.307 137.441 299.936 138.449 300.11 139.529C300.275 140.555 300.848 141.494 301.83 142.347C302.814 143.214 304.127 143.799 305.768 144.103ZM309.689 134.519L311.282 144.42L312.031 144.3C313.948 143.992 315.325 143.382 316.162 142.472C316.998 141.562 317.322 140.52 317.133 139.346C316.929 138.077 316.202 136.996 314.95 136.103C313.701 135.224 311.947 134.696 309.689 134.519ZM302.643 157.725L299.582 157.366C299.309 156.656 299.152 155.959 299.113 155.277C299.049 154.144 299.297 153.226 299.86 152.523C300.423 151.833 301.21 151.46 302.22 151.402C302.697 151.375 303.805 151.462 305.542 151.664L318.297 153.092L318.16 150.696L321.055 151.024L321.192 153.42L326.588 154.036L329.346 157.37L321.366 156.47L321.536 159.439L318.641 159.111L318.472 156.143L306.335 154.762C304.778 154.59 303.863 154.513 303.59 154.528C303.112 154.555 302.77 154.685 302.564 154.915C302.358 155.146 302.268 155.487 302.294 155.937C302.332 156.606 302.448 157.202 302.643 157.725ZM306.418 173.345L305.912 176.298C303.818 175.709 302.027 174.483 300.539 172.621C299.283 171.071 298.698 169.381 298.783 167.551C298.843 166.253 299.246 165.088 299.992 164.055C300.751 163.023 301.842 162.225 303.264 161.661C304.7 161.098 306.387 160.861 308.327 160.951C310.881 161.07 313.242 161.658 315.41 162.717C317.577 163.789 319.134 165.045 320.08 166.485C321.04 167.925 321.482 169.458 321.407 171.083C321.311 173.146 320.448 174.789 318.818 176.014C317.186 177.252 314.937 177.805 312.069 177.672C311.003 177.622 309.914 177.497 308.801 177.295L309.411 164.143C308.976 164.081 308.587 164.043 308.246 164.027C306.197 163.932 304.622 164.249 303.521 164.978C302.433 165.708 301.864 166.619 301.814 167.712C301.765 168.75 302.135 169.786 302.922 170.822C303.708 171.871 304.873 172.712 306.418 173.345ZM312.215 164.765L311.751 174.783L312.509 174.818C314.448 174.908 315.92 174.593 316.925 173.873C317.93 173.153 318.461 172.199 318.516 171.011C318.575 169.727 318.084 168.52 317.041 167.391C315.998 166.275 314.389 165.4 312.215 164.765ZM289.309 184.404L292.645 185.433C292.28 185.99 292.025 186.553 291.882 187.123C291.732 187.72 291.771 188.237 291.999 188.675C292.323 189.293 293.019 190.031 294.085 190.891L295.919 192.346L317.826 194.787L317.096 197.691L306.085 196.319C303.884 196.047 301.719 195.743 299.59 195.405L314.651 207.417L313.876 210.499L292.724 193.446C290.588 191.739 289.268 190.371 288.765 189.343C288.259 188.327 288.133 187.316 288.386 186.308C288.56 185.619 288.867 184.984 289.309 184.404ZM300.435 207.322C304.08 208.774 306.834 210.82 308.696 213.46C310.558 216.1 310.941 218.799 309.843 221.555C309.074 223.485 307.696 224.783 305.709 225.449C303.735 226.12 301.382 225.911 298.651 224.823C296.149 223.827 294.086 222.504 292.461 220.857C290.831 219.221 289.794 217.521 289.35 215.754C288.913 214.006 288.993 212.382 289.59 210.883C290.375 208.915 291.746 207.577 293.705 206.871C295.677 206.17 297.92 206.32 300.435 207.322ZM299.647 210.297C297.729 209.533 296.129 209.338 294.848 209.71C293.566 210.083 292.698 210.841 292.242 211.984C291.883 212.886 291.886 213.932 292.251 215.122C292.628 216.317 293.528 217.588 294.949 218.934C296.37 220.28 297.97 221.307 299.748 222.015C301.678 222.784 303.291 222.985 304.585 222.617C305.892 222.255 306.768 221.515 307.213 220.397C307.603 219.419 307.62 218.322 307.266 217.107C306.906 215.904 306.014 214.651 304.591 213.348C303.175 212.063 301.527 211.046 299.647 210.297ZM283.268 233.579C281.77 230.249 281.578 227.611 282.691 225.665C283.336 224.538 284.282 223.819 285.53 223.509C286.772 223.211 288.028 223.425 289.297 224.152C290.104 224.613 291.374 225.56 293.107 226.992L302.95 235.102L301.443 237.737L290.537 228.759C289.63 228.004 288.904 227.47 288.358 227.158C287.61 226.73 286.935 226.588 286.333 226.732C285.743 226.883 285.258 227.291 284.878 227.955C284.341 228.893 284.182 230.038 284.401 231.392C284.624 232.764 285.177 233.986 286.06 235.058C286.948 236.148 288.256 237.4 289.984 238.814L297.35 244.893L295.843 247.528L278.791 233.475L280.186 231.036L283.268 233.579ZM276.519 237.194L291.931 253.029L290.35 255.201L287.199 251.968C288.809 255.355 289.083 257.778 288.021 259.238C287.658 259.735 287 260.186 286.046 260.591L283.997 257.552C284.687 257.394 285.204 257.078 285.55 256.602C286.21 255.696 286.273 254.355 285.739 252.58C285.208 250.824 283.624 248.597 280.988 245.9L274.818 239.532L276.519 237.194ZM279.678 273.979L282.214 277.408L280.112 279.598L277.576 276.169L279.678 273.979ZM264.088 252.876L277.216 270.65L275.114 272.84L261.986 255.066L264.088 252.876ZM251.892 268.32C251.609 265.352 252.193 263.244 253.643 261.995C254.886 260.924 256.429 260.579 258.272 260.958C260.115 261.338 262.008 262.657 263.953 264.916C265.693 266.936 266.938 269.084 267.69 271.36C268.45 273.647 268.666 275.626 268.337 277.298C268.009 278.97 267.342 280.239 266.337 281.104C264.669 282.54 262.559 282.635 260.005 281.388L266.124 291.572L263.824 293.553L248.106 267.413L250.235 265.579L251.892 268.32ZM262.095 267.409L261.535 266.728C260.357 265.36 259.078 264.513 257.697 264.187C256.63 263.933 255.698 264.15 254.9 264.837C253.864 265.729 253.487 267.208 253.769 269.275C254.165 272.019 255.474 274.68 257.696 277.26C258.838 278.586 260.011 279.362 261.216 279.588C262.42 279.813 263.421 279.582 264.219 278.896C264.996 278.226 265.428 277.25 265.514 275.967C265.6 274.685 265.252 273.171 264.471 271.425C263.69 269.68 262.898 268.342 262.095 267.409ZM237.684 283.467L234.984 284.768C234.25 282.72 234.21 280.55 234.864 278.258C235.398 276.336 236.435 274.879 237.975 273.886C239.067 273.183 240.25 272.835 241.524 272.844C242.806 272.864 244.088 273.29 245.372 274.121C246.664 274.964 247.835 276.202 248.887 277.834C250.272 279.983 251.162 282.247 251.557 284.627C251.941 287.015 251.821 289.012 251.197 290.618C250.58 292.235 249.588 293.484 248.22 294.365C246.485 295.484 244.645 295.734 242.702 295.116C240.747 294.505 238.992 292.993 237.437 290.58C236.859 289.683 236.33 288.723 235.849 287.699L246.916 280.568C246.714 280.178 246.52 279.839 246.335 279.552C245.224 277.828 244.052 276.729 242.819 276.254C241.594 275.792 240.522 275.856 239.602 276.449C238.729 277.012 238.098 277.914 237.711 279.156C237.313 280.405 237.303 281.842 237.684 283.467ZM248.035 283.213L239.606 288.645L240.017 289.283C241.068 290.915 242.179 291.931 243.348 292.333C244.518 292.734 245.602 292.612 246.602 291.968C247.682 291.272 248.38 290.172 248.696 288.667C249 287.17 248.779 285.352 248.035 283.213ZM228.913 280.124L234.687 301.453L232.194 302.608L231.175 298.899C230.688 300.903 230.096 302.406 229.399 303.407C228.709 304.42 227.917 305.134 227.024 305.548C225.771 306.129 224.565 306.176 223.405 305.689C222.232 305.207 221.287 304.192 220.568 302.641C220.246 301.947 219.859 300.755 219.407 299.065L215.907 286.153L218.68 284.868L222.327 298.39C222.685 299.716 222.999 300.67 223.27 301.253C223.586 301.935 224.032 302.376 224.607 302.577C225.175 302.796 225.795 302.75 226.464 302.439C227.854 301.795 228.822 300.6 229.369 298.855C229.903 297.115 229.727 294.605 228.839 291.325L226.159 281.4L228.913 280.124ZM206.175 293.034L205.693 289.99C206.302 289.535 206.93 289.196 207.577 288.974C208.65 288.605 209.601 288.596 210.43 288.947C211.246 289.303 211.819 289.959 212.148 290.915C212.303 291.368 212.519 292.458 212.795 294.185L214.872 306.851L217.141 306.07L217.609 308.946L215.34 309.726L216.208 315.087L213.744 318.645L212.451 310.719L209.638 311.686L209.17 308.811L211.983 307.844L210.027 295.786C209.771 294.241 209.598 293.339 209.509 293.08C209.353 292.628 209.137 292.334 208.859 292.198C208.581 292.062 208.228 292.068 207.802 292.214C207.168 292.432 206.626 292.705 206.175 293.034ZM205.996 316.845L206.423 321.089L203.497 321.896L203.07 317.653L205.996 316.845ZM203.385 290.738L205.582 312.726L202.656 313.533L200.459 291.546L203.385 290.738ZM189.971 297.054L189.86 293.974C190.52 293.596 191.185 293.335 191.854 293.193C192.963 292.957 193.909 293.063 194.689 293.511C195.456 293.963 195.945 294.684 196.156 295.673C196.256 296.141 196.338 297.249 196.403 298.996L196.933 311.821L199.28 311.321L199.397 314.231L197.05 314.731L197.263 320.159L194.387 323.392L194.061 315.368L191.153 315.988L191.036 313.077L193.945 312.457L193.462 300.252C193.394 298.687 193.332 297.771 193.275 297.503C193.175 297.035 192.996 296.717 192.736 296.549C192.477 296.38 192.126 296.343 191.685 296.437C191.03 296.577 190.458 296.782 189.971 297.054ZM187.542 285.932L187.753 289.417C187.103 289.271 186.487 289.231 185.902 289.297C185.291 289.367 184.821 289.585 184.491 289.953C184.027 290.474 183.581 291.384 183.151 292.686L182.434 294.914L187.857 316.278L184.882 316.617L182.293 305.828C181.772 303.672 181.296 301.538 180.863 299.427L174.918 317.75L171.76 318.11L180.28 292.31C181.127 289.71 181.943 287.993 182.729 287.161C183.501 286.33 184.403 285.856 185.436 285.738C186.142 285.658 186.844 285.722 187.542 285.932ZM149.333 298.406C151.25 296.123 153.162 295.059 155.069 295.217C156.704 295.352 158.033 296.209 159.055 297.788C160.077 299.368 160.466 301.643 160.221 304.613C160.002 307.27 159.345 309.665 158.25 311.797C157.154 313.943 155.895 315.485 154.473 316.424C153.051 317.363 151.679 317.778 150.358 317.669C148.164 317.488 146.616 316.05 145.713 313.356L142.748 324.861L139.723 324.612L147.324 295.072L150.124 295.303L149.333 298.406ZM157.14 305.038L157.233 304.161C157.382 302.363 157.087 300.857 156.35 299.644C155.783 298.705 154.975 298.193 153.926 298.106C152.563 297.994 151.244 298.763 149.97 300.414C148.292 302.621 147.314 305.422 147.034 308.814C146.89 310.558 147.161 311.939 147.845 312.955C148.529 313.972 149.396 314.524 150.445 314.61C151.467 314.695 152.465 314.317 153.44 313.479C154.415 312.64 155.25 311.33 155.945 309.549C156.641 307.768 157.039 306.265 157.14 305.038ZM128.569 298.899L125.749 297.886C126.694 295.927 128.214 294.377 130.306 293.236C132.051 292.27 133.817 291.987 135.605 292.39C136.872 292.675 137.949 293.275 138.836 294.189C139.721 295.117 140.316 296.33 140.624 297.829C140.928 299.34 140.867 301.043 140.441 302.937C139.879 305.432 138.889 307.654 137.469 309.605C136.035 311.552 134.527 312.867 132.945 313.548C131.359 314.242 129.773 314.41 128.185 314.053C126.171 313.6 124.703 312.463 123.781 310.644C122.846 308.822 122.694 306.511 123.324 303.71C123.558 302.669 123.872 301.619 124.265 300.558L137.109 303.449C137.246 303.031 137.351 302.655 137.426 302.322C137.876 300.321 137.839 298.715 137.312 297.504C136.783 296.306 135.985 295.586 134.918 295.346C133.904 295.118 132.819 295.301 131.662 295.896C130.492 296.487 129.461 297.488 128.569 298.899ZM136.008 306.102L126.224 303.9L126.058 304.64C125.631 306.534 125.685 308.039 126.219 309.154C126.753 310.269 127.6 310.957 128.76 311.218C130.014 311.501 131.288 311.227 132.582 310.397C133.862 309.564 135.004 308.132 136.008 306.102ZM125.021 290.424L110.762 317.388L107.859 316.436L122.117 289.472L125.021 290.424ZM103.004 289.508L100.429 287.975C101.732 286.232 103.519 285.001 105.791 284.282C107.689 283.666 109.476 283.727 111.154 284.464C112.343 284.986 113.286 285.78 113.982 286.848C114.672 287.927 115.025 289.232 115.041 290.762C115.05 292.304 114.665 293.964 113.884 295.741C112.857 298.082 111.459 300.074 109.693 301.718C107.913 303.355 106.182 304.357 104.498 304.723C102.809 305.101 101.22 304.963 99.7301 304.309C97.8398 303.479 96.6161 302.083 96.059 300.122C95.4893 298.154 95.7816 295.856 96.9359 293.227C97.3646 292.251 97.8731 291.28 98.4616 290.314L110.517 295.607C110.73 295.223 110.906 294.874 111.043 294.561C111.867 292.683 112.137 291.1 111.852 289.81C111.562 288.533 110.916 287.674 109.915 287.234C108.963 286.817 107.863 286.789 106.614 287.151C105.352 287.508 104.149 288.294 103.004 289.508ZM108.928 298L99.7461 293.968L99.441 294.663C98.6605 296.441 98.4257 297.928 98.7365 299.125C99.0472 300.321 99.7472 301.159 100.836 301.637C102.013 302.153 103.316 302.128 104.744 301.561C106.161 300.988 107.555 299.801 108.928 298ZM93.2546 279.49L95.2174 277.114C95.9623 277.27 96.6319 277.517 97.2263 277.855C98.2129 278.415 98.8489 279.122 99.1342 279.976C99.4077 280.823 99.2945 281.687 98.7948 282.567C98.5584 282.983 97.884 283.865 96.7715 285.215L88.6489 295.153L90.7351 296.338L88.8889 298.591L86.8027 297.406L83.3563 301.604L79.0587 302.111L84.1458 295.896L81.5603 294.428L83.4065 292.174L85.992 293.643L93.7394 284.2C94.7284 282.985 95.2905 282.258 95.4256 282.02C95.6619 281.604 95.739 281.247 95.6569 280.949C95.5748 280.651 95.3375 280.39 94.9453 280.167C94.3628 279.836 93.7992 279.611 93.2546 279.49ZM78.0853 274.192L75.8785 272.165C77.5095 270.725 79.5106 269.886 81.8817 269.645C83.865 269.431 85.6025 269.855 87.0941 270.919C88.1516 271.673 88.9121 272.643 89.3755 273.83C89.831 275.028 89.91 276.378 89.6124 277.878C89.3069 279.39 88.5905 280.936 87.4633 282.517C85.979 284.598 84.2042 286.263 82.1391 287.511C80.0629 288.75 78.1633 289.377 76.4405 289.391C74.7098 289.417 73.182 288.957 71.8574 288.012C70.1765 286.814 69.2638 285.197 69.1191 283.163C68.9633 281.121 69.7189 278.931 71.3858 276.593C72.0049 275.725 72.7012 274.878 73.4745 274.053L84.1942 281.697C84.4816 281.364 84.7246 281.059 84.923 280.781C86.1137 279.111 86.7013 277.616 86.686 276.295C86.6627 274.986 86.2058 274.013 85.3152 273.378C84.4692 272.775 83.3978 272.523 82.101 272.623C80.7931 272.714 79.4545 273.237 78.0853 274.192ZM82.1504 283.715L73.9854 277.893L73.5448 278.511C72.4177 280.091 71.884 281.499 71.9438 282.734C72.0036 283.969 72.5177 284.932 73.4861 285.622C74.5325 286.368 75.8129 286.61 77.3273 286.346C78.8306 286.075 80.4383 285.198 82.1504 283.715ZM78.0667 253.803L75.3967 256.052C75.1262 255.444 74.79 254.925 74.388 254.496C73.9673 254.047 73.511 253.801 73.0191 253.756C72.3247 253.694 71.3273 253.88 70.0268 254.312L67.8115 255.067L53.9091 272.172L51.8616 269.987L58.9713 261.469C60.3904 259.764 61.8175 258.108 63.2528 256.5L45.0039 262.67L42.8302 260.351L68.6143 251.785C71.2058 250.911 73.0701 250.541 74.2071 250.675C75.3348 250.798 76.2539 251.239 76.9645 251.997C77.4506 252.516 77.818 253.118 78.0667 253.803ZM52.7763 250.773C49.5861 253.058 46.3771 254.271 43.1493 254.413C39.9216 254.555 37.4441 253.42 35.7168 251.008C34.5069 249.318 34.1582 247.458 34.6707 245.426C35.1721 243.402 36.6177 241.535 39.0076 239.823C41.1974 238.255 43.4244 237.232 45.6887 236.754C47.9449 236.265 49.9364 236.311 51.6631 236.89C53.3707 237.467 54.6942 238.411 55.6334 239.722C56.8672 241.445 57.2525 243.322 56.7892 245.352C56.3149 247.39 54.9772 249.197 52.7763 250.773ZM50.6971 248.504C52.3756 247.302 53.404 246.061 53.7823 244.781C54.1607 243.501 53.9916 242.361 53.2752 241.361C52.7101 240.571 51.8281 240.009 50.6294 239.674C49.4195 239.346 47.8644 239.417 45.9642 239.886C44.0639 240.356 42.3357 241.148 40.7794 242.262C39.0899 243.472 38.0503 244.721 37.6609 246.009C37.2603 247.305 37.4103 248.442 38.1108 249.42C38.7237 250.276 39.6375 250.883 40.8521 251.24C42.0589 251.587 43.5948 251.513 45.4601 251.018C47.3063 250.52 49.052 249.682 50.6971 248.504ZM39.9283 222.161C43.5402 222.693 45.8663 223.952 46.9065 225.938C47.5091 227.088 47.6047 228.273 47.1934 229.492C46.7758 230.698 45.919 231.641 44.6231 232.319C43.7995 232.751 42.3179 233.31 40.1782 233.999L28.0427 237.923L26.6346 235.235L40.0738 230.882C41.1984 230.525 42.0393 230.2 42.5964 229.908C43.3594 229.509 43.8425 229.016 44.0455 228.432C44.2365 227.853 44.1543 227.225 43.7991 226.547C43.2981 225.59 42.4186 224.839 41.1609 224.294C39.8846 223.743 38.5571 223.551 37.1781 223.717C35.7807 223.878 34.0214 224.305 31.9002 225L22.8098 227.931L21.4017 225.243L42.427 218.445L43.7304 220.934L39.9283 222.161ZM40.5187 214.528L18.8724 218.967L17.8959 216.464L22.3175 215.554C18.597 215.083 16.4088 214.007 15.7528 212.326C15.5292 211.752 15.5043 210.955 15.678 209.933L19.3424 209.846C19.1031 210.512 19.0903 211.119 19.304 211.667C19.7115 212.711 20.8067 213.487 22.5898 213.995C24.3551 214.495 27.0843 214.362 30.7773 213.596L39.4678 211.835L40.5187 214.528ZM7.8547 197.304L3.59895 197.584L2.89298 194.632L7.14873 194.352L7.8547 197.304ZM34.0361 195.597L11.986 197.033L11.28 194.081L33.3301 192.645L34.0361 195.597ZM27.6688 176.975C30.3152 178.348 31.7693 179.983 32.0311 181.879C32.2555 183.505 31.7082 184.988 30.3891 186.329C29.0699 187.671 26.9341 188.546 23.9817 188.953C21.3407 189.318 18.8606 189.198 16.5413 188.594C14.2084 187.991 12.4289 187.098 11.2028 185.915C9.97667 184.732 9.2729 183.483 9.09149 182.169C8.79039 179.989 9.85655 178.165 12.29 176.697L0.415164 176.308L-2.43263e-05 173.301L30.4859 174.288L30.8703 177.071L27.6688 176.975ZM22.8961 186.039L23.7725 185.939C25.5602 185.692 26.9658 185.077 27.9894 184.094C28.7818 183.336 29.106 182.435 28.962 181.392C28.775 180.038 27.7371 178.918 25.8483 178.034C23.3285 176.877 20.3825 176.532 17.0102 176.998C15.2767 177.237 13.9882 177.801 13.1449 178.691C12.3016 179.58 11.952 180.546 12.096 181.589C12.2363 182.605 12.8218 183.497 13.8526 184.265C14.8835 185.034 16.3437 185.564 18.2333 185.855C20.123 186.146 21.6772 186.208 22.8961 186.039ZM22.6554 156.823L23.0278 153.85C25.1464 154.345 26.9909 155.488 28.5612 157.281C29.8858 158.773 30.5471 160.434 30.5451 162.266C30.5438 163.565 30.1939 164.747 29.4955 165.813C28.7834 166.879 27.7297 167.725 26.3345 168.353C24.9257 168.98 23.2505 169.293 21.3091 169.291C18.7525 169.288 16.3673 168.807 14.1534 167.848C11.9396 166.874 10.3276 165.69 9.31738 164.295C8.29348 162.899 7.7824 161.388 7.78413 159.761C7.78634 157.696 8.57426 156.015 10.1479 154.718C11.7216 153.407 13.944 152.754 16.815 152.757C17.8815 152.758 18.9751 152.834 20.0961 152.986L20.082 166.152C20.5195 166.193 20.9091 166.214 21.2509 166.214C23.3017 166.217 24.8607 165.829 25.9279 165.051C26.9815 164.272 27.5088 163.336 27.51 162.243C27.5111 161.204 27.0952 160.185 26.2623 159.186C25.4294 158.173 24.2271 157.386 22.6554 156.823ZM17.2525 165.657L17.2632 155.628L16.5044 155.627C14.563 155.625 13.1065 156.007 12.135 156.771C11.1635 157.536 10.6771 158.513 10.6758 159.702C10.6744 160.987 11.22 162.171 12.3126 163.252C13.4052 164.319 15.0519 165.121 17.2525 165.657ZM30.2228 151.27L9.17181 144.553L9.55301 141.831L13.2221 142.987C11.8027 141.49 10.8613 140.178 10.3981 139.05C9.9213 137.921 9.75118 136.868 9.88773 135.893C10.0793 134.526 10.6942 133.487 11.7325 132.776C12.7727 132.052 14.139 131.809 15.8314 132.046C16.5897 132.152 17.8009 132.474 19.4652 133.01L32.2113 137.074L31.7874 140.1L18.4491 135.829C17.1409 135.411 16.1686 135.158 15.5323 135.069C14.7876 134.964 14.175 135.1 13.6946 135.474C13.2026 135.833 12.9053 136.378 12.8029 137.109C12.5905 138.626 13.0692 140.087 14.2389 141.493C15.4105 142.886 17.6151 144.099 20.8527 145.133L30.6438 148.264L30.2228 151.27ZM31.7112 125.165L34.5296 126.412C34.5814 127.171 34.5252 127.882 34.3611 128.546C34.0888 129.647 33.5802 130.451 32.8355 130.957C32.094 131.45 31.2322 131.575 30.25 131.332C29.7855 131.217 28.7532 130.807 27.153 130.102L15.3863 124.974L14.8105 127.304L12.1414 126.137L12.7173 123.807L7.74268 121.627L6.09086 117.627L13.4507 120.841L14.1643 117.954L16.8334 119.121L16.1197 122.008L27.3088 126.908C28.7463 127.531 29.5977 127.875 29.8631 127.941C30.3277 128.056 30.6924 128.033 30.9572 127.873C31.2221 127.713 31.4086 127.414 31.5169 126.976C31.6777 126.326 31.7425 125.722 31.7112 125.165ZM11.8143 112.082L8.01923 110.136L8.92993 107.241L12.725 109.187L11.8143 112.082ZM35.1539 124.067L15.4981 113.972L16.4088 111.077L36.0646 121.172L35.1539 124.067ZM37.1743 109.375L39.8135 110.966C39.7693 111.725 39.624 112.424 39.3777 113.062C38.9688 114.12 38.3631 114.854 37.5606 115.262C36.763 115.657 35.8923 115.673 34.9485 115.308C34.5022 115.136 33.5297 114.599 32.0311 113.698L21.0034 107.13L20.1389 109.368L17.638 107.875L18.5025 105.636L13.842 102.847L12.7068 98.6711L19.6035 102.786L20.6749 100.012L23.1758 101.506L22.1044 104.279L32.5877 110.549C33.9353 111.348 34.7366 111.797 34.9916 111.895C35.438 112.068 35.8027 112.091 36.0855 111.966C36.3684 111.841 36.5911 111.568 36.7537 111.147C36.995 110.522 37.1353 109.931 37.1743 109.375Z" fill="#FF0000"/>
</svg>
