<svg width="237" height="223" viewBox="0 0 237 223" fill="none" xmlns="http://www.w3.org/2000/svg">
<path d="M198.679 174.428C196.864 157.416 192.79 147.159 181.228 132.318L170.18 124.984C164.98 122.141 158.845 126.722 160.093 132.515L162.433 143.372C164.448 152.72 153.791 158.609 148.084 150.936C139.713 139.679 133.912 127.572 127.324 110.637C126.456 108.405 124.823 106.536 122.685 105.459C107.048 97.5843 96.9891 95.2531 78.0337 83.6536C57.7777 71.2582 58.3483 67.037 42.7616 59.1425C23.0831 55.2186 11.2263 52.3825 2.72773 42.4849C-3.84281 33.0032 2.59755 32.4387 9.9995 29.5166C24.8945 26.3636 32.235 28.7651 42.4983 21.1467C60.9434 3.55303 74.9034 -1.87403 109.662 0.544112C138.365 5.42367 155.085 9.90058 182.359 17.8946C185.389 18.7827 188.677 18.1476 191.219 16.274C208.824 3.29768 219.528 -0.439951 229.339 0.224087C237.232 0.758285 238.393 11.2083 232.844 16.8475C223.107 26.7441 218.99 37.1482 215.498 53.7129C232.827 106.681 232.757 136.439 216.664 186.833C215.952 189.062 216.248 191.511 217.472 193.506C222.095 201.043 225.679 207.552 227.938 214.096C231.277 223.765 217.396 225.137 210.251 217.816C208.302 215.818 206.102 213.766 203.609 211.606C196.071 207.04 190.13 204.614 184.211 203.436C176.107 201.823 170.997 192.613 178.096 188.383C181.898 186.117 186.438 184.372 192.359 182.93C196.272 181.977 199.106 178.433 198.679 174.428Z" fill="#FFE100"/>
</svg>
