<svg width="543" height="450" viewBox="0 0 543 450" fill="none" xmlns="http://www.w3.org/2000/svg">
<mask id="path-1-inside-1_0_200" fill="white">
<path d="M231 0C217.569 0 205.685 6.61992 198.431 16.7744L195.355 15C191.529 12.791 186.637 14.1017 184.428 17.9277L146.369 83.8477C146.235 84.0793 146.115 84.3151 146.007 84.5537L142.39 90.3545C140.052 94.1035 141.195 99.0381 144.944 101.376L208.397 140.945L226.158 236.851L64.3213 390.36C58.8326 388.841 52.8135 388 46.5 388C20.8188 388 0 401.879 0 419C0 436.121 20.8188 450 46.5 450C72.1812 450 93 436.121 93 419C93 416.848 92.6718 414.748 92.0459 412.72L249.887 263H292.027L349.88 366.865C351.822 370.351 355.982 371.818 359.613 370.486C360.402 370.327 361.18 370.047 361.92 369.635L475.176 306.553C481.563 308.754 488.813 310 496.5 310C522.181 310 543 296.121 543 279C543 261.879 522.181 248 496.5 248C470.819 248 450 261.879 450 279C450 279.384 450.011 279.767 450.032 280.147L367.57 326.078L316.349 234.117L336.251 126.649L379.745 76.7285C382.647 73.3973 382.299 68.3437 378.968 65.4414L373.817 60.9531C373.643 60.7552 373.458 60.5644 373.261 60.3809L317.604 8.45703C314.373 5.44323 309.311 5.61909 306.297 8.84961L293.13 22.9639C290.116 26.1946 290.292 31.2566 293.522 34.2705L335.664 73.583L311.776 101H276.655L260.02 67.5283C266.824 60.3571 271 50.6664 271 40C271 17.9086 253.091 0 231 0ZM198.771 63.6895C205.23 72.4624 215.182 78.5025 226.578 79.7559L237.137 101H216.629C215.088 101 213.619 101.265 212.26 101.749L186.185 85.4893L198.771 63.6895Z"/>
</mask>
<path d="M231 0C217.569 0 205.685 6.61992 198.431 16.7744L195.355 15C191.529 12.791 186.637 14.1017 184.428 17.9277L146.369 83.8477C146.235 84.0793 146.115 84.3151 146.007 84.5537L142.39 90.3545C140.052 94.1035 141.195 99.0381 144.944 101.376L208.397 140.945L226.158 236.851L64.3213 390.36C58.8326 388.841 52.8135 388 46.5 388C20.8188 388 0 401.879 0 419C0 436.121 20.8188 450 46.5 450C72.1812 450 93 436.121 93 419C93 416.848 92.6718 414.748 92.0459 412.72L249.887 263H292.027L349.88 366.865C351.822 370.351 355.982 371.818 359.613 370.486C360.402 370.327 361.18 370.047 361.92 369.635L475.176 306.553C481.563 308.754 488.813 310 496.5 310C522.181 310 543 296.121 543 279C543 261.879 522.181 248 496.5 248C470.819 248 450 261.879 450 279C450 279.384 450.011 279.767 450.032 280.147L367.57 326.078L316.349 234.117L336.251 126.649L379.745 76.7285C382.647 73.3973 382.299 68.3437 378.968 65.4414L373.817 60.9531C373.643 60.7552 373.458 60.5644 373.261 60.3809L317.604 8.45703C314.373 5.44323 309.311 5.61909 306.297 8.84961L293.13 22.9639C290.116 26.1946 290.292 31.2566 293.522 34.2705L335.664 73.583L311.776 101H276.655L260.02 67.5283C266.824 60.3571 271 50.6664 271 40C271 17.9086 253.091 0 231 0ZM198.771 63.6895C205.23 72.4624 215.182 78.5025 226.578 79.7559L237.137 101H216.629C215.088 101 213.619 101.265 212.26 101.749L186.185 85.4893L198.771 63.6895Z" fill="url(#paint0_radial_0_200)"/>
<path d="M198.431 16.7744L199.244 17.3557L198.717 18.0941L197.931 17.6406L198.431 16.7744ZM195.355 15L194.856 15.8662L194.855 15.866L195.355 15ZM184.428 17.9277L183.562 17.4277L183.562 17.4277L184.428 17.9277ZM146.369 83.8477L145.503 83.3477L145.503 83.3477L146.369 83.8477ZM146.007 84.5537L146.918 84.9665L146.89 85.0267L146.855 85.0828L146.007 84.5537ZM142.39 90.3545L143.238 90.8836V90.8836L142.39 90.3545ZM144.944 101.376L144.415 102.225V102.225L144.944 101.376ZM208.397 140.945L208.927 140.097L209.301 140.33L209.381 140.763L208.397 140.945ZM226.158 236.851L227.141 236.668L227.24 237.202L226.846 237.576L226.158 236.851ZM64.3213 390.36L65.0095 391.086L64.5993 391.475L64.0545 391.324L64.3213 390.36ZM92.0459 412.72L91.0904 413.015L90.9073 412.421L91.3577 411.994L92.0459 412.72ZM249.887 263L249.199 262.274L249.488 262H249.887V263ZM292.027 263V262H292.615L292.901 262.513L292.027 263ZM349.88 366.865L349.006 367.352H349.006L349.88 366.865ZM359.613 370.486L359.269 369.547L359.34 369.521L359.415 369.506L359.613 370.486ZM361.92 369.635L362.407 370.508L362.406 370.508L361.92 369.635ZM475.176 306.553L474.689 305.679L475.079 305.462L475.502 305.607L475.176 306.553ZM450.032 280.147L451.031 280.093L451.065 280.717L450.519 281.021L450.032 280.147ZM367.57 326.078L368.057 326.952L367.183 327.438L366.697 326.565L367.57 326.078ZM316.349 234.117L315.475 234.604L315.3 234.289L315.365 233.935L316.349 234.117ZM336.251 126.649L335.268 126.467L335.317 126.199L335.497 125.993L336.251 126.649ZM379.745 76.7285L380.499 77.3854L380.499 77.3854L379.745 76.7285ZM378.968 65.4414L378.311 66.1954L378.311 66.1953L378.968 65.4414ZM373.817 60.9531L373.16 61.707L373.11 61.6634L373.067 61.6136L373.817 60.9531ZM373.261 60.3809L373.943 59.6497V59.6497L373.261 60.3809ZM317.604 8.45703L318.286 7.72581L318.286 7.72583L317.604 8.45703ZM306.297 8.84961L305.566 8.16747L305.566 8.16744L306.297 8.84961ZM293.13 22.9639L293.861 23.646V23.646L293.13 22.9639ZM293.522 34.2705L292.84 35.0017L292.84 35.0017L293.522 34.2705ZM335.664 73.583L336.346 72.8518L337.053 73.5111L336.418 74.2399L335.664 73.583ZM311.776 101L312.53 101.657L312.231 102H311.776V101ZM276.655 101V102H276.036L275.76 101.445L276.655 101ZM260.02 67.5283L259.124 67.9734L258.813 67.3472L259.294 66.84L260.02 67.5283ZM198.771 63.6895L197.904 63.1895L198.669 61.8651L199.576 63.0966L198.771 63.6895ZM226.578 79.7559L226.687 78.7619L227.23 78.8216L227.474 79.3108L226.578 79.7559ZM237.137 101L238.032 100.555L238.75 102H237.137V101ZM212.26 101.749L212.595 102.691L212.14 102.853L211.731 102.598L212.26 101.749ZM186.185 85.4893L185.655 86.3378L184.835 85.8264L185.319 84.9893L186.185 85.4893ZM231 0V1C217.906 1 206.319 7.45266 199.244 17.3557L198.431 16.7744L197.617 16.1931C205.051 5.78719 217.233 -1 231 -1V0ZM198.431 16.7744L197.931 17.6406L194.856 15.8662L195.355 15L195.855 14.1338L198.93 15.9083L198.431 16.7744ZM195.355 15L194.855 15.866C191.508 13.9331 187.227 15.08 185.294 18.4278L184.428 17.9277L183.562 17.4277C186.047 13.1234 191.551 11.6489 195.855 14.134L195.355 15ZM184.428 17.9277L185.294 18.4277L147.235 84.3477L146.369 83.8477L145.503 83.3477L183.562 17.4277L184.428 17.9277ZM146.369 83.8477L147.235 84.3476C147.118 84.5499 147.013 84.7565 146.918 84.9665L146.007 84.5537L145.096 84.1409C145.217 83.8736 145.352 83.6087 145.503 83.3477L146.369 83.8477ZM146.007 84.5537L146.855 85.0828L143.238 90.8836L142.39 90.3545L141.541 89.8254L145.158 84.0246L146.007 84.5537ZM142.39 90.3545L143.238 90.8836C141.192 94.1641 142.193 98.4818 145.473 100.527L144.944 101.376L144.415 102.225C140.197 99.5943 138.911 94.0429 141.541 89.8253L142.39 90.3545ZM144.944 101.376L145.473 100.527L208.927 140.097L208.397 140.945L207.868 141.794L144.415 102.225L144.944 101.376ZM208.397 140.945L209.381 140.763L227.141 236.668L226.158 236.851L225.175 237.033L207.414 141.127L208.397 140.945ZM226.158 236.851L226.846 237.576L65.0095 391.086L64.3213 390.36L63.6331 389.635L225.47 236.125L226.158 236.851ZM64.3213 390.36L64.0545 391.324C58.6547 389.829 52.7255 389 46.5 389V388V387C52.9016 387 59.0105 387.852 64.5881 389.397L64.3213 390.36ZM46.5 388V389C33.8293 389 22.4033 392.426 14.1743 397.912C5.93817 403.402 1 410.878 1 419H0H-1C-1 410.001 4.47119 401.977 13.0648 396.248C21.6655 390.514 33.4895 387 46.5 387V388ZM0 419H1C1 427.122 5.93817 434.598 14.1743 440.088C22.4033 445.574 33.8293 449 46.5 449V450V451C33.4895 451 21.6655 447.486 13.0648 441.752C4.47119 436.023 -1 427.999 -1 419H0ZM46.5 450V449C59.1707 449 70.5967 445.574 78.8258 440.088C87.0618 434.598 92 427.122 92 419H93H94C94 427.999 88.5288 436.023 79.9352 441.752C71.3345 447.486 59.5105 451 46.5 451V450ZM93 419H92C92 416.951 91.6877 414.95 91.0904 413.015L92.0459 412.72L93.0014 412.425C93.656 414.546 94 416.746 94 419H93ZM92.0459 412.72L91.3577 411.994L249.199 262.274L249.887 263L250.575 263.726L92.7341 413.445L92.0459 412.72ZM249.887 263V262H292.027V263V264H249.887V263ZM292.027 263L292.901 262.513L350.754 366.379L349.88 366.865L349.006 367.352L291.154 263.487L292.027 263ZM349.88 366.865L350.753 366.379C352.452 369.428 356.092 370.713 359.269 369.547L359.613 370.486L359.958 371.425C355.872 372.924 351.191 371.274 349.006 367.352L349.88 366.865ZM359.613 370.486L359.415 369.506C360.105 369.366 360.786 369.122 361.433 368.761L361.92 369.635L362.406 370.508C361.573 370.972 360.698 371.287 359.812 371.466L359.613 370.486ZM361.92 369.635L361.433 368.761L474.689 305.679L475.176 306.553L475.662 307.426L362.407 370.508L361.92 369.635ZM475.176 306.553L475.502 305.607C481.78 307.771 488.92 309 496.5 309V310V311C488.707 311 481.346 309.737 474.85 307.498L475.176 306.553ZM496.5 310V309C509.171 309 520.597 305.574 528.826 300.088C537.062 294.598 542 287.122 542 279H543H544C544 287.999 538.529 296.023 529.935 301.752C521.335 307.486 509.511 311 496.5 311V310ZM543 279H542C542 270.878 537.062 263.402 528.826 257.912C520.597 252.426 509.171 249 496.5 249V248V247C509.511 247 521.335 250.514 529.935 256.248C538.529 261.977 544 270.001 544 279H543ZM496.5 248V249C483.829 249 472.403 252.426 464.174 257.912C455.938 263.402 451 270.878 451 279H450H449C449 270.001 454.471 261.977 463.065 256.248C471.665 250.514 483.489 247 496.5 247V248ZM450 279H451C451 279.364 451.011 279.729 451.031 280.093L450.032 280.147L449.034 280.202C449.012 279.805 449 279.404 449 279H450ZM450.032 280.147L450.519 281.021L368.057 326.952L367.57 326.078L367.084 325.204L449.546 279.274L450.032 280.147ZM367.57 326.078L366.697 326.565L315.475 234.604L316.349 234.117L317.222 233.631L368.444 325.592L367.57 326.078ZM316.349 234.117L315.365 233.935L335.268 126.467L336.251 126.649L337.234 126.832L317.332 234.299L316.349 234.117ZM336.251 126.649L335.497 125.993L378.991 76.0716L379.745 76.7285L380.499 77.3854L337.005 127.306L336.251 126.649ZM379.745 76.7285L378.991 76.0716C381.53 73.1569 381.226 68.735 378.311 66.1954L378.968 65.4414L379.625 64.6874C383.372 67.9525 383.764 73.6376 380.499 77.3854L379.745 76.7285ZM378.968 65.4414L378.311 66.1953L373.16 61.707L373.817 60.9531L374.474 60.1992L379.625 64.6875L378.968 65.4414ZM373.817 60.9531L373.067 61.6136C372.915 61.4413 372.752 61.2741 372.579 61.1121L373.261 60.3809L373.943 59.6497C374.163 59.8548 374.372 60.0691 374.568 60.2927L373.817 60.9531ZM373.261 60.3809L372.579 61.1121L316.921 9.18824L317.604 8.45703L318.286 7.72583L373.943 59.6497L373.261 60.3809ZM317.604 8.45703L316.921 9.18825C314.095 6.55121 309.665 6.70505 307.028 9.53178L306.297 8.84961L305.566 8.16744C308.956 4.53313 314.651 4.33526 318.286 7.72581L317.604 8.45703ZM306.297 8.84961L307.028 9.53175L293.861 23.646L293.13 22.9639L292.399 22.2817L305.566 8.16747L306.297 8.84961ZM293.13 22.9639L293.861 23.646C291.224 26.4728 291.378 30.9021 294.205 33.5393L293.522 34.2705L292.84 35.0017C289.206 31.6111 289.008 25.9163 292.399 22.2817L293.13 22.9639ZM293.522 34.2705L294.205 33.5393L336.346 72.8518L335.664 73.583L334.982 74.3142L292.84 35.0017L293.522 34.2705ZM335.664 73.583L336.418 74.2399L312.53 101.657L311.776 101L311.022 100.343L334.91 72.9261L335.664 73.583ZM311.776 101V102H276.655V101V100H311.776V101ZM276.655 101L275.76 101.445L259.124 67.9734L260.02 67.5283L260.915 67.0833L277.551 100.555L276.655 101ZM260.02 67.5283L259.294 66.84C265.93 59.8471 270 50.4001 270 40H271H272C272 50.9327 267.719 60.8671 260.745 68.2167L260.02 67.5283ZM271 40H270C270 18.4609 252.539 1 231 1V0V-1C253.644 -1 272 17.3563 272 40H271ZM198.771 63.6895L199.576 63.0966C205.875 71.6525 215.579 77.5402 226.687 78.7619L226.578 79.7559L226.469 80.7499C214.785 79.4649 204.584 73.2724 197.965 64.2823L198.771 63.6895ZM226.578 79.7559L227.474 79.3108L238.032 100.555L237.137 101L236.241 101.445L225.683 80.2009L226.578 79.7559ZM237.137 101V102H216.629V101V100H237.137V101ZM216.629 101V102C215.204 102 213.848 102.245 212.595 102.691L212.26 101.749L211.924 100.807C213.39 100.285 214.973 100 216.629 100V101ZM212.26 101.749L211.731 102.598L185.655 86.3378L186.185 85.4893L186.714 84.6407L212.789 100.9L212.26 101.749ZM186.185 85.4893L185.319 84.9893L197.904 63.1895L198.771 63.6895L199.637 64.1894L187.051 85.9893L186.185 85.4893Z" fill="black" mask="url(#path-1-inside-1_0_200)"/>
<defs>
<radialGradient id="paint0_radial_0_200" cx="0" cy="0" r="1" gradientUnits="userSpaceOnUse" gradientTransform="translate(256 156.5) rotate(18.0042) scale(42.0595 50.7518)">
<stop stop-color="#FFE100"/>
<stop offset="0.639423" stop-color="#FF009D"/>
<stop offset="1" stop-color="#CC00FF"/>
</radialGradient>
</defs>
</svg>
