<svg width="804" height="324" viewBox="0 0 804 324" fill="none" xmlns="http://www.w3.org/2000/svg">
<rect x="2" y="2" width="800" height="320" fill="#FF051A" stroke="#C6C6C6" stroke-width="4"/>
<rect x="2" y="2" width="800" height="60" fill="#0037FF" stroke="#C6C6C6" stroke-width="4"/>
<path d="M24.6616 21.4328V27.509H28.9815V28.9221H24.6616V40.913C24.6616 42.1107 24.8298 42.9182 25.1663 43.3354C25.5162 43.7526 25.9603 43.9611 26.4986 43.9611C26.9427 43.9611 27.3733 43.8266 27.7905 43.5574C28.2077 43.2748 28.5307 42.8643 28.7595 42.326H29.5468C29.0757 43.6449 28.4096 44.6408 27.5483 45.3137C26.687 45.9731 25.7988 46.3028 24.8837 46.3028C24.2646 46.3028 23.659 46.1346 23.0669 45.7981C22.4747 45.4482 22.0373 44.957 21.7547 44.3245C21.4721 43.6785 21.3308 42.6894 21.3308 41.3571V28.9221H18.4037V28.2559C19.1439 27.9599 19.8975 27.4619 20.6646 26.7621C21.4452 26.0489 22.1383 25.2077 22.7439 24.2388C23.0534 23.7274 23.484 22.7921 24.0358 21.4328H24.6616ZM35.7441 39.2577C34.6136 38.7059 33.7456 37.9388 33.14 36.9564C32.5344 35.9605 32.2316 34.8637 32.2316 33.666C32.2316 31.8357 32.9179 30.2611 34.2906 28.9423C35.6768 27.6234 37.4465 26.964 39.5997 26.964C41.3627 26.964 42.8902 27.3946 44.1821 28.2559H48.0983C48.677 28.2559 49.0134 28.2761 49.1076 28.3165C49.2018 28.3434 49.2691 28.3972 49.3095 28.478C49.3903 28.5991 49.4306 28.8144 49.4306 29.124C49.4306 29.4739 49.397 29.7161 49.3297 29.8507C49.2893 29.918 49.2153 29.9718 49.1076 30.0122C49.0134 30.0525 48.677 30.0727 48.0983 30.0727H45.6961C46.4497 31.0417 46.8266 32.2798 46.8266 33.7871C46.8266 35.5097 46.1671 36.9833 44.8483 38.2079C43.5294 39.4326 41.7597 40.0449 39.5392 40.0449C38.624 40.0449 37.6887 39.9104 36.7332 39.6412C36.1411 40.1526 35.7373 40.6034 35.522 40.9937C35.3202 41.3705 35.2192 41.6935 35.2192 41.9627C35.2192 42.1914 35.3269 42.4135 35.5422 42.6288C35.771 42.8442 36.2084 42.9989 36.8543 43.0931C37.2312 43.147 38.1732 43.1941 39.6805 43.2344C42.4528 43.3017 44.2494 43.3959 45.0703 43.517C46.3219 43.692 47.3178 44.1563 48.0579 44.9099C48.8116 45.6636 49.1884 46.5921 49.1884 47.6957C49.1884 49.2164 48.4751 50.6429 47.0486 51.9753C44.9492 53.9401 42.2105 54.9225 38.8326 54.9225C36.2353 54.9225 34.0417 54.3371 32.2518 53.1663C31.2424 52.4934 30.7378 51.7936 30.7378 51.0669C30.7378 50.7439 30.8118 50.4209 30.9598 50.0979C31.1886 49.6 31.6596 48.9069 32.3729 48.0187C32.4671 47.8975 33.1535 47.1708 34.4319 45.8385C33.7321 45.4213 33.2342 45.0512 32.9381 44.7282C32.6555 44.3918 32.5142 44.015 32.5142 43.5978C32.5142 43.1268 32.7026 42.575 33.0794 41.9425C33.4697 41.31 34.3579 40.415 35.7441 39.2577ZM39.2566 27.9329C38.2607 27.9329 37.4263 28.3299 36.7534 29.124C36.0805 29.918 35.7441 31.1359 35.7441 32.7777C35.7441 34.9041 36.2016 36.5526 37.1168 37.7235C37.8166 38.6117 38.7048 39.0558 39.7814 39.0558C40.8042 39.0558 41.6453 38.6722 42.3047 37.9051C42.9642 37.1381 43.2939 35.9336 43.2939 34.2917C43.2939 32.152 42.8296 30.4765 41.901 29.2653C41.2147 28.377 40.3332 27.9329 39.2566 27.9329ZM35.5422 46C34.9097 46.6863 34.4319 47.3256 34.109 47.9177C33.786 48.5099 33.6245 49.0549 33.6245 49.5529C33.6245 50.1988 34.0148 50.7641 34.7953 51.2485C36.1411 52.0829 38.0857 52.5001 40.6292 52.5001C43.0516 52.5001 44.8348 52.0695 45.9787 51.2082C47.1361 50.3603 47.7148 49.4519 47.7148 48.483C47.7148 47.7832 47.3716 47.2852 46.6852 46.9891C45.9854 46.6931 44.5993 46.5181 42.5268 46.4643C39.4988 46.3835 37.1706 46.2288 35.5422 46ZM51.853 35.2001H62.2895V38.2483H51.853V35.2001ZM80.942 38.975C80.4441 41.4109 79.4684 43.2883 78.0149 44.6071C76.5615 45.9125 74.9533 46.5652 73.1903 46.5652C71.0909 46.5652 69.2607 45.6837 67.6996 43.9208C66.1385 42.1578 65.3579 39.7758 65.3579 36.7747C65.3579 33.8678 66.2192 31.506 67.9418 29.6892C69.6779 27.8724 71.7571 26.964 74.1795 26.964C75.9963 26.964 77.4901 27.4485 78.6609 28.4174C79.8317 29.3729 80.4172 30.3688 80.4172 31.405C80.4172 31.9164 80.2489 32.3336 79.9125 32.6566C79.5895 32.9661 79.1319 33.1209 78.5398 33.1209C77.7458 33.1209 77.1469 32.8652 76.7432 32.3538C76.5144 32.0712 76.3596 31.5329 76.2789 30.7389C76.2116 29.9449 75.9424 29.3393 75.4714 28.9221C75.0004 28.5184 74.3477 28.3165 73.5133 28.3165C72.1675 28.3165 71.0842 28.8144 70.2633 29.8103C69.1732 31.1292 68.6281 32.8719 68.6281 35.0386C68.6281 37.2457 69.1665 39.1971 70.2431 40.8928C71.3332 42.575 72.8001 43.4161 74.6438 43.4161C75.9626 43.4161 77.1469 42.9653 78.1966 42.0636C78.9368 41.4445 79.6568 40.3208 80.3566 38.6924L80.942 38.975ZM89.0369 17.2946V30.8196C90.5307 29.1778 91.715 28.1281 92.5897 27.6705C93.4645 27.1995 94.3392 26.964 95.214 26.964C96.2637 26.964 97.1654 27.2533 97.919 27.832C98.6726 28.4107 99.2311 29.3191 99.5945 30.5572C99.8502 31.4185 99.978 32.9931 99.978 35.2809V41.8214C99.978 42.9922 100.072 43.7929 100.261 44.2236C100.395 44.5466 100.624 44.8023 100.947 44.9907C101.27 45.1791 101.862 45.2733 102.723 45.2733V46H93.6394V45.2733H94.0633C94.9246 45.2733 95.5235 45.1454 95.8599 44.8897C96.1964 44.6206 96.4319 44.2303 96.5665 43.7189C96.6069 43.5036 96.627 42.8711 96.627 41.8214V35.2809C96.627 33.2622 96.5194 31.9366 96.3041 31.3041C96.1022 30.6716 95.7725 30.2006 95.3149 29.891C94.8573 29.5681 94.3056 29.4066 93.6596 29.4066C93.0002 29.4066 92.3138 29.5815 91.6006 29.9314C90.8873 30.2813 90.0327 30.9879 89.0369 32.051V41.8214C89.0369 43.0864 89.1041 43.8737 89.2387 44.1832C89.3868 44.4927 89.6492 44.7552 90.026 44.9705C90.4163 45.1723 91.0824 45.2733 92.0245 45.2733V46H82.8597V45.2733C83.6807 45.2733 84.3266 45.1454 84.7977 44.8897C85.0668 44.7552 85.2821 44.4995 85.4436 44.1226C85.6051 43.7458 85.6859 42.9787 85.6859 41.8214V25.0866C85.6859 22.9737 85.632 21.6751 85.5244 21.1906C85.4302 20.7061 85.2754 20.3764 85.0601 20.2014C84.8582 20.0265 84.5823 19.939 84.2324 19.939C83.9498 19.939 83.4923 20.0467 82.8597 20.262L82.5771 19.5555L88.1083 17.2946H89.0369ZM103.733 31.7482L125.454 22.3412V24.0975L106.761 32.2125L125.454 40.4083V42.2251L103.733 32.7374V31.7482ZM128.421 23.835C129.202 21.9913 130.184 20.5715 131.368 19.5757C132.566 18.5663 134.053 18.0617 135.83 18.0617C138.023 18.0617 139.705 18.7749 140.876 20.2014C141.764 21.2646 142.209 22.4018 142.209 23.613C142.209 25.6047 140.957 27.6638 138.454 29.7901C140.136 30.4495 141.408 31.3916 142.269 32.6162C143.13 33.8409 143.561 35.2809 143.561 36.9362C143.561 39.3048 142.807 41.3571 141.3 43.0931C139.335 45.354 136.489 46.4845 132.761 46.4845C130.917 46.4845 129.659 46.2557 128.986 45.7981C128.327 45.3406 127.997 44.8494 127.997 44.3245C127.997 43.9342 128.152 43.5911 128.461 43.295C128.784 42.9989 129.168 42.8509 129.612 42.8509C129.948 42.8509 130.292 42.9047 130.642 43.0124C130.87 43.0797 131.388 43.3286 132.196 43.7593C133.003 44.1765 133.562 44.4254 133.871 44.5062C134.369 44.6542 134.901 44.7282 135.466 44.7282C136.839 44.7282 138.03 44.1967 139.039 43.1335C140.062 42.0703 140.573 40.812 140.573 39.3586C140.573 38.2954 140.338 37.2592 139.867 36.2498C139.517 35.4962 139.133 34.9243 138.716 34.534C138.138 33.9957 137.344 33.5112 136.334 33.0805C135.325 32.6364 134.295 32.4144 133.246 32.4144H132.6V31.8088C133.663 31.6742 134.726 31.2907 135.789 30.6581C136.866 30.0256 137.646 29.2653 138.131 28.377C138.615 27.4888 138.858 26.5131 138.858 25.45C138.858 24.0638 138.42 22.9468 137.545 22.099C136.684 21.2377 135.607 20.807 134.316 20.807C132.23 20.807 130.487 21.924 129.087 24.158L128.421 23.835Z" fill="white"/>
<g filter="url(#filter0_di_33_2)">
<path d="M746 12C746 9.23858 748.239 7 751 7H791C793.761 7 796 9.23858 796 12V52C796 54.7614 793.761 57 791 57H751C748.239 57 746 54.7614 746 52V12Z" fill="#D9D9D9"/>
</g>
<g filter="url(#filter1_i_33_2)">
<path d="M755 46L767.876 31.4463L755.972 18H763.422L768.848 24.565C769.847 25.7778 770.67 26.8236 771.318 27.7024C772.317 26.5072 773.207 25.479 773.99 24.6177L779.942 18H787.069L774.881 31.1827L788 46H780.671L773.423 37.2994L771.52 34.9529L762.248 46H755Z" fill="#0037FF"/>
</g>
<path d="M72.7815 242L86.4659 162.812H56.3083L42.6888 242H26.6047L42.9482 146.923H105.209L88.8655 242H72.7815ZM110.138 204.708C110.138 196.493 111.522 188.041 114.289 179.35C117.791 168.195 122.979 159.742 129.854 153.992C136.729 148.198 144.684 145.301 153.721 145.301C163.103 145.301 170.821 148.868 176.874 156.002C182.97 163.136 186.018 172.865 186.018 185.187C186.018 196.342 183.835 206.632 179.468 216.058C175.144 225.484 169.761 232.445 163.319 236.941C156.877 241.438 149.786 243.686 142.047 243.686C132.794 243.686 125.422 240.443 119.931 233.958C113.402 226.305 110.138 216.555 110.138 204.708ZM126.027 204.319C126.027 211.324 127.735 216.923 131.151 221.117C134.61 225.267 138.804 227.343 143.733 227.343C147.711 227.343 151.645 225.786 155.536 222.673C159.428 219.56 162.8 214.458 165.654 207.367C168.551 200.233 169.999 192.991 169.999 185.641C169.999 177.945 168.226 171.892 164.681 167.482C161.568 163.59 157.482 161.645 152.423 161.645C148.359 161.645 144.338 163.223 140.36 166.379C136.383 169.535 132.989 174.616 130.178 181.62C127.411 188.581 126.027 196.148 126.027 204.319ZM181.997 226.046H188.872C197.692 207.973 204.87 181.598 210.404 146.923H265.012L251.198 226.046H258.072L250.679 268.331H237.643L242.312 242H192.05L187.445 268.331H174.409L181.997 226.046ZM235.373 226.046L246.398 162.812H223.31C219.202 186.203 213.301 207.281 205.605 226.046H235.373ZM314.82 242L328.505 162.812H298.347L284.728 242H268.644L284.987 146.923H347.248L330.904 242H314.82ZM344.524 242L361.257 146.923H376.108L365.861 205.876L408.017 146.923H423.128L406.525 242H391.414L401.986 182.333L359.505 242H344.524ZM422.999 242L439.601 146.923H455.491L441.677 226.046H462.69L476.504 146.923H492.458L478.644 226.046H499.917L513.86 146.923H529.491L512.888 242H422.999ZM529.62 242L546.353 146.923H561.205L550.958 205.876L593.113 146.923H608.224L591.622 242H576.51L587.082 182.333L544.602 242H529.62ZM667.048 207.757L683.197 210.675C679.954 221.7 675.155 229.959 668.799 235.45C662.487 240.941 655.158 243.686 646.813 243.686C637.474 243.686 630.059 240.271 624.568 233.439C619.12 226.608 616.396 216.361 616.396 202.698C616.396 190.981 618.385 180.669 622.363 171.762C626.341 162.812 631.399 156.175 637.539 151.852C643.722 147.485 650.402 145.301 657.579 145.301C665.664 145.301 672.388 147.96 677.749 153.278C683.154 158.596 686.332 166.206 687.283 176.107L671.912 177.923C671.004 172.173 669.318 168.109 666.853 165.731C664.389 163.352 661.189 162.163 657.255 162.163C653.234 162.163 649.364 163.612 645.646 166.509C641.927 169.406 638.75 174.27 636.112 181.101C633.518 187.889 632.221 195.369 632.221 203.541C632.221 211.194 633.734 217.074 636.761 221.182C639.787 225.246 643.462 227.278 647.786 227.278C651.894 227.278 655.698 225.678 659.201 222.479C662.703 219.236 665.319 214.329 667.048 207.757ZM686.958 242L703.691 146.923H719.645L713.354 182.917H726.001C737.675 182.917 745.717 185.101 750.127 189.467C754.581 193.834 756.807 200.709 756.807 210.091C756.807 219.993 754.019 227.797 748.441 233.504C742.863 239.168 735.081 242 725.093 242H686.958ZM710.695 198.807L705.831 226.435H721.721C726.823 226.435 730.541 225.981 732.876 225.073C735.211 224.165 737.113 222.479 738.583 220.014C740.096 217.506 740.853 214.653 740.853 211.453C740.853 207.476 739.75 204.384 737.545 202.179C735.34 199.931 730.606 198.807 723.342 198.807H710.695Z" fill="black"/>
<path d="M82.7815 234L96.4659 154.812H66.3083L52.6888 234H36.6047L52.9482 138.923H115.209L98.8655 234H82.7815ZM120.138 196.708C120.138 188.493 121.522 180.041 124.289 171.35C127.791 160.195 132.979 151.742 139.854 145.992C146.729 140.198 154.684 137.301 163.721 137.301C173.103 137.301 180.821 140.868 186.874 148.002C192.97 155.136 196.018 164.865 196.018 177.187C196.018 188.342 193.835 198.632 189.468 208.058C185.144 217.484 179.761 224.445 173.319 228.941C166.877 233.438 159.786 235.686 152.047 235.686C142.794 235.686 135.422 232.443 129.931 225.958C123.402 218.305 120.138 208.555 120.138 196.708ZM136.027 196.319C136.027 203.324 137.735 208.923 141.151 213.117C144.61 217.267 148.804 219.343 153.733 219.343C157.711 219.343 161.645 217.786 165.536 214.673C169.428 211.56 172.8 206.458 175.654 199.367C178.551 192.233 179.999 184.991 179.999 177.641C179.999 169.945 178.226 163.892 174.681 159.482C171.568 155.59 167.482 153.645 162.423 153.645C158.359 153.645 154.338 155.223 150.36 158.379C146.383 161.535 142.989 166.616 140.178 173.62C137.411 180.581 136.027 188.148 136.027 196.319ZM191.997 218.046H198.872C207.692 199.973 214.87 173.598 220.404 138.923H275.012L261.198 218.046H268.072L260.679 260.331H247.643L252.312 234H202.05L197.445 260.331H184.409L191.997 218.046ZM245.373 218.046L256.398 154.812H233.31C229.202 178.203 223.301 199.281 215.605 218.046H245.373ZM324.82 234L338.505 154.812H308.347L294.728 234H278.644L294.987 138.923H357.248L340.904 234H324.82ZM354.524 234L371.257 138.923H386.108L375.861 197.876L418.017 138.923H433.128L416.525 234H401.414L411.986 174.333L369.505 234H354.524ZM432.999 234L449.601 138.923H465.491L451.677 218.046H472.69L486.504 138.923H502.458L488.644 218.046H509.917L523.86 138.923H539.491L522.888 234H432.999ZM539.62 234L556.353 138.923H571.205L560.958 197.876L603.113 138.923H618.224L601.622 234H586.51L597.082 174.333L554.602 234H539.62ZM677.048 199.757L693.197 202.675C689.954 213.7 685.155 221.959 678.799 227.45C672.487 232.941 665.158 235.686 656.813 235.686C647.474 235.686 640.059 232.271 634.568 225.439C629.12 218.608 626.396 208.361 626.396 194.698C626.396 182.981 628.385 172.669 632.363 163.762C636.341 154.812 641.399 148.175 647.539 143.852C653.722 139.485 660.402 137.301 667.579 137.301C675.664 137.301 682.388 139.96 687.749 145.278C693.154 150.596 696.332 158.206 697.283 168.107L681.912 169.923C681.004 164.173 679.318 160.109 676.853 157.731C674.389 155.352 671.189 154.163 667.255 154.163C663.234 154.163 659.364 155.612 655.646 158.509C651.927 161.406 648.75 166.27 646.112 173.101C643.518 179.889 642.221 187.369 642.221 195.541C642.221 203.194 643.734 209.074 646.761 213.182C649.787 217.246 653.462 219.278 657.786 219.278C661.894 219.278 665.698 217.678 669.201 214.479C672.703 211.236 675.319 206.329 677.048 199.757ZM696.958 234L713.691 138.923H729.645L723.354 174.917H736.001C747.675 174.917 755.717 177.101 760.127 181.467C764.581 185.834 766.807 192.709 766.807 202.091C766.807 211.993 764.019 219.797 758.441 225.504C752.863 231.168 745.081 234 735.093 234H696.958ZM720.695 190.807L715.831 218.435H731.721C736.823 218.435 740.541 217.981 742.876 217.073C745.211 216.165 747.113 214.479 748.583 212.014C750.096 209.506 750.853 206.653 750.853 203.453C750.853 199.476 749.75 196.384 747.545 194.179C745.34 191.931 740.606 190.807 733.342 190.807H720.695Z" fill="#FFE100"/>
<defs>
<filter id="filter0_di_33_2" x="745.1" y="6.1" width="51.8" height="51.8" filterUnits="userSpaceOnUse" color-interpolation-filters="sRGB">
<feFlood flood-opacity="0" result="BackgroundImageFix"/>
<feColorMatrix in="SourceAlpha" type="matrix" values="0 0 0 0 0 0 0 0 0 0 0 0 0 0 0 0 0 0 127 0" result="hardAlpha"/>
<feOffset/>
<feGaussianBlur stdDeviation="0.45"/>
<feComposite in2="hardAlpha" operator="out"/>
<feColorMatrix type="matrix" values="0 0 0 0 0 0 0 0 0 0 0 0 0 0 0 0 0 0 0.25 0"/>
<feBlend mode="normal" in2="BackgroundImageFix" result="effect1_dropShadow_33_2"/>
<feBlend mode="normal" in="SourceGraphic" in2="effect1_dropShadow_33_2" result="shape"/>
<feColorMatrix in="SourceAlpha" type="matrix" values="0 0 0 0 0 0 0 0 0 0 0 0 0 0 0 0 0 0 127 0" result="hardAlpha"/>
<feOffset/>
<feGaussianBlur stdDeviation="2.1"/>
<feComposite in2="hardAlpha" operator="arithmetic" k2="-1" k3="1"/>
<feColorMatrix type="matrix" values="0 0 0 0 0 0 0 0 0 0 0 0 0 0 0 0 0 0 1 0"/>
<feBlend mode="normal" in2="shape" result="effect2_innerShadow_33_2"/>
</filter>
<filter id="filter1_i_33_2" x="755" y="18" width="33" height="32" filterUnits="userSpaceOnUse" color-interpolation-filters="sRGB">
<feFlood flood-opacity="0" result="BackgroundImageFix"/>
<feBlend mode="normal" in="SourceGraphic" in2="BackgroundImageFix" result="shape"/>
<feColorMatrix in="SourceAlpha" type="matrix" values="0 0 0 0 0 0 0 0 0 0 0 0 0 0 0 0 0 0 127 0" result="hardAlpha"/>
<feOffset dy="4"/>
<feGaussianBlur stdDeviation="2"/>
<feComposite in2="hardAlpha" operator="arithmetic" k2="-1" k3="1"/>
<feColorMatrix type="matrix" values="0 0 0 0 0 0 0 0 0 0 0 0 0 0 0 0 0 0 0.25 0"/>
<feBlend mode="normal" in2="shape" result="effect1_innerShadow_33_2"/>
</filter>
</defs>
</svg>
