<svg width="804" height="324" viewBox="0 0 804 324" fill="none" xmlns="http://www.w3.org/2000/svg">
<path d="M2 2H802V322H2V2Z" fill="white"/>
<path d="M804 0V324H0V0H804ZM4 320H800V4H4V320Z" fill="#C6C6C6"/>
<path d="M2 2H802V62H2V2Z" fill="#0037FF"/>
<path d="M804 0V64H0V0H804ZM4 60H800V4H4V60Z" fill="#C6C6C6"/>
<path d="M777.971 198.881L777.901 198.998L754.586 238.304L753.656 239.872V220.954L753.729 220.834L772.05 190.883L753.73 161.216L753.656 161.096V142.196L754.585 143.742L777.9 182.574L777.971 182.693V198.881Z" fill="url(#paint0_linear_20_2)" stroke="black"/>
<path d="M737.404 138.095C740.343 138.095 742.582 139.922 744.153 143.306C745.709 146.596 746.676 150.668 747.07 155.507L747.145 156.436C747.507 161.214 747.687 167.929 747.687 176.575V199.305C747.687 215.217 747.775 225.244 747.95 229.4C748.145 233.49 748.515 237.484 749.059 241.384L749.138 241.952H743.613L743.557 241.516C743.199 238.744 742.941 235.556 742.781 231.955C741.597 235.493 740.367 238.28 739.086 240.3C737.5 242.8 735.749 244.225 733.802 244.225C732.286 244.225 730.961 243.478 729.834 242.1C728.716 240.734 727.767 238.722 726.968 236.105C725.365 230.86 724.573 223.827 724.573 215.028C724.573 209.199 724.946 204.025 725.693 199.509C726.439 195.001 727.465 191.44 728.787 188.849C730.128 186.222 732.165 184.28 734.882 183.034C738.279 181.447 740.745 179.578 742.324 177.448L742.352 173.26L742.347 171.994C742.303 165.789 741.923 161.439 741.227 158.901L741.226 158.897C740.698 156.909 740.041 155.471 739.28 154.539C738.532 153.623 737.696 153.208 736.76 153.208C735.879 153.208 735.119 153.5 734.459 154.096C733.788 154.702 733.2 155.64 732.719 156.952L732.718 156.956C731.751 159.529 731.021 164.478 730.552 171.871L730.502 172.647L729.816 172.28L725.569 170.007L725.288 169.856L725.306 169.538C725.912 158.732 727.135 150.808 728.998 145.808L728.999 145.806C730.882 140.807 733.655 138.096 737.404 138.095ZM742.323 192.557C740.748 194.596 738.64 196.359 736.011 197.846L736.007 197.848C734.244 198.829 733.058 199.938 732.395 201.155L732.39 201.164C731.71 202.353 731.156 204.117 730.75 206.491C730.365 208.793 730.172 211.48 730.172 214.554C730.172 219.326 730.629 223.12 731.524 225.956L731.695 226.458C732.103 227.586 732.563 228.415 733.061 228.972C733.619 229.597 734.214 229.871 734.856 229.871C736.082 229.871 737.355 228.838 738.595 226.27L738.596 226.267L738.824 225.784C739.949 223.316 740.809 220.091 741.39 216.093C742.01 211.772 742.323 205.486 742.323 197.222V192.557Z" fill="url(#paint1_linear_20_2)" stroke="black"/>
<path d="M722.966 140.369V155.481H714.765V241.953H709.43V155.481H701.229V140.369H722.966Z" fill="url(#paint2_linear_20_2)" stroke="black"/>
<path d="M687.113 138.095C689.023 138.095 690.668 139.399 692.079 141.696C693.495 144.003 694.75 147.423 695.858 151.925C698.079 160.95 699.182 173.974 699.182 190.971V190.974L699.153 195.52L699.15 196.017H680.125C680.316 207.056 681.122 215.365 682.531 220.968C683.249 223.823 684.035 225.92 684.875 227.293C685.721 228.677 686.546 229.208 687.318 229.208C687.926 229.208 688.545 228.892 689.173 228.105C689.807 227.312 690.41 226.086 690.965 224.39C692.075 221.004 692.953 215.887 693.586 209.015L693.653 208.294L694.304 208.612L698.756 210.79L699.058 210.938L699.035 211.274C698.315 221.686 697.025 229.676 695.149 235.219L694.965 235.748C693.989 238.492 692.878 240.595 691.618 242.02C690.349 243.455 688.903 244.225 687.289 244.225C685.245 244.225 683.477 242.966 681.966 240.686C680.456 238.408 679.145 235.03 678.017 230.589L678.016 230.587C675.775 221.624 674.663 208.758 674.663 192.012C674.663 174.637 675.785 161.36 678.045 152.209L678.26 151.36C679.345 147.18 680.572 143.971 681.952 141.763C683.419 139.415 685.131 138.096 687.113 138.095ZM687.083 153.113C686.374 153.113 685.61 153.589 684.82 154.844C684.035 156.091 683.296 157.998 682.618 160.6L682.617 160.601C681.291 165.624 680.545 172.418 680.388 181H693.601C693.395 172.552 692.824 166.259 691.897 162.098V162.097C691.208 158.989 690.432 156.701 689.584 155.203C688.728 153.688 687.879 153.113 687.083 153.113Z" fill="url(#paint3_linear_20_2)" stroke="black"/>
<path d="M654.339 140.369V182.231H665.348V140.369H670.654V241.953H665.348V197.344H654.339V241.953H649.034V140.369H654.339Z" fill="url(#paint4_linear_20_2)" stroke="black"/>
<path d="M633.394 138.095C634.578 138.095 635.658 138.667 636.629 139.697C637.594 140.721 638.482 142.226 639.304 144.178C640.952 148.095 642.256 154.022 643.234 161.927L643.416 163.418C644.294 170.972 644.732 179.936 644.732 190.308C644.732 207.432 643.618 220.674 641.379 230.012L641.38 230.013C640.273 234.638 639.059 238.148 637.726 240.513C636.409 242.852 634.883 244.225 633.101 244.225C631.467 244.225 630.101 242.872 628.938 240.641C628.187 239.2 627.507 237.392 626.894 235.224V280.5H621.589V140.369H626.543V149.01C627.254 145.987 628.02 143.637 628.847 141.972C630.057 139.534 631.55 138.096 633.394 138.095ZM632.868 152.45C632.612 152.45 632.309 152.572 631.952 152.938C631.592 153.308 631.216 153.89 630.832 154.718C630.065 156.37 629.323 158.883 628.612 162.281V162.282C627.198 168.986 626.484 178.795 626.484 191.728C626.484 204.728 627.159 214.281 628.494 220.414L628.748 221.519C629.348 224.01 629.995 225.89 630.681 227.177C631.48 228.678 632.238 229.208 632.896 229.208C633.498 229.208 634.235 228.674 635.035 227.092C635.812 225.554 636.551 223.211 637.241 220.036C638.616 213.714 639.309 203.908 639.309 190.593C639.309 177.466 638.636 167.785 637.3 161.525C636.629 158.383 635.893 156.067 635.104 154.549C634.298 152.996 633.53 152.45 632.868 152.45Z" fill="url(#paint5_linear_20_2)" stroke="black"/>
<path d="M605.217 138.095C607.127 138.095 608.772 139.399 610.183 141.696C611.6 144.003 612.855 147.423 613.963 151.925C616.184 160.95 617.287 173.974 617.287 190.971V190.974L617.258 195.52L617.255 196.017H598.229C598.421 207.056 599.226 215.365 600.635 220.968C601.353 223.823 602.14 225.92 602.979 227.293C603.826 228.677 604.651 229.208 605.423 229.208C606.031 229.208 606.65 228.892 607.278 228.105C607.911 227.312 608.514 226.086 609.07 224.39C610.18 221.004 611.057 215.887 611.691 209.015L611.758 208.294L612.409 208.612L616.861 210.79L617.163 210.938L617.139 211.274C616.42 221.686 615.13 229.676 613.254 235.219L613.07 235.748C612.093 238.492 610.983 240.595 609.722 242.02C608.453 243.455 607.008 244.225 605.393 244.225C603.35 244.225 601.582 242.966 600.071 240.686C598.561 238.408 597.25 235.03 596.122 230.589L596.121 230.587C593.88 221.624 592.767 208.758 592.767 192.012C592.767 174.637 593.89 161.36 596.15 152.209L596.365 151.36C597.45 147.18 598.677 143.971 600.056 141.763C601.524 139.415 603.235 138.096 605.217 138.095ZM605.188 153.113C604.479 153.113 603.715 153.589 602.924 154.844C602.14 156.091 601.401 157.998 600.722 160.6L600.721 160.601C599.395 165.624 598.65 172.418 598.493 181H611.706C611.5 172.552 610.929 166.259 610.002 162.098V162.097C609.312 158.989 608.536 156.701 607.689 155.203C606.832 153.688 605.984 153.113 605.188 153.113Z" fill="url(#paint6_linear_20_2)" stroke="black"/>
<path d="M591.16 140.369V155.481H582.959V241.953H577.624V155.481H569.423V140.369H591.16Z" fill="url(#paint7_linear_20_2)" stroke="black"/>
<path d="M549.891 140.369V182.231H560.899V140.369H566.205V241.953H560.899V197.344H549.891V241.953H544.585V140.369H549.891Z" fill="url(#paint8_linear_20_2)" stroke="black"/>
<path d="M522.358 140.369V211.156L533.372 140.792L533.439 140.369H539.024V241.953H533.718V171.6L522.703 241.53L522.637 241.953H517.052V140.369H522.358Z" fill="url(#paint9_linear_20_2)" stroke="black"/>
<path d="M486.739 138.095C488.686 138.095 490.378 139.37 491.838 141.64C493.301 143.916 494.599 147.291 495.746 151.73C498.047 160.631 499.189 173.436 499.189 190.119C499.189 208.186 498.066 221.686 495.805 230.589C494.677 235.029 493.384 238.405 491.91 240.682C490.438 242.957 488.721 244.225 486.739 244.225C484.782 244.225 483.083 242.953 481.617 240.681C480.149 238.405 478.85 235.03 477.702 230.591L477.701 230.589C475.421 221.624 474.288 208.473 474.288 191.161C474.288 173.786 475.411 160.634 477.672 151.732V151.731C478.81 147.291 480.108 143.915 481.581 141.638C483.053 139.365 484.765 138.096 486.739 138.095ZM486.621 153.208C485.888 153.208 485.066 153.78 484.211 155.34C483.371 156.873 482.585 159.211 481.866 162.384C480.434 168.705 479.711 178.289 479.711 191.161C479.711 204.158 480.444 213.804 481.895 220.124C482.623 223.264 483.431 225.575 484.302 227.091C485.184 228.623 486.049 229.208 486.856 229.208C487.578 229.208 488.392 228.639 489.243 227.077C490.079 225.543 490.863 223.205 491.582 220.032V220.031C493.034 213.647 493.766 204.032 493.766 191.161C493.766 178.225 493.033 168.643 491.582 162.386V162.385C490.854 159.214 490.047 156.878 489.175 155.346C488.292 153.796 487.426 153.208 486.621 153.208Z" fill="url(#paint10_linear_20_2)" stroke="black"/>
<path d="M473.707 140.369V155.481H463.338V241.953H458.032V140.369H473.707Z" fill="url(#paint11_linear_20_2)" stroke="black"/>
<path d="M441.397 138.095C443.345 138.095 445.037 139.37 446.497 141.64C447.96 143.916 449.258 147.291 450.405 151.73C452.706 160.631 453.848 173.436 453.848 190.119C453.848 208.186 452.725 221.686 450.464 230.589C449.336 235.029 448.043 238.405 446.569 240.682C445.097 242.957 443.38 244.225 441.397 244.225C439.441 244.225 437.741 242.953 436.276 240.681C434.808 238.405 433.509 235.03 432.361 230.591L432.36 230.589C430.08 221.624 428.947 208.473 428.947 191.161C428.947 173.786 430.07 160.634 432.331 151.732V151.731C433.469 147.291 434.767 143.915 436.24 141.638C437.712 139.365 439.424 138.096 441.397 138.095ZM441.28 153.208C440.546 153.208 439.725 153.78 438.87 155.34C438.03 156.873 437.244 159.211 436.525 162.384C435.093 168.705 434.37 178.289 434.37 191.161C434.37 204.158 435.102 213.804 436.554 220.124C437.282 223.264 438.089 225.575 438.961 227.091C439.842 228.623 440.708 229.208 441.515 229.208C442.237 229.208 443.051 228.639 443.902 227.077C444.738 225.543 445.522 223.205 446.241 220.032V220.031C447.693 213.647 448.425 204.032 448.425 191.161C448.425 178.225 447.692 168.643 446.241 162.386V162.385C445.513 159.214 444.706 156.878 443.834 155.346C442.951 153.796 442.085 153.208 441.28 153.208Z" fill="url(#paint12_linear_20_2)" stroke="black"/>
<path d="M415.007 138.095C416.19 138.095 417.27 138.667 418.241 139.697C419.207 140.721 420.094 142.226 420.916 144.178C422.564 148.095 423.869 154.022 424.847 161.927L425.028 163.418C425.906 170.972 426.345 179.936 426.345 190.308C426.345 207.432 425.231 220.674 422.991 230.012L422.992 230.013C421.885 234.638 420.671 238.148 419.339 240.513C418.021 242.852 416.495 244.225 414.714 244.225C413.08 244.225 411.713 242.872 410.551 240.641C409.799 239.2 409.12 237.392 408.507 235.224V280.5H403.201V140.369H408.155V149.01C408.867 145.987 409.633 143.637 410.459 141.972C411.669 139.534 413.163 138.096 415.007 138.095ZM414.48 152.45C414.225 152.45 413.921 152.572 413.564 152.938C413.205 153.308 412.828 153.89 412.444 154.718C411.678 156.37 410.935 158.883 410.225 162.281V162.282C408.81 168.986 408.097 178.795 408.097 191.728C408.097 204.728 408.771 214.281 410.106 220.414L410.36 221.519C410.96 224.01 411.608 225.89 412.293 227.177C413.093 228.678 413.851 229.208 414.509 229.208C415.11 229.208 415.848 228.674 416.647 227.092C417.424 225.554 418.163 223.211 418.853 220.036C420.228 213.714 420.922 203.908 420.922 190.593C420.922 177.466 420.248 167.785 418.912 161.525C418.242 158.383 417.506 156.067 416.717 154.549C415.91 152.996 415.143 152.45 414.48 152.45Z" fill="url(#paint13_linear_20_2)" stroke="black"/>
<path d="M387.211 138.095C390.149 138.095 392.389 139.922 393.96 143.306C395.516 146.596 396.483 150.668 396.877 155.507L396.952 156.436C397.314 161.214 397.494 167.929 397.494 176.575V199.305C397.494 215.217 397.581 225.244 397.756 229.4C397.951 233.49 398.321 237.484 398.866 241.384L398.945 241.952H393.421L393.364 241.516C393.005 238.744 392.748 235.556 392.588 231.955C391.403 235.493 390.173 238.28 388.892 240.3C387.306 242.8 385.555 244.225 383.608 244.225C382.092 244.225 380.768 243.478 379.64 242.1C378.522 240.734 377.574 238.722 376.774 236.105C375.172 230.86 374.38 223.827 374.38 215.028C374.38 209.199 374.752 204.025 375.5 199.509C376.246 195.001 377.272 191.44 378.593 188.849C379.934 186.222 381.971 184.28 384.688 183.034C388.086 181.447 390.552 179.578 392.13 177.448L392.159 173.26L392.154 171.994C392.109 165.789 391.729 161.439 391.034 158.901L391.033 158.897C390.504 156.909 389.847 155.471 389.087 154.539C388.338 153.623 387.502 153.208 386.566 153.208C385.685 153.208 384.926 153.5 384.265 154.096C383.594 154.702 383.006 155.64 382.525 156.952L382.524 156.956C381.558 159.529 380.827 164.478 380.358 171.871L380.308 172.647L379.623 172.28L375.376 170.007L375.094 169.856L375.113 169.538C375.719 158.732 376.941 150.808 378.804 145.808L378.805 145.806C380.688 140.807 383.461 138.096 387.211 138.095ZM392.13 192.557C390.554 194.596 388.446 196.359 385.817 197.846L385.813 197.848C384.05 198.829 382.865 199.938 382.202 201.155L382.197 201.164C381.517 202.353 380.962 204.117 380.556 206.491C380.171 208.793 379.978 211.48 379.978 214.554C379.978 219.326 380.435 223.12 381.331 225.956L381.502 226.458C381.909 227.586 382.37 228.415 382.868 228.972C383.426 229.597 384.02 229.871 384.663 229.871C385.889 229.871 387.162 228.838 388.401 226.27L388.402 226.267C389.64 223.743 390.576 220.358 391.197 216.093C391.817 211.772 392.13 205.486 392.13 197.222V192.557Z" fill="url(#paint14_linear_20_2)" stroke="black"/>
<path d="M372.773 140.369V155.481H364.571V241.953H359.236V155.481H351.035V140.369H372.773Z" fill="url(#paint15_linear_20_2)" stroke="black"/>
<path d="M339.585 138.095C341.094 138.095 342.437 138.862 343.608 140.263C344.773 141.657 345.8 143.712 346.708 146.39H346.707C348.546 151.762 349.71 159.774 350.218 170.394L350.233 170.691L349.98 170.845L345.792 173.402L345.082 173.836L345.032 173.006C344.622 166.196 343.912 161.161 342.914 157.873V157.87C342.412 156.187 341.872 154.969 341.309 154.182C340.746 153.396 340.216 153.113 339.731 153.113C338.941 153.113 338.098 153.677 337.243 155.16C336.396 156.627 335.617 158.867 334.918 161.912C333.545 167.915 332.85 177.528 332.85 190.782C332.85 204.479 333.515 214.345 334.831 220.414L335.086 221.518C335.69 224.007 336.357 225.883 337.077 227.167C337.91 228.652 338.732 229.208 339.497 229.208C340.082 229.208 340.709 228.855 341.363 227.909C342.016 226.964 342.635 225.509 343.205 223.51C344.359 219.466 345.1 213.17 345.412 204.592L345.44 203.806L346.139 204.165L350.386 206.343L350.672 206.489L350.658 206.808C350.169 218.818 348.936 228.024 346.945 234.401C345.962 237.581 344.865 240.011 343.639 241.656C342.411 243.304 341.004 244.225 339.409 244.225C337.485 244.225 335.83 242.944 334.416 240.675C332.998 238.398 331.752 235.024 330.664 230.585V230.583C328.502 221.621 327.427 208.441 327.427 191.066C327.427 173.566 328.51 160.414 330.693 151.639C331.791 147.232 333.055 143.879 334.499 141.618C335.941 139.36 337.628 138.096 339.585 138.095Z" fill="url(#paint16_linear_20_2)" stroke="black"/>
<path d="M299.399 140.369L299.838 140.378C302.005 140.464 303.736 141.197 304.963 142.627H304.962C305.623 143.387 306.22 144.516 306.765 145.975C307.313 147.441 307.821 149.272 308.293 151.463L308.468 152.289C309.318 156.48 309.74 161.579 309.74 167.578C309.74 177.03 308.758 184.194 306.758 189.023C308.135 191.125 309.15 194.159 309.828 198.085C310.532 202.164 310.882 207.246 310.883 213.323C310.883 221.118 310.167 227.793 308.728 233.339C308.006 236.124 307.015 238.269 305.726 239.725C304.423 241.197 302.823 241.953 300.951 241.953H288.94V140.369H299.399ZM294.246 226.936H299.458C300.593 226.935 301.52 226.658 302.265 226.128C303.013 225.597 303.617 224.785 304.059 223.654C304.962 221.28 305.43 217.567 305.43 212.471C305.43 207.049 304.93 203.254 303.977 201.018L303.973 201.01C303.516 199.885 302.877 199.073 302.073 198.539C301.268 198.004 300.259 197.723 299.018 197.723H294.246V226.936ZM294.246 182.705H298.374C300.173 182.705 301.245 182.327 301.781 181.733L301.786 181.729C302.392 181.075 302.995 179.675 303.541 177.405C304.076 175.118 304.346 172.318 304.346 168.998C304.346 163.694 303.854 160.137 302.932 158.229L302.93 158.226C302.486 157.287 301.9 156.609 301.184 156.163C300.468 155.717 299.587 155.481 298.52 155.481H294.246V182.705Z" fill="url(#paint17_linear_20_2)" stroke="black"/>
<path d="M266.713 140.369V211.156L277.728 140.792L277.794 140.369H283.379V241.953H278.073V171.6L267.059 241.53L266.992 241.953H261.407V140.369H266.713Z" fill="url(#paint18_linear_20_2)" stroke="black"/>
<path d="M240.919 140.369L240.99 140.787L244.915 164.37C245.416 167.393 245.855 170.128 246.234 172.574C246.75 169.56 247.222 166.886 247.649 164.552L251.955 140.78L252.029 140.369H258.204L258.093 140.961L249.294 188.226L258.767 241.365L258.873 241.953H252.55L252.481 241.536L247.238 210.281V210.278L246.345 204.818L240.14 241.536L240.07 241.953H233.807L233.912 241.365L243.21 189.172L234.615 140.957L234.509 140.369H240.919Z" fill="url(#paint19_linear_20_2)" stroke="black"/>
<path d="M221.164 138.095C222.347 138.095 223.427 138.667 224.399 139.697C225.364 140.721 226.252 142.226 227.073 144.178C228.721 148.095 230.026 154.022 231.004 161.927L231.186 163.418C232.064 170.972 232.502 179.936 232.502 190.308C232.502 207.432 231.388 220.674 229.149 230.012L229.15 230.013C228.043 234.638 226.829 238.148 225.496 240.513C224.178 242.852 222.652 244.225 220.871 244.225C219.237 244.225 217.871 242.872 216.708 240.641C215.957 239.2 215.277 237.392 214.664 235.224V280.5H209.359V140.369H214.313V149.01C215.024 145.987 215.79 143.637 216.616 141.972C217.827 139.534 219.32 138.096 221.164 138.095ZM220.637 152.45C220.381 152.45 220.078 152.572 219.722 152.938C219.362 153.308 218.986 153.89 218.602 154.718C217.835 156.37 217.092 158.883 216.382 162.281V162.282C214.968 168.986 214.254 178.795 214.254 191.728C214.254 204.728 214.929 214.281 216.264 220.414L216.518 221.519C217.118 224.01 217.765 225.89 218.45 227.177C219.25 228.678 220.008 229.208 220.666 229.208C221.268 229.208 222.005 228.674 222.805 227.092C223.582 225.554 224.321 223.211 225.011 220.036C226.385 213.714 227.079 203.908 227.079 190.593C227.079 177.466 226.405 167.785 225.07 161.525C224.399 158.383 223.663 156.067 222.874 154.549C222.067 152.995 221.299 152.45 220.637 152.45Z" fill="url(#paint20_linear_20_2)" stroke="black"/>
<path d="M193.368 138.095C196.307 138.095 198.546 139.922 200.117 143.306C201.673 146.596 202.64 150.668 203.034 155.507L203.109 156.436C203.471 161.214 203.651 167.929 203.651 176.575V199.305C203.651 215.217 203.739 225.244 203.914 229.4C204.109 233.49 204.479 237.484 205.023 241.384L205.102 241.952H199.578L199.521 241.516C199.163 238.744 198.905 235.556 198.745 231.955C197.561 235.493 196.331 238.28 195.05 240.3C193.464 242.8 191.713 244.225 189.766 244.225C188.25 244.225 186.925 243.478 185.798 242.1C184.68 240.734 183.731 238.722 182.932 236.105C181.329 230.86 180.537 223.827 180.537 215.028C180.537 209.199 180.91 204.025 181.657 199.509C182.403 195.001 183.429 191.44 184.751 188.849C186.092 186.222 188.129 184.28 190.846 183.034C194.243 181.447 196.709 179.578 198.288 177.448L198.316 173.26L198.311 171.994C198.267 165.789 197.887 161.439 197.191 158.901L197.19 158.897C196.662 156.909 196.005 155.471 195.244 154.539C194.496 153.623 193.66 153.208 192.724 153.208C191.843 153.208 191.083 153.5 190.423 154.096C189.752 154.702 189.164 155.64 188.683 156.952L188.682 156.956C187.715 159.529 186.985 164.478 186.516 171.871L186.466 172.647L185.78 172.28L181.533 170.007L181.252 169.856L181.27 169.538C181.876 158.732 183.099 150.808 184.962 145.808L184.963 145.806C186.846 140.807 189.619 138.096 193.368 138.095ZM198.287 192.557C196.712 194.596 194.604 196.359 191.975 197.846L191.971 197.848C190.208 198.829 189.022 199.938 188.359 201.155L188.354 201.164C187.674 202.353 187.12 204.117 186.714 206.491C186.329 208.793 186.136 211.48 186.136 214.554C186.136 219.326 186.593 223.12 187.488 225.956L187.659 226.458C188.067 227.586 188.527 228.415 189.025 228.972C189.583 229.597 190.178 229.871 190.82 229.871C192.046 229.871 193.319 228.838 194.559 226.27L194.56 226.267C195.797 223.743 196.734 220.358 197.354 216.093C197.974 211.772 198.287 205.486 198.287 197.222V192.557Z" fill="url(#paint21_linear_20_2)" stroke="black"/>
<path d="M177.815 239.872L176.885 238.304L153.57 198.998L153.5 198.881V182.693L153.571 182.574L176.887 143.742L177.815 142.196V161.096L177.74 161.216L159.419 190.882L177.741 220.834L177.815 220.954V239.872Z" fill="url(#paint22_linear_20_2)" stroke="black"/>
<path d="M105.588 140.369V226.841H114.459V140.369H119.794V226.841H128.635V140.369H133.94V241.953H100.282V140.369H105.588Z" fill="url(#paint23_linear_20_2)" stroke="black"/>
<path d="M84.0285 138.095C86.0723 138.096 87.8017 139.45 89.2462 141.867C90.6933 144.288 91.9229 147.878 92.9523 152.601H92.9513C95.0324 161.998 96.0685 174.888 96.0685 191.256C96.0685 206.746 95.1146 219.237 93.1994 228.715L93.0109 229.623C92.0015 234.376 90.8121 237.986 89.4269 240.421C88.0482 242.844 86.3985 244.225 84.4376 244.225C82.6448 244.225 81.0906 243.241 79.7726 241.44C78.4607 239.648 77.3426 236.999 76.3986 233.533C74.5105 226.601 73.3553 217.72 72.9249 206.902L72.9122 206.584L73.1964 206.437L77.4435 204.26L78.1417 203.901L78.172 204.685C78.4939 213.011 79.1929 219.218 80.2579 223.332C80.7913 225.392 81.4064 226.889 82.0851 227.859C82.759 228.823 83.4483 229.208 84.1447 229.208C84.9151 229.208 85.7004 228.707 86.4679 227.406C87.2326 226.11 87.9125 224.124 88.4894 221.412C89.6232 216.082 90.3295 208.097 90.6027 197.438H81.6242V182.421H90.5997C90.351 174.141 89.627 167.177 88.4298 161.524V161.523C87.8279 158.635 87.1393 156.513 86.379 155.126C85.6089 153.72 84.8475 153.208 84.1447 153.208C83.5022 153.208 82.8786 153.526 82.2706 154.301C81.6544 155.085 81.0873 156.301 80.59 157.987C79.5967 161.354 78.9224 166.444 78.5812 173.285L78.5392 174.137L77.8156 173.683L73.5978 171.031L73.3546 170.879L73.3644 170.592C73.6777 161.348 74.7353 153.662 76.548 147.546L76.549 147.545C77.4645 144.489 78.5229 142.148 79.7433 140.563C80.9698 138.97 82.3985 138.095 84.0285 138.095Z" fill="url(#paint24_linear_20_2)" stroke="black"/>
<path d="M71.8452 140.369V155.481H63.644V241.953H58.3091V155.481H50.1079V140.369H71.8452Z" fill="url(#paint25_linear_20_2)" stroke="black"/>
<path d="M38.6572 138.095C40.1665 138.095 41.5092 138.862 42.6807 140.263C43.8453 141.657 44.873 143.712 45.7803 146.39H45.7793C47.6184 151.762 48.7827 159.774 49.291 170.394L49.3057 170.691L49.0527 170.845L44.8643 173.402L44.1543 173.836L44.1045 173.006C43.695 166.196 42.9841 161.161 41.9863 157.873V157.87C41.485 156.187 40.945 154.969 40.3818 154.182C39.8189 153.396 39.289 153.113 38.8037 153.113C38.0141 153.113 37.171 153.677 36.3154 155.16C35.4689 156.627 34.6892 158.867 33.9902 161.912C32.6173 167.915 31.9229 177.528 31.9229 190.782C31.9229 204.479 32.5878 214.345 33.9033 220.414L34.1582 221.518C34.7625 224.007 35.4291 225.883 36.1494 227.167C36.9826 228.652 37.8048 229.208 38.5693 229.208C39.1547 229.208 39.782 228.855 40.4355 227.909C41.0882 226.964 41.7072 225.509 42.2773 223.51C43.4316 219.466 44.1722 213.17 44.4844 204.592L44.5127 203.806L45.2119 204.165L49.459 206.343L49.7441 206.489L49.7305 206.808C49.2418 218.818 48.009 228.024 46.0176 234.401C45.0342 237.581 43.9377 240.011 42.7119 241.656C41.484 243.304 40.0762 244.225 38.4814 244.225C36.5575 244.225 34.9023 242.944 33.4883 240.675C32.0703 238.398 30.8247 235.024 29.7363 230.585V230.583C27.5743 221.621 26.5 208.441 26.5 191.066C26.5 173.566 27.583 160.414 29.7656 151.639C30.864 147.232 32.1274 143.879 33.5713 141.618C35.0131 139.36 36.7011 138.096 38.6572 138.095Z" fill="url(#paint26_linear_20_2)" stroke="black"/>
<defs>
<linearGradient id="paint0_linear_20_2" x1="765.813" y1="144" x2="765.813" y2="238.049" gradientUnits="userSpaceOnUse">
<stop stop-color="#FF051A"/>
<stop offset="1" stop-color="#FFE100"/>
</linearGradient>
<linearGradient id="paint1_linear_20_2" x1="736.818" y1="138.595" x2="736.818" y2="243.725" gradientUnits="userSpaceOnUse">
<stop stop-color="#FF051A"/>
<stop offset="1" stop-color="#FFE100"/>
</linearGradient>
<linearGradient id="paint2_linear_20_2" x1="712.098" y1="140.869" x2="712.098" y2="241.453" gradientUnits="userSpaceOnUse">
<stop stop-color="#FF051A"/>
<stop offset="1" stop-color="#FFE100"/>
</linearGradient>
<linearGradient id="paint3_linear_20_2" x1="686.923" y1="138.595" x2="686.923" y2="243.725" gradientUnits="userSpaceOnUse">
<stop stop-color="#FF051A"/>
<stop offset="1" stop-color="#FFE100"/>
</linearGradient>
<linearGradient id="paint4_linear_20_2" x1="659.844" y1="140.869" x2="659.844" y2="241.453" gradientUnits="userSpaceOnUse">
<stop stop-color="#FF051A"/>
<stop offset="1" stop-color="#FFE100"/>
</linearGradient>
<linearGradient id="paint5_linear_20_2" x1="633.16" y1="138.595" x2="633.16" y2="280" gradientUnits="userSpaceOnUse">
<stop stop-color="#FF051A"/>
<stop offset="1" stop-color="#FFE100"/>
</linearGradient>
<linearGradient id="paint6_linear_20_2" x1="605.027" y1="138.595" x2="605.027" y2="243.725" gradientUnits="userSpaceOnUse">
<stop stop-color="#FF051A"/>
<stop offset="1" stop-color="#FFE100"/>
</linearGradient>
<linearGradient id="paint7_linear_20_2" x1="580.292" y1="140.869" x2="580.292" y2="241.453" gradientUnits="userSpaceOnUse">
<stop stop-color="#FF051A"/>
<stop offset="1" stop-color="#FFE100"/>
</linearGradient>
<linearGradient id="paint8_linear_20_2" x1="555.395" y1="140.869" x2="555.395" y2="241.453" gradientUnits="userSpaceOnUse">
<stop stop-color="#FF051A"/>
<stop offset="1" stop-color="#FFE100"/>
</linearGradient>
<linearGradient id="paint9_linear_20_2" x1="528.038" y1="140.869" x2="528.038" y2="241.453" gradientUnits="userSpaceOnUse">
<stop stop-color="#FF051A"/>
<stop offset="1" stop-color="#FFE100"/>
</linearGradient>
<linearGradient id="paint10_linear_20_2" x1="486.739" y1="138.595" x2="486.739" y2="243.725" gradientUnits="userSpaceOnUse">
<stop stop-color="#FF051A"/>
<stop offset="1" stop-color="#FFE100"/>
</linearGradient>
<linearGradient id="paint11_linear_20_2" x1="465.87" y1="140.869" x2="465.87" y2="241.453" gradientUnits="userSpaceOnUse">
<stop stop-color="#FF051A"/>
<stop offset="1" stop-color="#FFE100"/>
</linearGradient>
<linearGradient id="paint12_linear_20_2" x1="441.398" y1="138.595" x2="441.398" y2="243.725" gradientUnits="userSpaceOnUse">
<stop stop-color="#FF051A"/>
<stop offset="1" stop-color="#FFE100"/>
</linearGradient>
<linearGradient id="paint13_linear_20_2" x1="414.773" y1="138.595" x2="414.773" y2="280" gradientUnits="userSpaceOnUse">
<stop stop-color="#FF051A"/>
<stop offset="1" stop-color="#FFE100"/>
</linearGradient>
<linearGradient id="paint14_linear_20_2" x1="386.625" y1="138.595" x2="386.625" y2="243.725" gradientUnits="userSpaceOnUse">
<stop stop-color="#FF051A"/>
<stop offset="1" stop-color="#FFE100"/>
</linearGradient>
<linearGradient id="paint15_linear_20_2" x1="361.904" y1="140.869" x2="361.904" y2="241.453" gradientUnits="userSpaceOnUse">
<stop stop-color="#FF051A"/>
<stop offset="1" stop-color="#FFE100"/>
</linearGradient>
<linearGradient id="paint16_linear_20_2" x1="339.043" y1="138.595" x2="339.043" y2="243.725" gradientUnits="userSpaceOnUse">
<stop stop-color="#FF051A"/>
<stop offset="1" stop-color="#FFE100"/>
</linearGradient>
<linearGradient id="paint17_linear_20_2" x1="299.911" y1="140.869" x2="299.911" y2="241.453" gradientUnits="userSpaceOnUse">
<stop stop-color="#FF051A"/>
<stop offset="1" stop-color="#FFE100"/>
</linearGradient>
<linearGradient id="paint18_linear_20_2" x1="272.393" y1="140.869" x2="272.393" y2="241.453" gradientUnits="userSpaceOnUse">
<stop stop-color="#FF051A"/>
<stop offset="1" stop-color="#FFE100"/>
</linearGradient>
<linearGradient id="paint19_linear_20_2" x1="246.34" y1="140.869" x2="246.34" y2="241.453" gradientUnits="userSpaceOnUse">
<stop stop-color="#FF051A"/>
<stop offset="1" stop-color="#FFE100"/>
</linearGradient>
<linearGradient id="paint20_linear_20_2" x1="220.93" y1="138.595" x2="220.93" y2="280" gradientUnits="userSpaceOnUse">
<stop stop-color="#FF051A"/>
<stop offset="1" stop-color="#FFE100"/>
</linearGradient>
<linearGradient id="paint21_linear_20_2" x1="192.782" y1="138.595" x2="192.782" y2="243.725" gradientUnits="userSpaceOnUse">
<stop stop-color="#FF051A"/>
<stop offset="1" stop-color="#FFE100"/>
</linearGradient>
<linearGradient id="paint22_linear_20_2" x1="165.657" y1="144" x2="165.657" y2="238.049" gradientUnits="userSpaceOnUse">
<stop stop-color="#FF051A"/>
<stop offset="1" stop-color="#FFE100"/>
</linearGradient>
<linearGradient id="paint23_linear_20_2" x1="117.111" y1="140.869" x2="117.111" y2="241.453" gradientUnits="userSpaceOnUse">
<stop stop-color="#FF051A"/>
<stop offset="1" stop-color="#FFE100"/>
</linearGradient>
<linearGradient id="paint24_linear_20_2" x1="84.4966" y1="138.595" x2="84.4966" y2="243.725" gradientUnits="userSpaceOnUse">
<stop stop-color="#FF051A"/>
<stop offset="1" stop-color="#FFE100"/>
</linearGradient>
<linearGradient id="paint25_linear_20_2" x1="60.9766" y1="140.869" x2="60.9766" y2="241.453" gradientUnits="userSpaceOnUse">
<stop stop-color="#FF051A"/>
<stop offset="1" stop-color="#FFE100"/>
</linearGradient>
<linearGradient id="paint26_linear_20_2" x1="38.1156" y1="138.595" x2="38.1156" y2="243.725" gradientUnits="userSpaceOnUse">
<stop stop-color="#FF051A"/>
<stop offset="1" stop-color="#FFE100"/>
</linearGradient>
</defs>
</svg>
